Giphurs-ExtraBlack.ufo
<glyph name="parenright" format="2">
  <advance width="877"/>
  <unicode hex="0029"/>
  <outline>
    <contour>
      <point x="827" y="658" type="curve" smooth="yes"/>
      <point x="827" y="60"/>
      <point x="373" y="-265"/>
      <point x="193" y="-340" type="curve"/>
      <point x="25" y="-51" type="line"/>
      <point x="161" y="0"/>
      <point x="467" y="240"/>
      <point x="467" y="658" type="curve" smooth="yes"/>
      <point x="467" y="1078"/>
      <point x="161" y="1318"/>
      <point x="25" y="1369" type="curve"/>
      <point x="193" y="1658" type="line"/>
      <point x="373" y="1583"/>
      <point x="827" y="1258"/>
    </contour>
  </outline>
</glyph>
<glyph name="plus" format="2">
  <advance width="1232"/>
  <unicode hex="002B"/>
  <outline>
    <contour>
      <point x="436" y="1207" type="line"/>
      <point x="796" y="1207" type="line"/>
      <point x="796" y="113" type="line"/>
      <point x="436" y="113" type="line"/>
    </contour>
    <contour>
      <point x="70" y="500" type="line"/>
      <point x="70" y="820" type="line"/>
      <point x="1162" y="820" type="line"/>
      <point x="1162" y="500" type="line"/>
    </contour>
  </outline>
</glyph>
<glyph name="three" format="2">
  <advance width="1232"/>
  <unicode hex="0033"/>
  <outline>
    <contour>
      <point x="618" y="916" type="line" smooth="yes"/>
      <point x="710" y="916"/>
      <point x="777" y="973"/>
      <point x="777" y="1045" type="curve" smooth="yes"/>
      <point x="777" y="1117"/>
      <point x="710" y="1174"/>
      <point x="618" y="1174" type="curve" smooth="yes"/>
      <point x="502" y="1174"/>
      <point x="437" y="1117"/>
      <point x="437" y="1022" type="curve"/>
      <point x="75" y="1119" type="line"/>
      <point x="118" y="1389"/>
      <point x="350" y="1510"/>
      <point x="618" y="1510" type="curve" smooth="yes"/>
      <point x="938" y="1510"/>
      <point x="1157" y="1306"/>
      <point x="1157" y="1051" type="curve" smooth="yes"/>
      <point x="1157" y="938"/>
      <point x="1117" y="840"/>
      <point x="1044" y="767" type="curve"/>
      <point x="1138" y="691"/>
      <point x="1193" y="583"/>
      <point x="1193" y="445" type="curve" smooth="yes"/>
      <point x="1193" y="155"/>
      <point x="951" y="-30"/>
      <point x="619" y="-30" type="curve" smooth="yes"/>
      <point x="347" y="-30"/>
      <point x="82" y="94"/>
      <point x="39" y="364" type="curve"/>
      <point x="401" y="461" type="line"/>
      <point x="401" y="366"/>
      <point x="499" y="306"/>
      <point x="619" y="306" type="curve" smooth="yes"/>
      <point x="719" y="306"/>
      <point x="813" y="358"/>
      <point x="813" y="453" type="curve" smooth="yes"/>
      <point x="813" y="548"/>
      <point x="719" y="600"/>
      <point x="618" y="600" type="curve" smooth="yes"/>
      <point x="523" y="600" type="line"/>
      <point x="523" y="916" type="line"/>
    </contour>
  </outline>
</glyph>
<glyph name="greater" format="2">
  <advance width="1232"/>
  <unicode hex="003E"/>
  <outline>
    <contour>
      <point x="1162" y="498" type="line"/>
      <point x="70" y="46" type="line"/>
      <point x="70" y="390" type="line"/>
      <point x="760" y="660" type="line"/>
      <point x="70" y="930" type="line"/>
      <point x="70" y="1274" type="line"/>
      <point x="1162" y="822" type="line"/>
    </contour>
  </outline>
</glyph>
<glyph name="question" format="2">
  <advance width="1204"/>
  <unicode hex="003F"/>
  <outline>
    <contour>
      <point x="602" y="1190" type="curve" smooth="yes"/>
      <point x="497" y="1190"/>
      <point x="410" y="1127"/>
      <point x="410" y="1027" type="curve" smooth="yes"/>
      <point x="410" y="969"/>
      <point x="417" y="943"/>
      <point x="417" y="943" type="curve"/>
      <point x="50" y="1027" type="line"/>
      <point x="50" y="1347"/>
      <point x="306" y="1510"/>
      <point x="602" y="1510" type="curve" smooth="yes"/>
      <point x="898" y="1510"/>
      <point x="1154" y="1325"/>
      <point x="1154" y="1025" type="curve" smooth="yes"/>
      <point x="1154" y="725"/>
      <point x="938" y="540"/>
      <point x="602" y="540" type="curve"/>
      <point x="602" y="876" type="line"/>
      <point x="697" y="876"/>
      <point x="794" y="905"/>
      <point x="794" y="1025" type="curve" smooth="yes"/>
      <point x="794" y="1145"/>
      <point x="687" y="1190"/>
    </contour>
    <contour>
      <point x="408" y="160" type="curve" smooth="yes"/>
      <point x="408" y="271"/>
      <point x="497" y="360"/>
      <point x="608" y="360" type="curve" smooth="yes"/>
      <point x="719" y="360"/>
      <point x="808" y="271"/>
      <point x="808" y="160" type="curve" smooth="yes"/>
      <point x="808" y="49"/>
      <point x="719" y="-40"/>
      <point x="608" y="-40" type="curve" smooth="yes"/>
      <point x="497" y="-40"/>
      <point x="408" y="49"/>
    </contour>
    <contour>
      <point x="428" y="452" type="line"/>
      <point x="428" y="876" type="line"/>
      <point x="788" y="876" type="line"/>
      <point x="788" y="452" type="line"/>
    </contour>
  </outline>
</glyph>
<glyph name="D" format="2">
  <advance width="1486"/>
  <unicode hex="0044"/>
  <anchor x="597" y="-20" name="bottom_cedilla"/>
  <anchor x="692" y="0" name="bottom_center"/>
  <anchor x="692" y="1380" name="top_center"/>
  <outline>
    <contour>
      <point x="450" y="1144" type="line"/>
      <point x="450" y="336" type="line"/>
      <point x="670" y="336" type="line"/>
      <point x="874" y="336"/>
      <point x="1056" y="467"/>
      <point x="1056" y="740" type="curve" smooth="yes"/>
      <point x="1056" y="1013"/>
      <point x="864" y="1144"/>
      <point x="670" y="1144" type="curve"/>
    </contour>
    <contour>
      <point x="670" y="0" type="curve"/>
      <point x="298" y="0" type="line"/>
      <point x="70" y="0" type="line"/>
      <point x="70" y="1480" type="line"/>
      <point x="670" y="1480" type="line"/>
      <point x="1126" y="1480"/>
      <point x="1436" y="1190"/>
      <point x="1436" y="740" type="curve" smooth="yes"/>
      <point x="1436" y="290"/>
      <point x="1126" y="0"/>
    </contour>
  </outline>
</glyph>
<glyph name="S" format="2">
  <advance width="1327"/>
  <unicode hex="0053"/>
  <anchor x="662" y="-20" name="bottom_cedilla"/>
  <anchor x="662" y="0" name="bottom_center"/>
  <anchor x="662" y="1380" name="top_center"/>
  <outline>
    <contour>
      <point x="662" y="1174" type="curve" smooth="yes"/>
      <point x="522" y="1174"/>
      <point x="458" y="1132"/>
      <point x="458" y="1052" type="curve" smooth="yes"/>
      <point x="458" y="992"/>
      <point x="556" y="973"/>
      <point x="662" y="945" type="curve" smooth="yes"/>
      <point x="1029" y="847"/>
      <point x="1277" y="725"/>
      <point x="1277" y="445" type="curve" smooth="yes"/>
      <point x="1277" y="165"/>
      <point x="1072" y="-30"/>
      <point x="662" y="-30" type="curve" smooth="yes"/>
      <point x="357" y="-30"/>
      <point x="93" y="91"/>
      <point x="50" y="361" type="curve"/>
      <point x="423" y="461" type="line"/>
      <point x="423" y="361"/>
      <point x="512" y="306"/>
      <point x="662" y="306" type="curve" smooth="yes"/>
      <point x="812" y="306"/>
      <point x="897" y="355"/>
      <point x="897" y="445" type="curve" smooth="yes"/>
      <point x="897" y="535"/>
      <point x="768" y="549"/>
      <point x="662" y="577" type="curve" smooth="yes"/>
      <point x="314" y="670"/>
      <point x="78" y="792"/>
      <point x="78" y="1052" type="curve" smooth="yes"/>
      <point x="78" y="1312"/>
      <point x="292" y="1510"/>
      <point x="662" y="1510" type="curve" smooth="yes"/>
      <point x="967" y="1510"/>
      <point x="1206" y="1394"/>
      <point x="1249" y="1124" type="curve"/>
      <point x="876" y="1024" type="line"/>
      <point x="876" y="1124"/>
      <point x="802" y="1174"/>
    </contour>
  </outline>
</glyph>
<glyph name="Z" format="2">
  <advance width="1374"/>
  <unicode hex="005A"/>
  <anchor x="687" y="0" name="bottom_center"/>
  <anchor x="690" y="1380" name="top_center"/>
  <outline>
    <contour>
      <point x="253" y="0" type="line"/>
      <point x="70" y="302" type="line"/>
      <point x="1121" y="1480" type="line"/>
      <point x="1304" y="1176" type="line"/>
    </contour>
    <contour>
      <point x="493" y="336" type="line"/>
      <point x="1304" y="336" type="line"/>
      <point x="1304" y="0" type="line"/>
      <point x="860" y="0"/>
      <point x="514" y="0"/>
      <point x="70" y="0" type="curve"/>
      <point x="70" y="302" type="line"/>
    </contour>
    <contour>
      <point x="94" y="1480" type="line"/>
      <point x="538" y="1480"/>
      <point x="860" y="1480"/>
      <point x="1304" y="1480" type="curve"/>
      <point x="1304" y="1176" type="line"/>
      <point x="891" y="1144" type="line"/>
      <point x="94" y="1144" type="line"/>
    </contour>
  </outline>
</glyph>
<glyph name="bracketright" format="2">
  <advance width="883"/>
  <unicode hex="005D"/>
  <outline>
    <contour>
      <point x="35" y="1320" type="line"/>
      <point x="35" y="1640" type="line"/>
      <point x="813" y="1640" type="line"/>
      <point x="813" y="-320" type="line"/>
      <point x="35" y="-320" type="line"/>
      <point x="35" y="0" type="line"/>
      <point x="453" y="0" type="line"/>
      <point x="453" y="1320" type="line"/>
    </contour>
  </outline>
</glyph>
<glyph name="asciicircum" format="2">
  <advance width="1232"/>
  <unicode hex="005E"/>
  <outline>
    <contour>
      <point x="810" y="656" type="line"/>
      <point x="617" y="1080" type="line"/>
      <point x="422" y="656" type="line"/>
      <point x="50" y="656" type="line"/>
      <point x="440" y="1480" type="line"/>
      <point x="792" y="1480" type="line"/>
      <point x="1182" y="656" type="line"/>
    </contour>
  </outline>
</glyph>
<glyph name="e" format="2">
  <advance width="1200"/>
  <unicode hex="0065"/>
  <anchor x="600" y="-20" name="bottom_cedilla"/>
  <anchor x="803" y="0" name="bottom_right"/>
  <anchor x="600" y="0" name="bottom_center"/>
  <anchor x="600" y="1040" name="top_center"/>
  <outline>
    <contour>
      <point x="176" y="660" type="line"/>
      <point x="1082" y="660" type="line"/>
      <point x="780" y="400" type="line"/>
      <point x="176" y="400" type="line"/>
    </contour>
    <contour>
      <point x="789" y="368" type="curve"/>
      <point x="1096" y="242" type="line"/>
      <point x="1004" y="65"/>
      <point x="822" y="-30"/>
      <point x="600" y="-30" type="curve" smooth="yes"/>
      <point x="279" y="-30"/>
      <point x="50" y="200"/>
      <point x="50" y="520" type="curve" smooth="yes"/>
      <point x="50" y="840"/>
      <point x="280" y="1070"/>
      <point x="600" y="1070" type="curve" smooth="yes"/>
      <point x="920" y="1070"/>
      <point x="1150" y="840"/>
      <point x="1150" y="520" type="curve" smooth="yes"/>
      <point x="1150" y="479"/>
      <point x="1145" y="438"/>
      <point x="1138" y="400" type="curve"/>
      <point x="780" y="400" type="line"/>
      <point x="794" y="435"/>
      <point x="820" y="476"/>
      <point x="820" y="520" type="curve" smooth="yes"/>
      <point x="820" y="657"/>
      <point x="737" y="750"/>
      <point x="600" y="750" type="curve" smooth="yes"/>
      <point x="463" y="750"/>
      <point x="370" y="657"/>
      <point x="370" y="520" type="curve" smooth="yes"/>
      <point x="370" y="390"/>
      <point x="462" y="290"/>
      <point x="600" y="290" type="curve" smooth="yes"/>
      <point x="714" y="290"/>
      <point x="771" y="329"/>
    </contour>
  </outline>
</glyph>
<glyph name="p" format="2">
  <advance width="1250"/>
  <unicode hex="0070"/>
  <anchor x="250" y="-360" name="bottom_center"/>
  <anchor x="630" y="1040" name="top_center"/>
  <outline>
    <contour>
      <point x="430" y="530" type="curve" smooth="yes"/>
      <point x="430" y="400"/>
      <point x="493" y="290"/>
      <point x="630" y="290" type="curve" smooth="yes"/>
      <point x="767" y="290"/>
      <point x="840" y="390"/>
      <point x="840" y="520" type="curve" smooth="yes"/>
      <point x="840" y="650"/>
      <point x="767" y="750"/>
      <point x="630" y="750" type="curve" smooth="yes"/>
      <point x="499" y="750"/>
      <point x="430" y="660"/>
    </contour>
    <contour>
      <point x="70" y="872" type="line"/>
      <point x="70" y="974"/>
      <point x="70" y="1040"/>
      <point x="70" y="1040" type="curve"/>
      <point x="418" y="1040" type="line"/>
      <point x="418" y="920" type="line"/>
      <point x="418" y="960"/>
      <point x="545" y="1070"/>
      <point x="695" y="1070" type="curve" smooth="yes"/>
      <point x="1015" y="1070"/>
      <point x="1200" y="840"/>
      <point x="1200" y="520" type="curve" smooth="yes"/>
      <point x="1200" y="200"/>
      <point x="1015" y="-30"/>
      <point x="695" y="-30" type="curve" smooth="yes"/>
      <point x="545" y="-30"/>
      <point x="440" y="81"/>
      <point x="430" y="120" type="curve"/>
      <point x="430" y="-440" type="line"/>
      <point x="70" y="-440" type="line"/>
    </contour>
  </outline>
</glyph>
<glyph name="v" format="2">
  <advance width="1174"/>
  <unicode hex="0076"/>
  <anchor x="587" y="0" name="bottom_center"/>
  <anchor x="587" y="1040" name="top_center"/>
  <outline>
    <contour>
      <point x="595" y="404" type="line"/>
      <point x="755" y="1040" type="line"/>
      <point x="1139" y="1040" type="line"/>
      <point x="784" y="0" type="line"/>
      <point x="390" y="0" type="line"/>
      <point x="35" y="1040" type="line"/>
      <point x="419" y="1040" type="line"/>
    </contour>
  </outline>
</glyph>
<glyph name="x" format="2">
  <advance width="1212"/>
  <unicode hex="0078"/>
  <anchor x="606" y="0" name="bottom_center"/>
  <anchor x="606" y="1040" name="top_center"/>
  <outline>
    <contour>
      <point x="349" y="520" type="line"/>
      <point x="35" y="1040" type="line"/>
      <point x="452" y="1040" type="line"/>
      <point x="606" y="743" type="line"/>
      <point x="757" y="1040" type="line"/>
      <point x="1177" y="1040" type="line"/>
      <point x="863" y="520" type="line"/>
      <point x="1177" y="0" type="line"/>
      <point x="757" y="0" type="line"/>
      <point x="604" y="300" type="line"/>
      <point x="455" y="0" type="line"/>
      <point x="35" y="0" type="line"/>
    </contour>
  </outline>
</glyph>
<glyph name="guillemotleft" format="2">
  <advance width="1460"/>
  <unicode hex="00AB"/>
  <outline>
    <contour>
      <point x="1017" y="196" type="line"/>
      <point x="667" y="660" type="line"/>
      <point x="1017" y="1126" type="line"/>
      <point x="1425" y="1126" type="line"/>
      <point x="1071" y="660" type="line"/>
      <point x="1425" y="196" type="line"/>
    </contour>
    <contour>
      <point x="385" y="196" type="line"/>
      <point x="35" y="660" type="line"/>
      <point x="385" y="1126" type="line"/>
      <point x="793" y="1126" type="line"/>
      <point x="439" y="660" type="line"/>
      <point x="793" y="196" type="line"/>
    </contour>
  </outline>
</glyph>
<glyph name="macron" format="2">
  <advance width="802"/>
  <unicode hex="00AF"/>
  <outline>
    <contour>
      <point x="35" y="1192" type="line"/>
      <point x="35" y="1472" type="line"/>
      <point x="767" y="1472" type="line"/>
      <point x="767" y="1192" type="line"/>
    </contour>
  </outline>
</glyph>
<glyph name="periodcentered" format="2">
  <advance width="500"/>
  <unicode hex="00B7"/>
  <outline>
    <contour>
      <point x="50" y="660" type="curve" smooth="yes"/>
      <point x="50" y="771"/>
      <point x="139" y="860"/>
      <point x="250" y="860" type="curve" smooth="yes"/>
      <point x="361" y="860"/>
      <point x="450" y="771"/>
      <point x="450" y="660" type="curve" smooth="yes"/>
      <point x="450" y="549"/>
      <point x="361" y="460"/>
      <point x="250" y="460" type="curve" smooth="yes"/>
      <point x="139" y="460"/>
      <point x="50" y="549"/>
    </contour>
  </outline>
</glyph>
<glyph name="questiondown" format="2">
  <advance width="1264"/>
  <unicode hex="00BF"/>
  <outline>
    <contour>
      <point x="632" y="-150" type="curve" smooth="yes"/>
      <point x="547" y="-150"/>
      <point x="440" y="-105"/>
      <point x="440" y="15" type="curve" smooth="yes"/>
      <point x="440" y="135"/>
      <point x="537" y="164"/>
      <point x="632" y="164" type="curve"/>
      <point x="632" y="500" type="line"/>
      <point x="296" y="500"/>
      <point x="80" y="315"/>
      <point x="80" y="15" type="curve" smooth="yes"/>
      <point x="80" y="-285"/>
      <point x="336" y="-470"/>
      <point x="632" y="-470" type="curve" smooth="yes"/>
      <point x="928" y="-470"/>
      <point x="1184" y="-307"/>
      <point x="1184" y="13" type="curve"/>
      <point x="817" y="97" type="line"/>
      <point x="817" y="97"/>
      <point x="824" y="71"/>
      <point x="824" y="13" type="curve" smooth="yes"/>
      <point x="824" y="-87"/>
      <point x="737" y="-150"/>
    </contour>
    <contour>
      <point x="826" y="880" type="curve" smooth="yes"/>
      <point x="826" y="769"/>
      <point x="737" y="680"/>
      <point x="626" y="680" type="curve" smooth="yes"/>
      <point x="515" y="680"/>
      <point x="426" y="769"/>
      <point x="426" y="880" type="curve" smooth="yes"/>
      <point x="426" y="991"/>
      <point x="515" y="1080"/>
      <point x="626" y="1080" type="curve" smooth="yes"/>
      <point x="737" y="1080"/>
      <point x="826" y="991"/>
    </contour>
    <contour>
      <point x="806" y="588" type="line"/>
      <point x="446" y="588" type="line"/>
      <point x="446" y="164" type="line"/>
      <point x="806" y="164" type="line"/>
    </contour>
  </outline>
</glyph>
<glyph name="ae" format="2">
  <advance width="1896"/>
  <unicode hex="00E6"/>
  <anchor x="931" y="0" name="bottom_center"/>
  <anchor x="971" y="1040" name="top_center"/>
  <outline>
    <contour>
      <point x="872" y="660" type="line"/>
      <point x="1778" y="660" type="line"/>
      <point x="1476" y="400" type="line"/>
      <point x="872" y="400" type="line"/>
    </contour>
    <contour>
      <point x="1485" y="368" type="curve"/>
      <point x="1792" y="242" type="line"/>
      <point x="1700" y="65"/>
      <point x="1518" y="-30"/>
      <point x="1296" y="-30" type="curve" smooth="yes"/>
      <point x="975" y="-30"/>
      <point x="746" y="200"/>
      <point x="746" y="520" type="curve" smooth="yes"/>
      <point x="746" y="840"/>
      <point x="976" y="1070"/>
      <point x="1296" y="1070" type="curve" smooth="yes"/>
      <point x="1616" y="1070"/>
      <point x="1846" y="840"/>
      <point x="1846" y="520" type="curve" smooth="yes"/>
      <point x="1846" y="479"/>
      <point x="1841" y="438"/>
      <point x="1834" y="400" type="curve"/>
      <point x="1476" y="400" type="line"/>
      <point x="1490" y="435"/>
      <point x="1516" y="476"/>
      <point x="1516" y="520" type="curve" smooth="yes"/>
      <point x="1516" y="657"/>
      <point x="1433" y="750"/>
      <point x="1296" y="750" type="curve" smooth="yes"/>
      <point x="1159" y="750"/>
      <point x="1080" y="657"/>
      <point x="1080" y="520" type="curve" smooth="yes"/>
      <point x="1080" y="390"/>
      <point x="1158" y="290"/>
      <point x="1296" y="290" type="curve" smooth="yes"/>
      <point x="1410" y="290"/>
      <point x="1467" y="329"/>
    </contour>
    <contour>
      <point x="530" y="-30" type="curve" smooth="yes"/>
      <point x="224" y="-30"/>
      <point x="50" y="135"/>
      <point x="50" y="335" type="curve" smooth="yes"/>
      <point x="50" y="535"/>
      <point x="272" y="680"/>
      <point x="578" y="680" type="curve" smooth="yes"/>
      <point x="848" y="680"/>
      <point x="1018" y="545"/>
      <point x="1018" y="345" type="curve"/>
      <point x="1018" y="145"/>
      <point x="900" y="-30"/>
    </contour>
    <contour>
      <point x="746" y="345" type="curve" smooth="yes"/>
      <point x="746" y="385"/>
      <point x="678" y="400"/>
      <point x="578" y="400" type="curve" smooth="yes"/>
      <point x="478" y="400"/>
      <point x="410" y="385"/>
      <point x="410" y="345" type="curve" smooth="yes"/>
      <point x="410" y="305"/>
      <point x="478" y="290"/>
      <point x="578" y="290" type="curve" smooth="yes"/>
      <point x="678" y="290"/>
      <point x="746" y="305"/>
    </contour>
    <contour>
      <point x="1106" y="257" type="line"/>
      <point x="746" y="450" type="line"/>
      <point x="746" y="658" type="line"/>
      <point x="746" y="718"/>
      <point x="710" y="761"/>
      <point x="578" y="761" type="curve" smooth="yes"/>
      <point x="352" y="761"/>
      <point x="262" y="695"/>
      <point x="262" y="695" type="curve"/>
      <point x="98" y="966" type="line"/>
      <point x="98" y="966"/>
      <point x="292" y="1080"/>
      <point x="578" y="1080" type="curve" smooth="yes"/>
      <point x="873" y="1080"/>
      <point x="1106" y="978"/>
      <point x="1106" y="628" type="curve"/>
    </contour>
  </outline>
</glyph>
<glyph name="Hbar" format="2">
  <advance width="1678"/>
  <unicode hex="0126"/>
  <outline>
    <contour>
      <point x="1678" y="1004" type="line"/>
      <point x="0" y="1004" type="line"/>
      <point x="0" y="1050"/>
      <point x="0" y="1198"/>
      <point x="0" y="1244" type="curve"/>
      <point x="1678" y="1244" type="line"/>
    </contour>
    <contour>
      <point x="168" y="1480" type="line"/>
      <point x="548" y="1480" type="line"/>
      <point x="548" y="908" type="line"/>
      <point x="1130" y="908" type="line"/>
      <point x="1130" y="1480" type="line"/>
      <point x="1510" y="1480" type="line"/>
      <point x="1510" y="0" type="line"/>
      <point x="1130" y="0" type="line"/>
      <point x="1130" y="572" type="line"/>
      <point x="548" y="572" type="line"/>
      <point x="548" y="0" type="line"/>
      <point x="168" y="-10" type="line"/>
    </contour>
  </outline>
</glyph>
<glyph name="Lcaron" format="2">
  <advance width="1254"/>
  <unicode hex="013D"/>
  <outline>
    <contour>
      <point x="918" y="1120" type="line"/>
      <point x="570" y="1120" type="line"/>
      <point x="634" y="1480" type="line"/>
      <point x="1014" y="1480" type="line"/>
    </contour>
    <contour>
      <point x="450" y="1480" type="line"/>
      <point x="450" y="336" type="line"/>
      <point x="1184" y="336" type="line"/>
      <point x="1184" y="0" type="line"/>
      <point x="70" y="0" type="line"/>
      <point x="70" y="1480" type="line"/>
    </contour>
  </outline>
</glyph>
<glyph name="lcaron" format="2">
  <advance width="994"/>
  <unicode hex="013E"/>
  <outline>
    <contour>
      <point x="898" y="1120" type="line"/>
      <point x="550" y="1120" type="line"/>
      <point x="614" y="1480" type="line"/>
      <point x="994" y="1480" type="line"/>
    </contour>
    <contour>
      <point x="560" y="306" type="curve"/>
      <point x="660" y="14" type="line"/>
      <point x="634" y="1"/>
      <point x="586" y="-30"/>
      <point x="498" y="-30" type="curve" smooth="yes"/>
      <point x="314" y="-30"/>
      <point x="70" y="62"/>
      <point x="70" y="362" type="curve" smooth="yes"/>
      <point x="70" y="440" type="line"/>
      <point x="70" y="578" type="line"/>
      <point x="70" y="1480" type="line"/>
      <point x="430" y="1480" type="line"/>
      <point x="430" y="578" type="line"/>
      <point x="430" y="440" type="line"/>
      <point x="430" y="362" type="line" smooth="yes"/>
      <point x="430" y="312"/>
      <point x="446" y="290"/>
      <point x="498" y="290" type="curve" smooth="yes"/>
      <point x="517" y="290"/>
      <point x="547" y="297"/>
    </contour>
  </outline>
</glyph>
<glyph name="tcaron" format="2">
  <advance width="1241"/>
  <unicode hex="0165"/>
  <outline>
    <contour>
      <point x="1145" y="1200" type="line"/>
      <point x="797" y="1200" type="line"/>
      <point x="861" y="1560" type="line"/>
      <point x="1241" y="1560" type="line"/>
    </contour>
    <contour>
      <point x="97" y="1028" type="line"/>
      <point x="217" y="1028"/>
      <point x="301" y="1106"/>
      <point x="301" y="1226" type="curve"/>
      <point x="301" y="1320" type="line"/>
      <point x="637" y="1320" type="line"/>
      <point x="637" y="1040" type="line"/>
      <point x="942" y="1040" type="line"/>
      <point x="942" y="720" type="line"/>
      <point x="637" y="720" type="line"/>
      <point x="637" y="440" type="line" smooth="yes"/>
      <point x="637" y="340"/>
      <point x="685" y="290"/>
      <point x="775" y="290" type="curve" smooth="yes"/>
      <point x="835" y="290"/>
      <point x="910" y="313"/>
      <point x="942" y="345" type="curve"/>
      <point x="1033" y="22" type="line"/>
      <point x="977" y="-2"/>
      <point x="892" y="-30"/>
      <point x="771" y="-30" type="curve" smooth="yes"/>
      <point x="411" y="-30"/>
      <point x="277" y="160"/>
      <point x="277" y="440" type="curve" smooth="yes"/>
      <point x="277" y="720" type="line"/>
      <point x="25" y="720" type="line"/>
      <point x="25" y="740"/>
      <point x="25" y="1008"/>
      <point x="25" y="1028" type="curve"/>
    </contour>
  </outline>
</glyph>
<glyph name="uni0183" format="2">
  <advance width="1250"/>
  <unicode hex="0183"/>
  <outline>
    <contour>
      <point x="1089" y="1160" type="line"/>
      <point x="430" y="1160" type="line"/>
      <point x="430" y="1480" type="line"/>
      <point x="1089" y="1480" type="line"/>
    </contour>
    <contour>
      <point x="430" y="510" type="curve" smooth="yes"/>
      <point x="430" y="380"/>
      <point x="499" y="290"/>
      <point x="630" y="290" type="curve" smooth="yes"/>
      <point x="767" y="290"/>
      <point x="840" y="390"/>
      <point x="840" y="520" type="curve" smooth="yes"/>
      <point x="840" y="650"/>
      <point x="767" y="750"/>
      <point x="630" y="750" type="curve" smooth="yes"/>
      <point x="493" y="750"/>
      <point x="430" y="640"/>
    </contour>
    <contour>
      <point x="70" y="168" type="curve"/>
      <point x="70" y="1480" type="line"/>
      <point x="430" y="1480" type="line"/>
      <point x="430" y="920" type="line"/>
      <point x="440" y="959"/>
      <point x="545" y="1070"/>
      <point x="695" y="1070" type="curve" smooth="yes"/>
      <point x="1015" y="1070"/>
      <point x="1200" y="840"/>
      <point x="1200" y="520" type="curve" smooth="yes"/>
      <point x="1200" y="200"/>
      <point x="1015" y="-30"/>
      <point x="695" y="-30" type="curve" smooth="yes"/>
      <point x="545" y="-30"/>
      <point x="418" y="80"/>
      <point x="418" y="120" type="curve"/>
      <point x="418" y="0" type="line"/>
      <point x="70" y="0" type="line"/>
      <point x="70" y="0"/>
      <point x="70" y="66"/>
    </contour>
  </outline>
</glyph>
<glyph name="uni0198" format="2">
  <advance width="1493"/>
  <unicode hex="0198"/>
  <outline>
    <contour>
      <point x="453" y="801" type="line"/>
      <point x="792" y="925" type="line"/>
      <point x="1458" y="0" type="line"/>
      <point x="1018" y="0" type="line"/>
    </contour>
    <contour>
      <point x="70" y="1106" type="line" smooth="yes"/>
      <point x="70" y="1356"/>
      <point x="285" y="1510"/>
      <point x="535" y="1510" type="curve" smooth="yes"/>
      <point x="547" y="1510"/>
      <point x="559" y="1510"/>
      <point x="571" y="1509" type="curve"/>
      <point x="571" y="1183" type="line"/>
      <point x="560" y="1188"/>
      <point x="548" y="1190"/>
      <point x="535" y="1190" type="curve" smooth="yes"/>
      <point x="485" y="1190"/>
      <point x="450" y="1156"/>
      <point x="450" y="1106" type="curve" smooth="yes"/>
      <point x="450" y="940" type="line"/>
      <point x="978" y="1480" type="line"/>
      <point x="1050" y="1480"/>
      <point x="1386" y="1480"/>
      <point x="1458" y="1480" type="curve"/>
      <point x="450" y="450" type="line"/>
      <point x="450" y="0" type="line"/>
      <point x="70" y="0" type="line"/>
    </contour>
  </outline>
</glyph>
<glyph name="uni0199" format="2">
  <advance width="1193"/>
  <unicode hex="0199"/>
  <outline>
    <contour>
      <point x="285" y="643" type="line"/>
      <point x="682" y="660" type="line"/>
      <point x="1158" y="0" type="line"/>
      <point x="738" y="0" type="line"/>
    </contour>
    <contour>
      <point x="70" y="1106" type="line" smooth="yes"/>
      <point x="70" y="1356"/>
      <point x="265" y="1510"/>
      <point x="515" y="1510" type="curve" smooth="yes"/>
      <point x="527" y="1510"/>
      <point x="539" y="1510"/>
      <point x="551" y="1509" type="curve"/>
      <point x="551" y="1183" type="line"/>
      <point x="540" y="1188"/>
      <point x="528" y="1190"/>
      <point x="515" y="1190" type="curve" smooth="yes"/>
      <point x="465" y="1190"/>
      <point x="430" y="1156"/>
      <point x="430" y="1106" type="curve" smooth="yes"/>
      <point x="430" y="808" type="line"/>
      <point x="662" y="1040" type="line"/>
      <point x="734" y="1040"/>
      <point x="1054" y="1040"/>
      <point x="1126" y="1040" type="curve"/>
      <point x="430" y="344" type="line"/>
      <point x="430" y="0" type="line"/>
      <point x="70" y="0" type="line"/>
    </contour>
  </outline>
</glyph>
<glyph name="uni019C" format="2">
  <advance width="1644"/>
  <unicode hex="019C"/>
  <anchor x="822" y="1380" name="top_center"/>
  <anchor x="822" y="0" name="bottom_center"/>
  <outline>
    <contour>
      <point x="1574" y="178" type="line"/>
      <point x="1574" y="76"/>
      <point x="1598" y="0"/>
      <point x="1598" y="0" type="curve"/>
      <point x="1250" y="0" type="line"/>
      <point x="1250" y="0"/>
      <point x="1226" y="60"/>
      <point x="1226" y="120" type="curve"/>
      <point x="1226" y="120"/>
      <point x="1162" y="-30"/>
      <point x="1012" y="-30" type="curve" smooth="yes"/>
      <point x="748" y="-30"/>
      <point x="642" y="148"/>
      <point x="642" y="468" type="curve"/>
      <point x="642" y="1460" type="line"/>
      <point x="1002" y="1460" type="line"/>
      <point x="1002" y="468" type="line" smooth="yes"/>
      <point x="1002" y="358"/>
      <point x="1008" y="290"/>
      <point x="1108" y="290" type="curve" smooth="yes"/>
      <point x="1208" y="290"/>
      <point x="1214" y="358"/>
      <point x="1214" y="468" type="curve" smooth="yes"/>
      <point x="1214" y="1460" type="line"/>
      <point x="1574" y="1460" type="line"/>
    </contour>
    <contour>
      <point x="810" y="468" type="line"/>
      <point x="810" y="148"/>
      <point x="704" y="-30"/>
      <point x="440" y="-30" type="curve" smooth="yes"/>
      <point x="176" y="-30"/>
      <point x="70" y="148"/>
      <point x="70" y="468" type="curve"/>
      <point x="70" y="1460" type="line"/>
      <point x="430" y="1460" type="line"/>
      <point x="430" y="468" type="line" smooth="yes"/>
      <point x="430" y="358"/>
      <point x="436" y="290"/>
      <point x="536" y="290" type="curve" smooth="yes"/>
      <point x="636" y="290"/>
      <point x="642" y="358"/>
      <point x="642" y="468" type="curve"/>
    </contour>
  </outline>
</glyph>
<glyph name="uni01B2" format="2">
  <advance width="1482"/>
  <unicode hex="01B2"/>
  <anchor x="741" y="1380" name="top_center"/>
  <anchor x="741" y="0" name="bottom_center"/>
  <outline>
    <contour>
      <point x="1032" y="1050" type="curve"/>
      <point x="1032" y="600" type="line"/>
      <point x="1032" y="390"/>
      <point x="891" y="306"/>
      <point x="741" y="306" type="curve" smooth="yes"/>
      <point x="591" y="306"/>
      <point x="450" y="390"/>
      <point x="450" y="600" type="curve"/>
      <point x="450" y="1480" type="line"/>
      <point x="70" y="1480" type="line"/>
      <point x="70" y="600" type="line"/>
      <point x="70" y="240"/>
      <point x="309" y="-30"/>
      <point x="741" y="-30" type="curve" smooth="yes"/>
      <point x="1173" y="-30"/>
      <point x="1412" y="240"/>
      <point x="1412" y="600" type="curve"/>
      <point x="1412" y="1050" type="line"/>
      <point x="1412" y="1330"/>
      <point x="1258" y="1510"/>
      <point x="898" y="1510" type="curve" smooth="yes"/>
      <point x="875" y="1510"/>
      <point x="863" y="1509"/>
      <point x="842" y="1507" type="curve"/>
      <point x="842" y="1183" type="line"/>
      <point x="863" y="1188"/>
      <point x="874" y="1190"/>
      <point x="894" y="1190" type="curve" smooth="yes"/>
      <point x="984" y="1190"/>
      <point x="1032" y="1150"/>
    </contour>
  </outline>
</glyph>
<glyph name="uni01B6" format="2">
  <advance width="1032"/>
  <unicode hex="01B6"/>
  <outline>
    <contour>
      <point x="70" y="1040" type="line"/>
      <point x="70" y="720" type="line"/>
      <point x="548" y="720" type="line"/>
      <point x="962" y="752" type="line"/>
      <point x="962" y="1040" type="line"/>
    </contour>
    <contour>
      <point x="958" y="320" type="line"/>
      <point x="484" y="320" type="line"/>
      <point x="70" y="288" type="line"/>
      <point x="70" y="0" type="line"/>
      <point x="958" y="0" type="line"/>
    </contour>
    <contour>
      <point x="544" y="320" type="line"/>
      <point x="962" y="752" type="line"/>
      <point x="488" y="720" type="line"/>
      <point x="70" y="288" type="line"/>
    </contour>
    <contour>
      <point x="100" y="400" type="curve"/>
      <point x="942" y="400" type="line"/>
      <point x="942" y="640" type="line"/>
      <point x="100" y="640" type="line"/>
      <point x="100" y="594"/>
      <point x="100" y="446"/>
    </contour>
  </outline>
</glyph>
<glyph name="uni01BA" format="2">
  <advance width="1318"/>
  <unicode hex="01BA"/>
  <outline>
    <contour>
      <point x="654" y="-120" type="curve" smooth="yes"/>
      <point x="468" y="-120"/>
      <point x="430" y="-122"/>
      <point x="430" y="-140" type="curve" smooth="yes"/>
      <point x="430" y="-158"/>
      <point x="468" y="-160"/>
      <point x="654" y="-160" type="curve" smooth="yes"/>
      <point x="793" y="-160"/>
      <point x="1063" y="-144"/>
      <point x="1190" y="-89" type="curve"/>
      <point x="1268" y="-403" type="line"/>
      <point x="1146" y="-454"/>
      <point x="870" y="-470"/>
      <point x="654" y="-470" type="curve" smooth="yes"/>
      <point x="208" y="-470"/>
      <point x="50" y="-330"/>
      <point x="50" y="-150" type="curve" smooth="yes"/>
      <point x="50" y="30"/>
      <point x="138" y="226"/>
      <point x="654" y="226" type="curve" smooth="yes"/>
      <point x="840" y="226"/>
      <point x="908" y="228"/>
      <point x="908" y="246" type="curve" smooth="yes"/>
      <point x="908" y="264"/>
      <point x="840" y="266"/>
      <point x="654" y="266" type="curve" smooth="yes"/>
      <point x="540" y="266" type="line"/>
      <point x="540" y="562" type="line"/>
      <point x="654" y="586" type="line"/>
      <point x="1110" y="586"/>
      <point x="1268" y="436"/>
      <point x="1268" y="256" type="curve" smooth="yes"/>
      <point x="1268" y="76"/>
      <point x="1170" y="-120"/>
    </contour>
    <contour>
      <point x="723" y="284" type="line"/>
      <point x="540" y="562" type="line"/>
      <point x="1065" y="1040" type="line"/>
      <point x="1208" y="752" type="line"/>
    </contour>
    <contour>
      <point x="154" y="1040" type="line"/>
      <point x="1208" y="1040" type="line"/>
      <point x="1208" y="752" type="line"/>
      <point x="795" y="720" type="line"/>
      <point x="154" y="720" type="line"/>
    </contour>
  </outline>
</glyph>
<glyph name="uni01BC" format="2">
  <advance width="1425"/>
  <unicode hex="01BC"/>
  <outline>
    <contour>
      <point x="568" y="615" type="curve"/>
      <point x="374" y="678" type="line"/>
      <point x="456" y="829"/>
      <point x="555" y="1012"/>
      <point x="778" y="1012" type="curve" smooth="yes"/>
      <point x="1127" y="1012"/>
      <point x="1355" y="802"/>
      <point x="1355" y="491" type="curve" smooth="yes"/>
      <point x="1355" y="180"/>
      <point x="1127" y="-30"/>
      <point x="777" y="-30" type="curve" smooth="yes"/>
      <point x="482" y="-30"/>
      <point x="228" y="91"/>
      <point x="185" y="361" type="curve"/>
      <point x="558" y="461" type="line"/>
      <point x="558" y="361"/>
      <point x="627" y="306"/>
      <point x="777" y="306" type="curve" smooth="yes"/>
      <point x="898" y="306"/>
      <point x="975" y="371"/>
      <point x="975" y="491" type="curve" smooth="yes"/>
      <point x="975" y="611"/>
      <point x="878" y="676"/>
      <point x="758" y="676" type="curve" smooth="yes"/>
      <point x="704" y="676"/>
      <point x="611" y="668"/>
    </contour>
    <contour>
      <point x="341" y="1412" type="line"/>
      <point x="695" y="1412" type="line"/>
      <point x="587" y="678" type="line"/>
      <point x="374" y="678" type="line"/>
      <point x="243" y="720" type="line"/>
    </contour>
    <contour>
      <point x="35" y="1144" type="line"/>
      <point x="35" y="1480" type="line"/>
      <point x="1283" y="1480" type="line"/>
      <point x="1283" y="1144" type="line"/>
    </contour>
  </outline>
</glyph>
<glyph name="uni01C2" format="2">
  <advance width="1068"/>
  <unicode hex="01C2"/>
  <outline>
    <contour>
      <point x="70" y="800" type="line"/>
      <point x="70" y="1120" type="line"/>
      <point x="998" y="1120" type="line"/>
      <point x="998" y="800" type="line"/>
    </contour>
    <contour>
      <point x="70" y="360" type="line"/>
      <point x="70" y="680" type="line"/>
      <point x="998" y="680" type="line"/>
      <point x="998" y="360" type="line"/>
    </contour>
    <contour>
      <point x="714" y="1480" type="line"/>
      <point x="714" y="0" type="line"/>
      <point x="354" y="0" type="line"/>
      <point x="354" y="1480" type="line"/>
    </contour>
  </outline>
</glyph>
<glyph name="uni021C" format="2">
  <advance width="1318"/>
  <unicode hex="021C"/>
  <outline>
    <contour>
      <point x="774" y="434" type="line"/>
      <point x="842" y="404"/>
      <point x="888" y="340"/>
      <point x="888" y="268" type="curve" smooth="yes"/>
      <point x="888" y="18"/>
      <point x="654" y="-134"/>
      <point x="224" y="-134" type="curve"/>
      <point x="224" y="-470" type="line"/>
      <point x="884" y="-470"/>
      <point x="1268" y="-172"/>
      <point x="1268" y="268" type="curve" smooth="yes"/>
      <point x="1268" y="430"/>
      <point x="1185" y="579"/>
      <point x="1050" y="676" type="curve"/>
    </contour>
    <contour>
      <point x="632" y="1174" type="curve" smooth="yes"/>
      <point x="747" y="1174"/>
      <point x="834" y="1090"/>
      <point x="834" y="990" type="curve" smooth="yes"/>
      <point x="834" y="740"/>
      <point x="654" y="588"/>
      <point x="224" y="588" type="curve"/>
      <point x="224" y="252" type="line"/>
      <point x="884" y="252"/>
      <point x="1214" y="550"/>
      <point x="1214" y="990" type="curve" smooth="yes"/>
      <point x="1214" y="1270"/>
      <point x="968" y="1510"/>
      <point x="632" y="1510" type="curve" smooth="yes"/>
      <point x="296" y="1510"/>
      <point x="50" y="1310"/>
      <point x="50" y="990" type="curve"/>
      <point x="437" y="906" type="line"/>
      <point x="437" y="906"/>
      <point x="430" y="932"/>
      <point x="430" y="990" type="curve" smooth="yes"/>
      <point x="430" y="1090"/>
      <point x="517" y="1174"/>
    </contour>
  </outline>
</glyph>
<glyph name="uni0237" format="2">
  <advance width="500"/>
  <unicode hex="0237"/>
  <anchor x="146" y="-360" name="bottom_center"/>
  <anchor x="250" y="1040" name="top_center"/>
  <outline>
    <contour>
      <point x="-60" y="-134" type="line"/>
      <point x="-47" y="-143"/>
      <point x="-17" y="-150"/>
      <point x="2" y="-150" type="curve" smooth="yes"/>
      <point x="54" y="-150"/>
      <point x="70" y="-128"/>
      <point x="70" y="-78" type="curve" smooth="yes"/>
      <point x="70" y="0" type="line"/>
      <point x="70" y="138" type="line"/>
      <point x="70" y="1040" type="line"/>
      <point x="430" y="1040" type="line"/>
      <point x="430" y="138" type="line"/>
      <point x="430" y="0" type="line"/>
      <point x="430" y="-78" type="line" smooth="yes"/>
      <point x="430" y="-378"/>
      <point x="186" y="-470"/>
      <point x="2" y="-470" type="curve" smooth="yes"/>
      <point x="-86" y="-470"/>
      <point x="-134" y="-439"/>
      <point x="-160" y="-426" type="curve"/>
    </contour>
  </outline>
</glyph>
<glyph name="uni023D" format="2">
  <advance width="1394"/>
  <unicode hex="023D"/>
  <outline>
    <contour>
      <point x="860" y="620" type="line"/>
      <point x="0" y="620" type="line"/>
      <point x="0" y="666"/>
      <point x="0" y="814"/>
      <point x="0" y="860" type="curve"/>
      <point x="860" y="860" type="line"/>
    </contour>
    <contour>
      <point x="590" y="1480" type="line"/>
      <point x="590" y="336" type="line"/>
      <point x="1324" y="336" type="line"/>
      <point x="1324" y="0" type="line"/>
      <point x="210" y="0" type="line"/>
      <point x="210" y="1480" type="line"/>
    </contour>
  </outline>
</glyph>
<glyph name="uni0246" format="2">
  <advance width="1254"/>
  <unicode hex="0246"/>
  <outline>
    <contour>
      <point x="876" y="1660" type="line"/>
      <point x="1135" y="1660" type="line"/>
      <point x="378" y="-180" type="line"/>
      <point x="119" y="-180" type="line"/>
    </contour>
    <contour>
      <point x="1070" y="908" type="line"/>
      <point x="1070" y="572" type="line"/>
      <point x="450" y="572" type="line"/>
      <point x="450" y="336" type="line"/>
      <point x="1184" y="336" type="line"/>
      <point x="1184" y="0" type="line"/>
      <point x="70" y="0" type="line"/>
      <point x="70" y="1480" type="line"/>
      <point x="1184" y="1480" type="line"/>
      <point x="1184" y="1144" type="line"/>
      <point x="450" y="1144" type="line"/>
      <point x="450" y="908" type="line"/>
    </contour>
  </outline>
</glyph>
<glyph name="uni027A" format="2">
  <advance width="887"/>
  <unicode hex="027A"/>
  <outline>
    <contour>
      <point x="112" y="349" type="line"/>
      <point x="150" y="310"/>
      <point x="208" y="290"/>
      <point x="291" y="290" type="curve" smooth="yes"/>
      <point x="421" y="290"/>
      <point x="457" y="358"/>
      <point x="457" y="468" type="curve" smooth="yes"/>
      <point x="457" y="1480" type="line"/>
      <point x="817" y="1480" type="line"/>
      <point x="817" y="0" type="line"/>
      <point x="469" y="0" type="line"/>
      <point x="469" y="120" type="line"/>
      <point x="434" y="59"/>
      <point x="345" y="-30"/>
      <point x="195" y="-30" type="curve" smooth="yes"/>
      <point x="124" y="-30"/>
      <point x="61" y="-18"/>
      <point x="5" y="6" type="curve"/>
    </contour>
  </outline>
</glyph>
<glyph name="uni029D" format="2">
  <advance width="1228"/>
  <unicode hex="029D"/>
  <outline>
    <contour>
      <point x="1228" y="208" type="line"/>
      <point x="360" y="208" type="line"/>
      <point x="360" y="-32" type="line"/>
      <point x="1228" y="-32" type="line"/>
    </contour>
    <contour>
      <point x="430" y="1352" type="curve" smooth="yes"/>
      <point x="430" y="1463"/>
      <point x="519" y="1552"/>
      <point x="630" y="1552" type="curve" smooth="yes"/>
      <point x="741" y="1552"/>
      <point x="830" y="1463"/>
      <point x="830" y="1352" type="curve" smooth="yes"/>
      <point x="830" y="1241"/>
      <point x="741" y="1152"/>
      <point x="630" y="1152" type="curve" smooth="yes"/>
      <point x="519" y="1152"/>
      <point x="430" y="1241"/>
    </contour>
    <contour>
      <point x="810" y="-63" type="line"/>
      <point x="810" y="75" type="line"/>
      <point x="810" y="1040" type="line"/>
      <point x="450" y="1040" type="line"/>
      <point x="450" y="75" type="line"/>
      <point x="450" y="17" type="line"/>
      <point x="450" y="-131" type="line" smooth="yes"/>
      <point x="450" y="-185"/>
      <point x="414" y="-230"/>
      <point x="360" y="-230" type="curve" smooth="yes"/>
      <point x="306" y="-230"/>
      <point x="270" y="-185"/>
      <point x="270" y="-131" type="curve" smooth="yes"/>
      <point x="270" y="-77"/>
      <point x="306" y="-32"/>
      <point x="360" y="-32" type="curve"/>
      <point x="360" y="208" type="line"/>
      <point x="165" y="208"/>
      <point x="0" y="82"/>
      <point x="0" y="-131" type="curve" smooth="yes"/>
      <point x="0" y="-344"/>
      <point x="165" y="-470"/>
      <point x="360" y="-470" type="curve" smooth="yes"/>
      <point x="635" y="-470"/>
      <point x="810" y="-364"/>
      <point x="810" y="-131" type="curve"/>
    </contour>
  </outline>
</glyph>
<glyph name="uni029E" format="2">
  <advance width="1193"/>
  <unicode hex="029E"/>
  <outline>
    <contour>
      <point x="908" y="837" type="line"/>
      <point x="511" y="820" type="line"/>
      <point x="35" y="1480" type="line"/>
      <point x="455" y="1480" type="line"/>
    </contour>
    <contour>
      <point x="763" y="1136" type="line"/>
      <point x="763" y="1480" type="line"/>
      <point x="1123" y="1480" type="line"/>
      <point x="1123" y="0" type="line"/>
      <point x="763" y="0" type="line"/>
      <point x="763" y="672" type="line"/>
      <point x="531" y="440" type="line"/>
      <point x="459" y="440"/>
      <point x="139" y="440"/>
      <point x="67" y="440" type="curve"/>
    </contour>
  </outline>
</glyph>
<glyph name="uni02A8" format="2">
  <advance width="1902"/>
  <unicode hex="02A8"/>
  <outline>
    <contour>
      <point x="1492" y="678" type="curve" smooth="yes"/>
      <point x="1687" y="678"/>
      <point x="1852" y="552"/>
      <point x="1852" y="339" type="curve" smooth="yes"/>
      <point x="1852" y="126"/>
      <point x="1687" y="0"/>
      <point x="1492" y="0" type="curve" smooth="yes"/>
      <point x="1365" y="0" type="line" smooth="yes"/>
      <point x="1045" y="0"/>
      <point x="815" y="200"/>
      <point x="815" y="520" type="curve" smooth="yes"/>
      <point x="815" y="840"/>
      <point x="1045" y="1070"/>
      <point x="1365" y="1070" type="curve" smooth="yes"/>
      <point x="1586" y="1070"/>
      <point x="1764" y="961"/>
      <point x="1852" y="788" type="curve"/>
      <point x="1545" y="610" type="line"/>
      <point x="1524" y="696"/>
      <point x="1469" y="750"/>
      <point x="1365" y="750" type="curve" smooth="yes"/>
      <point x="1228" y="750"/>
      <point x="1175" y="657"/>
      <point x="1175" y="520" type="curve" smooth="yes"/>
      <point x="1175" y="383"/>
      <point x="1228" y="240"/>
      <point x="1365" y="240" type="curve" smooth="yes"/>
      <point x="1492" y="240" type="line" smooth="yes"/>
      <point x="1546" y="240"/>
      <point x="1582" y="285"/>
      <point x="1582" y="339" type="curve" smooth="yes"/>
      <point x="1582" y="393"/>
      <point x="1546" y="438"/>
      <point x="1492" y="438" type="curve" smooth="yes"/>
      <point x="1342" y="438"/>
      <point x="1205" y="-30"/>
      <point x="825" y="-30" type="curve"/>
      <point x="465" y="-30"/>
      <point x="277" y="160"/>
      <point x="277" y="440" type="curve" smooth="yes"/>
      <point x="277" y="720" type="line"/>
      <point x="25" y="720" type="line"/>
      <point x="25" y="1028" type="line"/>
      <point x="97" y="1028" type="line"/>
      <point x="217" y="1028"/>
      <point x="301" y="1106"/>
      <point x="301" y="1226" type="curve"/>
      <point x="301" y="1320" type="line"/>
      <point x="637" y="1320" type="line"/>
      <point x="637" y="1040" type="line"/>
      <point x="942" y="1040" type="line"/>
      <point x="942" y="720" type="line"/>
      <point x="637" y="720" type="line"/>
      <point x="637" y="440" type="line" smooth="yes"/>
      <point x="637" y="290"/>
      <point x="735" y="210"/>
      <point x="825" y="210" type="curve"/>
      <point x="1025" y="210"/>
      <point x="1132" y="678"/>
    </contour>
  </outline>
</glyph>
<glyph name="uni02B0" format="2">
  <advance width="817"/>
  <unicode hex="02B0"/>
  <outline>
    <contour>
      <point x="505" y="811" type="line"/>
      <point x="505" y="1096" type="line" smooth="yes"/>
      <point x="505" y="1155"/>
      <point x="485" y="1192"/>
      <point x="409" y="1192" type="curve" smooth="yes"/>
      <point x="333" y="1192"/>
      <point x="312" y="1155"/>
      <point x="312" y="1096" type="curve" smooth="yes"/>
      <point x="312" y="811" type="line"/>
      <point x="42" y="811" type="line"/>
      <point x="42" y="1669" type="line"/>
      <point x="303" y="1669" type="line"/>
      <point x="303" y="1319" type="line"/>
      <point x="326" y="1365"/>
      <point x="386" y="1432"/>
      <point x="487" y="1432" type="curve" smooth="yes"/>
      <point x="664" y="1432"/>
      <point x="775" y="1324"/>
      <point x="775" y="1131" type="curve" smooth="yes"/>
      <point x="775" y="811" type="line"/>
    </contour>
  </outline>
</glyph>
<glyph name="uni02B6" format="2">
  <advance width="732"/>
  <unicode hex="02B6"/>
  <outline>
    <contour>
      <point x="42" y="1413" type="line"/>
      <point x="42" y="810" type="line"/>
      <point x="360" y="810" type="line" smooth="yes"/>
      <point x="532" y="810"/>
      <point x="643" y="916"/>
      <point x="643" y="1054" type="curve" smooth="yes"/>
      <point x="643" y="1133"/>
      <point x="627" y="1188"/>
      <point x="548" y="1238" type="curve"/>
      <point x="732" y="1413" type="line"/>
      <point x="432" y="1413" type="line"/>
      <point x="318" y="1274" type="line"/>
      <point x="312" y="1274" type="line"/>
      <point x="312" y="1413" type="line"/>
    </contour>
    <contour>
      <point x="312" y="1050" type="line"/>
      <point x="312" y="1074" type="line"/>
      <point x="348" y="1074" type="line" smooth="yes"/>
      <point x="366" y="1074"/>
      <point x="373" y="1072"/>
      <point x="373" y="1062" type="curve" smooth="yes"/>
      <point x="373" y="1052"/>
      <point x="366" y="1050"/>
      <point x="348" y="1050" type="curve" smooth="yes"/>
    </contour>
  </outline>
</glyph>
<glyph name="uni02B8" format="2">
  <advance width="763"/>
  <unicode hex="02B8"/>
  <outline>
    <contour>
      <point x="504" y="707" type="line" smooth="yes"/>
      <point x="466" y="595"/>
      <point x="340" y="537"/>
      <point x="172" y="537" type="curve" smooth="yes"/>
      <point x="102" y="537"/>
      <point x="52" y="558"/>
      <point x="20" y="576" type="curve"/>
      <point x="73" y="809" type="line"/>
      <point x="92" y="790"/>
      <point x="135" y="777"/>
      <point x="170" y="777" type="curve" smooth="yes"/>
      <point x="222" y="777"/>
      <point x="250" y="810"/>
      <point x="250" y="838" type="curve"/>
      <point x="250" y="838" type="line"/>
      <point x="36" y="1413" type="line"/>
      <point x="322" y="1413" type="line"/>
      <point x="394" y="1096" type="line"/>
      <point x="457" y="1413" type="line"/>
      <point x="743" y="1413" type="line"/>
      <point x="567" y="894" type="line"/>
    </contour>
  </outline>
</glyph>
<glyph name="uni02BB" format="2">
  <advance width="565"/>
  <unicode hex="02BB"/>
  <outline>
    <contour>
      <point x="515" y="967" type="curve" smooth="yes"/>
      <point x="515" y="856"/>
      <point x="426" y="767"/>
      <point x="315" y="767" type="curve" smooth="yes"/>
      <point x="204" y="767"/>
      <point x="115" y="856"/>
      <point x="115" y="967" type="curve" smooth="yes"/>
      <point x="115" y="1078"/>
      <point x="204" y="1167"/>
      <point x="315" y="1167" type="curve" smooth="yes"/>
      <point x="426" y="1167"/>
      <point x="515" y="1078"/>
    </contour>
    <contour>
      <point x="500" y="1278" type="line"/>
      <point x="371" y="1258"/>
      <point x="274" y="1193"/>
      <point x="274" y="1105" type="curve" smooth="yes"/>
      <point x="274" y="1061"/>
      <point x="313" y="967"/>
      <point x="313" y="967" type="curve"/>
      <point x="315" y="767" type="line"/>
      <point x="202" y="767"/>
      <point x="50" y="839"/>
      <point x="50" y="1105" type="curve" smooth="yes"/>
      <point x="50" y="1316"/>
      <point x="281" y="1480"/>
      <point x="440" y="1508" type="curve"/>
    </contour>
  </outline>
</glyph>
<glyph name="uni02BC" format="2">
  <advance width="565"/>
  <unicode hex="02BC"/>
  <outline>
    <contour>
      <point x="50" y="1308" type="curve" smooth="yes"/>
      <point x="50" y="1419"/>
      <point x="139" y="1508"/>
      <point x="250" y="1508" type="curve" smooth="yes"/>
      <point x="361" y="1508"/>
      <point x="450" y="1419"/>
      <point x="450" y="1308" type="curve" smooth="yes"/>
      <point x="450" y="1197"/>
      <point x="361" y="1108"/>
      <point x="250" y="1108" type="curve" smooth="yes"/>
      <point x="139" y="1108"/>
      <point x="50" y="1197"/>
    </contour>
    <contour>
      <point x="65" y="997" type="line"/>
      <point x="194" y="1017"/>
      <point x="291" y="1082"/>
      <point x="291" y="1170" type="curve" smooth="yes"/>
      <point x="291" y="1214"/>
      <point x="252" y="1308"/>
      <point x="252" y="1308" type="curve"/>
      <point x="250" y="1508" type="line"/>
      <point x="363" y="1508"/>
      <point x="515" y="1436"/>
      <point x="515" y="1170" type="curve" smooth="yes"/>
      <point x="515" y="959"/>
      <point x="284" y="795"/>
      <point x="125" y="767" type="curve"/>
    </contour>
  </outline>
</glyph>
<glyph name="uni02C0" format="2">
  <advance width="498"/>
  <unicode hex="02C0"/>
  <outline>
    <contour>
      <point x="151" y="1334" type="line"/>
      <point x="231" y="1334" type="line"/>
      <point x="311" y="1276" type="line"/>
      <point x="311" y="1156" type="line"/>
      <point x="151" y="1156" type="line"/>
    </contour>
    <contour>
      <point x="76" y="1368" type="curve"/>
      <point x="35" y="1523" type="line"/>
      <point x="35" y="1523"/>
      <point x="121" y="1558"/>
      <point x="202" y="1558" type="curve" smooth="yes"/>
      <point x="401" y="1558"/>
      <point x="463" y="1466"/>
      <point x="463" y="1376" type="curve" smooth="yes"/>
      <point x="463" y="1236"/>
      <point x="363" y="1193"/>
      <point x="231" y="1193" type="curve"/>
      <point x="231" y="1334" type="line"/>
      <point x="285" y="1334"/>
      <point x="303" y="1346"/>
      <point x="303" y="1366" type="curve" smooth="yes"/>
      <point x="303" y="1386"/>
      <point x="266" y="1398"/>
      <point x="214" y="1398" type="curve" smooth="yes"/>
      <point x="120" y="1398"/>
      <point x="76" y="1368"/>
    </contour>
  </outline>
</glyph>
<glyph name="uni02C8" format="2">
  <advance width="426"/>
  <unicode hex="02C8"/>
  <outline>
    <contour>
      <point x="391" y="1224" type="line"/>
      <point x="35" y="1224" type="line"/>
      <point x="35" y="1480" type="line"/>
      <point x="391" y="1480" type="line"/>
    </contour>
  </outline>
</glyph>
<glyph name="uni02C9" format="2">
  <advance width="802"/>
  <unicode hex="02C9"/>
  <outline>
    <contour>
      <point x="35" y="1224" type="line"/>
      <point x="35" y="1414" type="line"/>
      <point x="767" y="1414" type="line"/>
      <point x="767" y="1224" type="line"/>
    </contour>
  </outline>
</glyph>
<glyph name="uni02CD" format="2">
  <advance width="802"/>
  <unicode hex="02CD"/>
  <outline>
    <contour>
      <point x="35" y="-374" type="line"/>
      <point x="35" y="-184" type="line"/>
      <point x="767" y="-184" type="line"/>
      <point x="767" y="-374" type="line"/>
    </contour>
  </outline>
</glyph>
<glyph name="uni02E1" format="2">
  <advance width="450"/>
  <unicode hex="02E1"/>
  <outline>
    <contour>
      <point x="387" y="1071" type="curve"/>
      <point x="445" y="856" type="line"/>
      <point x="427" y="846"/>
      <point x="395" y="823"/>
      <point x="335" y="823" type="curve" smooth="yes"/>
      <point x="141" y="823"/>
      <point x="42" y="876"/>
      <point x="42" y="1050" type="curve" smooth="yes"/>
      <point x="42" y="1090" type="line"/>
      <point x="42" y="1170" type="line"/>
      <point x="42" y="1699" type="line"/>
      <point x="312" y="1699" type="line"/>
      <point x="312" y="1211" type="line"/>
      <point x="312" y="1138" type="line"/>
      <point x="312" y="1101" type="line" smooth="yes"/>
      <point x="312" y="1074"/>
      <point x="322" y="1063"/>
      <point x="352" y="1063" type="curve" smooth="yes"/>
      <point x="363" y="1063"/>
      <point x="379" y="1066"/>
    </contour>
  </outline>
</glyph>
<glyph name="uni02E3" format="2">
  <advance width="750"/>
  <unicode hex="02E3"/>
  <outline>
    <contour>
      <point x="182" y="1112" type="line"/>
      <point x="20" y="1413" type="line"/>
      <point x="312" y="1413" type="line"/>
      <point x="375" y="1267" type="line"/>
      <point x="438" y="1413" type="line"/>
      <point x="730" y="1413" type="line"/>
      <point x="568" y="1112" type="line"/>
      <point x="730" y="810" type="line"/>
      <point x="438" y="810" type="line"/>
      <point x="374" y="958" type="line"/>
      <point x="314" y="810" type="line"/>
      <point x="20" y="810" type="line"/>
    </contour>
  </outline>
</glyph>
<glyph name="uni0327" format="2">
  <advance width="0"/>
  <unicode hex="0327"/>
  <anchor x="642" y="0" name="_mkmk_bottom_center"/>
  <anchor x="642" y="-380" name="mkmk_bottom_center"/>
  <anchor x="624" y="-20" name="_bottom_cedilla"/>
  <outline>
    <contour>
      <point x="436" y="-314" type="curve"/>
      <point x="579" y="-237" type="line"/>
      <point x="589" y="-262"/>
      <point x="609" y="-272"/>
      <point x="642" y="-272" type="curve" smooth="yes"/>
      <point x="677" y="-272"/>
      <point x="698" y="-261"/>
      <point x="698" y="-246" type="curve" smooth="yes"/>
      <point x="698" y="-231"/>
      <point x="677" y="-220"/>
      <point x="642" y="-220" type="curve" smooth="yes"/>
      <point x="627" y="-220"/>
      <point x="608" y="-223"/>
      <point x="595" y="-232" type="curve"/>
      <point x="465" y="-170" type="line"/>
      <point x="500" y="-120"/>
      <point x="544" y="-60"/>
      <point x="642" y="-60" type="curve" smooth="yes"/>
      <point x="762" y="-60"/>
      <point x="858" y="-146"/>
      <point x="858" y="-246" type="curve" smooth="yes"/>
      <point x="858" y="-346"/>
      <point x="792" y="-432"/>
      <point x="642" y="-432" type="curve" smooth="yes"/>
      <point x="542" y="-432"/>
      <point x="462" y="-375"/>
    </contour>
    <contour>
      <point x="567" y="0" type="line"/>
      <point x="727" y="0" type="line"/>
      <point x="602" y="-205" type="line"/>
      <point x="595" y="-232" type="line"/>
      <point x="466" y="-171" type="line"/>
    </contour>
  </outline>
</glyph>
<glyph name="uni0328" format="2">
  <advance width="0"/>
  <unicode hex="0328"/>
  <anchor x="642" y="0" name="_mkmk_bottom_center"/>
  <anchor x="642" y="-380" name="mkmk_bottom_center"/>
  <anchor x="779" y="0" name="_bottom_right"/>
  <outline>
    <contour>
      <point x="736" y="-225" type="curve"/>
      <point x="814" y="-368" type="line"/>
      <point x="757" y="-418"/>
      <point x="706" y="-432"/>
      <point x="642" y="-432" type="curve" smooth="yes"/>
      <point x="542" y="-432"/>
      <point x="429" y="-374"/>
      <point x="429" y="-224" type="curve" smooth="yes"/>
      <point x="429" y="-64"/>
      <point x="631" y="65"/>
      <point x="679" y="100" type="curve"/>
      <point x="779" y="0" type="line"/>
      <point x="671" y="-78"/>
      <point x="599" y="-137"/>
      <point x="599" y="-204" type="curve" smooth="yes"/>
      <point x="599" y="-230"/>
      <point x="620" y="-261"/>
      <point x="652" y="-261" type="curve" smooth="yes"/>
      <point x="696" y="-261"/>
      <point x="716" y="-256"/>
    </contour>
  </outline>
</glyph>
<glyph name="uni0329" format="2">
  <advance width="0"/>
  <unicode hex="0329"/>
  <anchor x="641.5" y="0" name="_bottom_center"/>
  <anchor x="641.5" y="-270" name="mkmk_bottom_center"/>
  <anchor x="641.5" y="0" name="_mkmk_bottom_center"/>
  <outline>
    <contour>
      <point x="820" y="-440" type="line"/>
      <point x="464" y="-440" type="line"/>
      <point x="464" y="-184" type="line"/>
      <point x="820" y="-184" type="line"/>
    </contour>
  </outline>
</glyph>
<glyph name="uni032E" format="2">
  <advance width="0"/>
  <unicode hex="032E"/>
  <anchor x="642" y="0" name="_mkmk_bottom_center"/>
  <anchor x="642" y="-336" name="mkmk_bottom_center"/>
  <anchor x="642" y="0" name="_bottom_center"/>
  <outline>
    <contour>
      <point x="642" y="-470" type="curve" smooth="yes"/>
      <point x="432" y="-470"/>
      <point x="306" y="-324"/>
      <point x="306" y="-184" type="curve"/>
      <point x="564" y="-184" type="line"/>
      <point x="564" y="-214"/>
      <point x="592" y="-260"/>
      <point x="642" y="-260" type="curve" smooth="yes"/>
      <point x="692" y="-260"/>
      <point x="718" y="-214"/>
      <point x="718" y="-184" type="curve"/>
      <point x="978" y="-184" type="line"/>
      <point x="978" y="-324"/>
      <point x="852" y="-470"/>
    </contour>
  </outline>
</glyph>
<glyph name="uni0330" format="2">
  <advance width="0"/>
  <unicode hex="0330"/>
  <anchor x="642" y="0" name="_mkmk_bottom_center"/>
  <anchor x="642" y="-336" name="mkmk_bottom_center"/>
  <anchor x="642" y="0" name="_bottom_center"/>
  <outline>
    <contour>
      <point x="488" y="-459" type="curve"/>
      <point x="279" y="-403" type="line"/>
      <point x="296" y="-286"/>
      <point x="389" y="-164"/>
      <point x="545" y="-164" type="curve" smooth="yes"/>
      <point x="635" y="-164"/>
      <point x="689" y="-227"/>
      <point x="731" y="-227" type="curve" smooth="yes"/>
      <point x="776" y="-227"/>
      <point x="788" y="-185"/>
      <point x="788" y="-164" type="curve"/>
      <point x="997" y="-220" type="line"/>
      <point x="980" y="-337"/>
      <point x="887" y="-459"/>
      <point x="731" y="-459" type="curve" smooth="yes"/>
      <point x="641" y="-459"/>
      <point x="587" y="-396"/>
      <point x="545" y="-396" type="curve" smooth="yes"/>
      <point x="494" y="-396"/>
      <point x="488" y="-438"/>
    </contour>
  </outline>
</glyph>
<glyph name="uni0332" format="2">
  <advance width="0"/>
  <unicode hex="0332"/>
  <anchor x="641.5" y="0" name="_mkmk_bottom_center"/>
  <anchor x="641.5" y="-270" name="mkmk_bottom_center"/>
  <anchor x="641.5" y="0" name="_bottom_center"/>
  <outline>
    <contour>
      <point x="94" y="-374" type="line"/>
      <point x="94" y="-184" type="line"/>
      <point x="1192" y="-184" type="line"/>
      <point x="1192" y="-374" type="line"/>
    </contour>
  </outline>
</glyph>
<glyph name="uni0374" format="2">
  <advance width="652"/>
  <unicode hex="0374"/>
  <outline>
    <contour>
      <point x="391" y="1224" type="line"/>
      <point x="35" y="1224" type="line"/>
      <point x="213" y="1480" type="line"/>
      <point x="617" y="1480" type="line"/>
    </contour>
  </outline>
</glyph>
<glyph name="dieresistonos" format="2">
  <advance width="1100"/>
  <unicode hex="0385"/>
  <anchor x="550" y="1632" name="mkmk_greek_top_center"/>
  <anchor x="550" y="1040" name="_top_center"/>
  <outline>
    <contour>
      <point x="728" y="1480" type="line"/>
      <point x="372" y="1480" type="line"/>
      <point x="550" y="1736" type="line"/>
      <point x="954" y="1736" type="line"/>
    </contour>
    <contour>
      <point x="435" y="1352" type="curve" smooth="yes"/>
      <point x="435" y="1241"/>
      <point x="346" y="1152"/>
      <point x="235" y="1152" type="curve" smooth="yes"/>
      <point x="124" y="1152"/>
      <point x="35" y="1241"/>
      <point x="35" y="1352" type="curve" smooth="yes"/>
      <point x="35" y="1463"/>
      <point x="124" y="1552"/>
      <point x="235" y="1552" type="curve" smooth="yes"/>
      <point x="346" y="1552"/>
      <point x="435" y="1463"/>
    </contour>
    <contour>
      <point x="1065" y="1352" type="curve" smooth="yes"/>
      <point x="1065" y="1241"/>
      <point x="976" y="1152"/>
      <point x="865" y="1152" type="curve" smooth="yes"/>
      <point x="754" y="1152"/>
      <point x="665" y="1241"/>
      <point x="665" y="1352" type="curve" smooth="yes"/>
      <point x="665" y="1463"/>
      <point x="754" y="1552"/>
      <point x="865" y="1552" type="curve" smooth="yes"/>
      <point x="976" y="1552"/>
      <point x="1065" y="1463"/>
    </contour>
  </outline>
</glyph>
<glyph name="Psi" format="2">
  <advance width="1482"/>
  <unicode hex="03A8"/>
  <anchor x="741" y="1380" name="top_center"/>
  <anchor x="741" y="0" name="bottom_center"/>
  <outline>
    <contour>
      <point x="551" y="0" type="line"/>
      <point x="551" y="1480" type="line"/>
      <point x="931" y="1480" type="line"/>
      <point x="931" y="0" type="line"/>
    </contour>
    <contour>
      <point x="450" y="1480" type="line"/>
      <point x="450" y="956" type="line"/>
      <point x="450" y="776"/>
      <point x="511" y="672"/>
      <point x="741" y="672" type="curve" smooth="yes"/>
      <point x="971" y="672"/>
      <point x="1032" y="756"/>
      <point x="1032" y="956" type="curve"/>
      <point x="1032" y="1480" type="line"/>
      <point x="1412" y="1480" type="line"/>
      <point x="1412" y="956" type="line"/>
      <point x="1412" y="566"/>
      <point x="1173" y="336"/>
      <point x="741" y="336" type="curve" smooth="yes"/>
      <point x="309" y="336"/>
      <point x="70" y="566"/>
      <point x="70" y="956" type="curve"/>
      <point x="70" y="1480" type="line"/>
    </contour>
  </outline>
</glyph>
<glyph name="uni03A9" format="2">
  <advance width="1620"/>
  <unicode hex="03A9"/>
  <anchor x="24" y="1040" name="greek_v"/>
  <anchor x="-220" y="1040" name="greek_kt"/>
  <anchor x="-54" y="1040" name="greek_k"/>
  <anchor x="-180" y="1040" name="greek_t"/>
  <anchor x="827" y="-80" name="bottom_ypogegrammeni"/>
  <anchor x="827" y="-23" name="bottom_center"/>
  <anchor x="810" y="1380" name="top_center"/>
  <outline>
    <contour>
      <point x="651" y="0" type="line"/>
      <point x="50" y="0" type="line"/>
      <point x="50" y="336" type="line"/>
      <point x="651" y="336" type="line"/>
    </contour>
    <contour>
      <point x="1570" y="0" type="line"/>
      <point x="969" y="0" type="line"/>
      <point x="969" y="336" type="line"/>
      <point x="1570" y="336" type="line"/>
    </contour>
    <contour>
      <point x="50" y="740" type="curve" smooth="yes"/>
      <point x="50" y="1190"/>
      <point x="350" y="1510"/>
      <point x="810" y="1510" type="curve"/>
      <point x="810" y="1174" type="line"/>
      <point x="560" y="1174"/>
      <point x="430" y="990"/>
      <point x="430" y="740" type="curve" smooth="yes"/>
      <point x="430" y="550"/>
      <point x="505" y="398"/>
      <point x="651" y="336" type="curve"/>
      <point x="187" y="336" type="line"/>
      <point x="104" y="451"/>
      <point x="50" y="588"/>
    </contour>
    <contour>
      <point x="1570" y="740" type="curve" smooth="yes"/>
      <point x="1570" y="588"/>
      <point x="1516" y="451"/>
      <point x="1433" y="336" type="curve"/>
      <point x="969" y="336" type="line"/>
      <point x="1115" y="398"/>
      <point x="1190" y="550"/>
      <point x="1190" y="740" type="curve" smooth="yes"/>
      <point x="1190" y="990"/>
      <point x="1060" y="1174"/>
      <point x="810" y="1174" type="curve"/>
      <point x="810" y="1510" type="line"/>
      <point x="1270" y="1510"/>
      <point x="1570" y="1190"/>
    </contour>
  </outline>
</glyph>
<glyph name="uni03CF" format="2">
  <advance width="1463"/>
  <unicode hex="03CF"/>
  <outline>
    <contour>
      <point x="1232" y="-256" type="line"/>
      <point x="840" y="-256" type="line"/>
      <point x="1018" y="0" type="line"/>
      <point x="1458" y="0" type="line"/>
    </contour>
    <contour>
      <point x="453" y="801" type="line"/>
      <point x="792" y="925" type="line"/>
      <point x="1458" y="0" type="line"/>
      <point x="1018" y="0" type="line"/>
    </contour>
    <contour>
      <point x="450" y="450" type="line"/>
      <point x="450" y="0" type="line"/>
      <point x="70" y="0" type="line"/>
      <point x="70" y="1480" type="line"/>
      <point x="450" y="1480" type="line"/>
      <point x="450" y="940" type="line"/>
      <point x="978" y="1480" type="line"/>
      <point x="1050" y="1480"/>
      <point x="1386" y="1480"/>
      <point x="1458" y="1480" type="curve"/>
    </contour>
  </outline>
</glyph>
<glyph name="uni03D0" format="2">
  <advance width="1326"/>
  <unicode hex="03D0"/>
  <anchor x="708" y="0" name="bottom_center"/>
  <anchor x="654" y="1380" name="top_center"/>
  <outline>
    <contour>
      <point x="708" y="290" type="curve"/>
      <point x="828" y="290"/>
      <point x="916" y="336"/>
      <point x="916" y="456" type="curve" smooth="yes"/>
      <point x="916" y="616"/>
      <point x="739" y="657"/>
      <point x="619" y="657" type="curve"/>
      <point x="619" y="932" type="line"/>
      <point x="1019" y="932"/>
      <point x="1276" y="736"/>
      <point x="1276" y="456" type="curve" smooth="yes"/>
      <point x="1276" y="176"/>
      <point x="1067" y="-30"/>
      <point x="708" y="-30" type="curve"/>
      <point x="371" y="-30"/>
      <point x="50" y="240"/>
      <point x="50" y="740" type="curve" smooth="yes"/>
      <point x="50" y="1240"/>
      <point x="311" y="1510"/>
      <point x="648" y="1510" type="curve" smooth="yes"/>
      <point x="960" y="1510"/>
      <point x="1168" y="1311"/>
      <point x="1168" y="1056" type="curve" smooth="yes"/>
      <point x="1168" y="801"/>
      <point x="910" y="612"/>
      <point x="604" y="612" type="curve"/>
      <point x="604" y="932" type="line"/>
      <point x="734" y="932"/>
      <point x="808" y="981"/>
      <point x="808" y="1056" type="curve" smooth="yes"/>
      <point x="808" y="1141"/>
      <point x="744" y="1190"/>
      <point x="648" y="1190" type="curve" smooth="yes"/>
      <point x="478" y="1190"/>
      <point x="410" y="1010"/>
      <point x="410" y="740" type="curve" smooth="yes"/>
      <point x="410" y="470"/>
      <point x="538" y="290"/>
    </contour>
    <contour>
      <point x="261" y="612" type="line"/>
      <point x="261" y="932" type="line"/>
      <point x="604" y="932" type="line"/>
      <point x="604" y="612" type="line"/>
    </contour>
  </outline>
</glyph>
<glyph name="uni03D7" format="2">
  <advance width="1653"/>
  <unicode hex="03D7"/>
  <outline>
    <contour>
      <point x="1220" y="490" type="curve" smooth="yes"/>
      <point x="1220" y="350"/>
      <point x="1270" y="290"/>
      <point x="1360" y="290" type="curve" smooth="yes"/>
      <point x="1420" y="290"/>
      <point x="1495" y="313"/>
      <point x="1527" y="345" type="curve"/>
      <point x="1618" y="22" type="line"/>
      <point x="1562" y="-2"/>
      <point x="1477" y="-30"/>
      <point x="1356" y="-30" type="curve" smooth="yes"/>
      <point x="1023" y="-30"/>
      <point x="910" y="180"/>
      <point x="910" y="490" type="curve" smooth="yes"/>
      <point x="910" y="740"/>
      <point x="1070" y="1040"/>
      <point x="1070" y="1040" type="curve"/>
      <point x="1430" y="1040" type="line"/>
      <point x="1430" y="1040"/>
      <point x="1220" y="790"/>
    </contour>
    <contour>
      <point x="433" y="550" type="curve" smooth="yes"/>
      <point x="433" y="690"/>
      <point x="383" y="750"/>
      <point x="293" y="750" type="curve" smooth="yes"/>
      <point x="233" y="750"/>
      <point x="158" y="727"/>
      <point x="126" y="695" type="curve"/>
      <point x="35" y="1018" type="line"/>
      <point x="91" y="1042"/>
      <point x="176" y="1070"/>
      <point x="297" y="1070" type="curve" smooth="yes"/>
      <point x="630" y="1070"/>
      <point x="743" y="860"/>
      <point x="743" y="550" type="curve" smooth="yes"/>
      <point x="743" y="300"/>
      <point x="583" y="0"/>
      <point x="583" y="0" type="curve"/>
      <point x="223" y="0" type="line"/>
      <point x="223" y="0"/>
      <point x="433" y="250"/>
    </contour>
    <contour>
      <point x="1137" y="-77" type="line"/>
      <point x="1148" y="-82"/>
      <point x="1160" y="-84"/>
      <point x="1173" y="-84" type="curve" smooth="yes"/>
      <point x="1223" y="-84"/>
      <point x="1258" y="-50"/>
      <point x="1258" y="0" type="curve" smooth="yes"/>
      <point x="1258" y="32" type="line"/>
      <point x="1618" y="22" type="line"/>
      <point x="1618" y="0" type="line"/>
      <point x="1618" y="-250"/>
      <point x="1423" y="-404"/>
      <point x="1173" y="-404" type="curve" smooth="yes"/>
      <point x="1161" y="-404"/>
      <point x="1149" y="-404"/>
      <point x="1137" y="-403" type="curve"/>
    </contour>
    <contour>
      <point x="1376" y="1040" type="line"/>
      <point x="617" y="0" type="line"/>
      <point x="277" y="0" type="line"/>
      <point x="1016" y="1040" type="line"/>
    </contour>
  </outline>
</glyph>
<glyph name="uni03E0" format="2">
  <advance width="1535"/>
  <unicode hex="03E0"/>
  <outline>
    <contour>
      <point x="1279" y="1230" type="line"/>
      <point x="955" y="1230"/>
      <point x="778" y="1032"/>
      <point x="778" y="712" type="curve"/>
      <point x="778" y="440" type="line"/>
      <point x="1018" y="440" type="line"/>
      <point x="1018" y="712" type="line" smooth="yes"/>
      <point x="1018" y="931"/>
      <point x="1111" y="1032"/>
      <point x="1327" y="1032" type="curve"/>
    </contour>
    <contour>
      <point x="456" y="1357" type="line"/>
      <point x="456" y="740" type="line"/>
      <point x="696" y="740" type="line"/>
      <point x="696" y="1357" type="line"/>
    </contour>
    <contour>
      <point x="726" y="0" type="curve"/>
      <point x="1048" y="-184" type="line"/>
      <point x="1229" y="-44"/>
      <point x="1485" y="301"/>
      <point x="1485" y="740" type="curve" smooth="yes"/>
      <point x="1485" y="1190"/>
      <point x="1185" y="1510"/>
      <point x="725" y="1510" type="curve" smooth="yes"/>
      <point x="410" y="1510"/>
      <point x="170" y="1360"/>
      <point x="50" y="1120" type="curve"/>
      <point x="375" y="930" type="line"/>
      <point x="426" y="1078"/>
      <point x="544" y="1174"/>
      <point x="725" y="1174" type="curve" smooth="yes"/>
      <point x="975" y="1174"/>
      <point x="1105" y="990"/>
      <point x="1105" y="740" type="curve" smooth="yes"/>
      <point x="1105" y="290"/>
      <point x="804" y="66"/>
    </contour>
  </outline>
</glyph>
<glyph name="uni03E2" format="2">
  <advance width="1869"/>
  <unicode hex="03E2"/>
  <outline>
    <contour>
      <point x="1799" y="0" type="curve"/>
      <point x="1799" y="468" type="line"/>
      <point x="1419" y="158" type="line"/>
      <point x="1419" y="0" type="line"/>
      <point x="1419" y="-80"/>
      <point x="1395" y="-104"/>
      <point x="1315" y="-104" type="curve" smooth="yes"/>
      <point x="70" y="-104" type="line"/>
      <point x="70" y="-440" type="line"/>
      <point x="1315" y="-440" type="line" smooth="yes"/>
      <point x="1652" y="-440"/>
      <point x="1799" y="-312"/>
    </contour>
    <contour>
      <point x="1124" y="1480" type="line"/>
      <point x="744" y="1480" type="line"/>
      <point x="744" y="468" type="line" smooth="yes"/>
      <point x="744" y="348"/>
      <point x="687" y="296"/>
      <point x="597" y="296" type="curve" smooth="yes"/>
      <point x="507" y="296"/>
      <point x="450" y="348"/>
      <point x="450" y="468" type="curve" smooth="yes"/>
      <point x="450" y="1480" type="line"/>
      <point x="70" y="1480" type="line"/>
      <point x="70" y="468" type="line" smooth="yes"/>
      <point x="70" y="108"/>
      <point x="321" y="-40"/>
      <point x="597" y="-40" type="curve" smooth="yes"/>
      <point x="721" y="-40"/>
      <point x="840" y="-10"/>
      <point x="934" y="56" type="curve"/>
      <point x="1028" y="-10"/>
      <point x="1147" y="-40"/>
      <point x="1271" y="-40" type="curve" smooth="yes"/>
      <point x="1547" y="-40"/>
      <point x="1799" y="108"/>
      <point x="1799" y="468" type="curve" smooth="yes"/>
      <point x="1799" y="1480" type="line"/>
      <point x="1419" y="1480" type="line"/>
      <point x="1419" y="468" type="line" smooth="yes"/>
      <point x="1419" y="348"/>
      <point x="1361" y="296"/>
      <point x="1271" y="296" type="curve" smooth="yes"/>
      <point x="1181" y="296"/>
      <point x="1124" y="348"/>
      <point x="1124" y="468" type="curve" smooth="yes"/>
    </contour>
  </outline>
</glyph>
<glyph name="uni03E6" format="2">
  <advance width="1522"/>
  <unicode hex="03E6"/>
  <outline>
    <contour>
      <point x="712" y="-440" type="line" smooth="yes"/>
      <point x="1172" y="-440"/>
      <point x="1472" y="-150"/>
      <point x="1472" y="300" type="curve" smooth="yes"/>
      <point x="1472" y="750"/>
      <point x="1172" y="1070"/>
      <point x="712" y="1070" type="curve" smooth="yes"/>
      <point x="562" y="1070"/>
      <point x="473" y="981"/>
      <point x="438" y="920" type="curve"/>
      <point x="438" y="1480" type="line"/>
      <point x="70" y="1480" type="line"/>
      <point x="70" y="0" type="line"/>
      <point x="450" y="0" type="line"/>
      <point x="450" y="572" type="line" smooth="yes"/>
      <point x="450" y="682"/>
      <point x="582" y="734"/>
      <point x="712" y="734" type="curve" smooth="yes"/>
      <point x="962" y="734"/>
      <point x="1092" y="550"/>
      <point x="1092" y="300" type="curve" smooth="yes"/>
      <point x="1092" y="50"/>
      <point x="962" y="-134"/>
      <point x="712" y="-134" type="curve" smooth="yes"/>
      <point x="70" y="-134" type="line"/>
      <point x="70" y="-440" type="line"/>
    </contour>
  </outline>
</glyph>
<glyph name="uni03EF" format="2">
  <advance width="1260"/>
  <unicode hex="03EF"/>
  <outline>
    <contour>
      <point x="790" y="1480" type="line"/>
      <point x="790" y="1040" type="line"/>
      <point x="1190" y="1040" type="line"/>
      <point x="1190" y="380" type="line"/>
      <point x="870" y="380" type="line"/>
      <point x="870" y="720" type="line"/>
      <point x="790" y="720" type="line"/>
      <point x="790" y="-440" type="line"/>
      <point x="470" y="-440" type="line"/>
      <point x="470" y="720" type="line"/>
      <point x="390" y="720" type="line"/>
      <point x="390" y="380" type="line"/>
      <point x="70" y="380" type="line"/>
      <point x="70" y="1040" type="line"/>
      <point x="470" y="1040" type="line"/>
      <point x="470" y="1480" type="line"/>
    </contour>
  </outline>
</glyph>
<glyph name="uni0409" format="2">
  <advance width="2268"/>
  <unicode hex="0409"/>
  <outline>
    <contour>
      <point x="1246" y="336" type="line"/>
      <point x="1647" y="336" type="line"/>
      <point x="1767" y="336"/>
      <point x="1838" y="416"/>
      <point x="1838" y="496" type="curve" smooth="yes"/>
      <point x="1838" y="576"/>
      <point x="1767" y="656"/>
      <point x="1647" y="656" type="curve"/>
      <point x="1246" y="656" type="line"/>
      <point x="1006" y="976" type="line"/>
      <point x="1385" y="976" type="line"/>
      <point x="1647" y="976" type="line"/>
      <point x="2013" y="976"/>
      <point x="2218" y="751"/>
      <point x="2218" y="496" type="curve" smooth="yes"/>
      <point x="2218" y="241"/>
      <point x="2013" y="0"/>
      <point x="1647" y="0" type="curve"/>
      <point x="1346" y="0" type="line"/>
    </contour>
    <contour>
      <point x="1346" y="1480" type="line"/>
      <point x="1346" y="0" type="line"/>
      <point x="966" y="0" type="line"/>
      <point x="966" y="1144" type="line"/>
      <point x="724" y="1144" type="line"/>
      <point x="653" y="520" type="line"/>
      <point x="618" y="121"/>
      <point x="373" y="-30"/>
      <point x="5" y="-30" type="curve"/>
      <point x="5" y="306" type="line"/>
      <point x="107" y="306"/>
      <point x="258" y="371"/>
      <point x="273" y="520" type="curve" smooth="yes"/>
      <point x="368" y="1480" type="line"/>
    </contour>
  </outline>
</glyph>
<glyph name="uni0411" format="2">
  <advance width="1426"/>
  <unicode hex="0411"/>
  <anchor x="692" y="0" name="bottom_center"/>
  <anchor x="663" y="1380" name="top_center"/>
  <outline>
    <contour>
      <point x="1256" y="1144" type="line"/>
      <point x="450" y="1144" type="line"/>
      <point x="450" y="916" type="line"/>
      <point x="801" y="916" type="line"/>
      <point x="1144" y="916"/>
      <point x="1376" y="748"/>
      <point x="1376" y="458" type="curve" smooth="yes"/>
      <point x="1376" y="168"/>
      <point x="1144" y="0"/>
      <point x="801" y="0" type="curve"/>
      <point x="70" y="0" type="line"/>
      <point x="70" y="1480" type="line"/>
      <point x="1256" y="1480" type="line"/>
    </contour>
    <contour>
      <point x="801" y="600" type="curve"/>
      <point x="450" y="600" type="line"/>
      <point x="450" y="336" type="line"/>
      <point x="801" y="336" type="line"/>
      <point x="902" y="336"/>
      <point x="996" y="373"/>
      <point x="996" y="468" type="curve" smooth="yes"/>
      <point x="996" y="563"/>
      <point x="902" y="600"/>
    </contour>
  </outline>
</glyph>
<glyph name="uni0414" format="2">
  <advance width="1655"/>
  <unicode hex="0414"/>
  <anchor x="941" y="1380" name="top_center"/>
  <anchor x="821" y="0" name="bottom_center"/>
  <outline>
    <contour>
      <point x="35" y="-300" type="line"/>
      <point x="35" y="336" type="line"/>
      <point x="415" y="336" type="line"/>
      <point x="415" y="-300" type="line"/>
    </contour>
    <contour>
      <point x="1252" y="-303" type="line"/>
      <point x="1252" y="333" type="line"/>
      <point x="1632" y="333" type="line"/>
      <point x="1632" y="-303" type="line"/>
    </contour>
    <contour>
      <point x="255" y="336" type="line"/>
      <point x="1252" y="333" type="line"/>
      <point x="1252" y="-3" type="line"/>
      <point x="255" y="0" type="line"/>
    </contour>
    <contour>
      <point x="1430" y="1480" type="line"/>
      <point x="1430" y="0" type="line"/>
      <point x="1050" y="0" type="line"/>
      <point x="1050" y="1144" type="line"/>
      <point x="808" y="1144" type="line"/>
      <point x="737" y="550" type="line"/>
      <point x="702" y="151"/>
      <point x="457" y="0"/>
      <point x="89" y="0" type="curve"/>
      <point x="89" y="336" type="line"/>
      <point x="191" y="336"/>
      <point x="342" y="401"/>
      <point x="357" y="550" type="curve" smooth="yes"/>
      <point x="452" y="1480" type="line"/>
    </contour>
  </outline>
</glyph>
<glyph name="uni041B" format="2">
  <advance width="1446"/>
  <unicode hex="041B"/>
  <anchor x="887" y="0" name="bottom_center"/>
  <anchor x="887" y="1380" name="top_center"/>
  <outline>
    <contour>
      <point x="1376" y="1480" type="line"/>
      <point x="1376" y="0" type="line"/>
      <point x="996" y="0" type="line"/>
      <point x="996" y="1144" type="line"/>
      <point x="754" y="1144" type="line"/>
      <point x="683" y="520" type="line"/>
      <point x="648" y="121"/>
      <point x="403" y="-30"/>
      <point x="35" y="-30" type="curve"/>
      <point x="35" y="306" type="line"/>
      <point x="137" y="306"/>
      <point x="288" y="371"/>
      <point x="303" y="520" type="curve" smooth="yes"/>
      <point x="398" y="1480" type="line"/>
    </contour>
  </outline>
</glyph>
<glyph name="uni0424" format="2">
  <advance width="1620"/>
  <unicode hex="0424"/>
  <anchor x="810" y="1380" name="top_center"/>
  <anchor x="810" y="0" name="bottom_center"/>
  <outline>
    <contour>
      <point x="430" y="740" type="curve" smooth="yes"/>
      <point x="430" y="552"/>
      <point x="560" y="486"/>
      <point x="810" y="486" type="curve" smooth="yes"/>
      <point x="1060" y="486"/>
      <point x="1190" y="552"/>
      <point x="1190" y="740" type="curve" smooth="yes"/>
      <point x="1190" y="928"/>
      <point x="1060" y="994"/>
      <point x="810" y="994" type="curve" smooth="yes"/>
      <point x="560" y="994"/>
      <point x="430" y="928"/>
    </contour>
    <contour>
      <point x="50" y="740" type="curve" smooth="yes"/>
      <point x="50" y="1095"/>
      <point x="350" y="1330"/>
      <point x="810" y="1330" type="curve" smooth="yes"/>
      <point x="1270" y="1330"/>
      <point x="1570" y="1095"/>
      <point x="1570" y="740" type="curve" smooth="yes"/>
      <point x="1570" y="385"/>
      <point x="1270" y="150"/>
      <point x="810" y="150" type="curve" smooth="yes"/>
      <point x="350" y="150"/>
      <point x="50" y="385"/>
    </contour>
    <contour>
      <point x="620" y="0" type="line"/>
      <point x="620" y="1480" type="line"/>
      <point x="1000" y="1480" type="line"/>
      <point x="1000" y="0" type="line"/>
    </contour>
  </outline>
</glyph>
<glyph name="uni042B" format="2">
  <advance width="2006"/>
  <unicode hex="042B"/>
  <anchor x="1002" y="1380" name="top_center"/>
  <anchor x="1002" y="0" name="bottom_center"/>
  <outline>
    <contour>
      <point x="450" y="1480" type="line"/>
      <point x="450" y="916" type="line"/>
      <point x="801" y="916" type="line"/>
      <point x="1144" y="916"/>
      <point x="1376" y="748"/>
      <point x="1376" y="458" type="curve" smooth="yes"/>
      <point x="1376" y="168"/>
      <point x="1144" y="0"/>
      <point x="801" y="0" type="curve"/>
      <point x="70" y="0" type="line"/>
      <point x="70" y="1480" type="line"/>
    </contour>
    <contour>
      <point x="801" y="600" type="curve"/>
      <point x="450" y="600" type="line"/>
      <point x="450" y="336" type="line"/>
      <point x="801" y="336" type="line"/>
      <point x="902" y="336"/>
      <point x="996" y="373"/>
      <point x="996" y="468" type="curve" smooth="yes"/>
      <point x="996" y="563"/>
      <point x="902" y="600"/>
    </contour>
    <contour>
      <point x="1936" y="1480" type="line"/>
      <point x="1936" y="0" type="line"/>
      <point x="1556" y="0" type="line"/>
      <point x="1556" y="1480" type="line"/>
    </contour>
  </outline>
</glyph>
<glyph name="uni042F" format="2">
  <advance width="1318"/>
  <unicode hex="042F"/>
  <anchor x="699" y="0" name="bottom_center"/>
  <anchor x="699" y="1380" name="top_center"/>
  <outline>
    <contour>
      <point x="923" y="643" type="line"/>
      <point x="470" y="0" type="line"/>
      <point x="30" y="0" type="line"/>
      <point x="506" y="660" type="line"/>
    </contour>
    <contour>
      <point x="868" y="1144" type="line"/>
      <point x="681" y="1144" type="line"/>
      <point x="561" y="1144"/>
      <point x="490" y="1094"/>
      <point x="490" y="984" type="curve" smooth="yes"/>
      <point x="490" y="874"/>
      <point x="561" y="824"/>
      <point x="681" y="824" type="curve"/>
      <point x="868" y="824" type="line"/>
    </contour>
    <contour>
      <point x="1248" y="0" type="line"/>
      <point x="868" y="0" type="line"/>
      <point x="868" y="488" type="line"/>
      <point x="681" y="488" type="line"/>
      <point x="295" y="488"/>
      <point x="110" y="729"/>
      <point x="110" y="984" type="curve" smooth="yes"/>
      <point x="110" y="1239"/>
      <point x="295" y="1480"/>
      <point x="681" y="1480" type="curve"/>
      <point x="1248" y="1480" type="line"/>
    </contour>
  </outline>
</glyph>
<glyph name="uni0434" format="2">
  <advance width="1298"/>
  <unicode hex="0434"/>
  <anchor x="717" y="0" name="bottom_center"/>
  <anchor x="717" y="1040" name="top_center"/>
  <outline>
    <contour>
      <point x="813" y="320" type="line"/>
      <point x="1263" y="320" type="line"/>
      <point x="1263" y="-300" type="line"/>
      <point x="903" y="-300" type="line"/>
      <point x="903" y="0" type="line"/>
      <point x="813" y="0" type="line"/>
    </contour>
    <contour>
      <point x="35" y="-300" type="line"/>
      <point x="35" y="320" type="line"/>
      <point x="395" y="320" type="line"/>
      <point x="395" y="-300" type="line"/>
    </contour>
    <contour>
      <point x="276" y="320" type="line"/>
      <point x="793" y="320" type="line"/>
      <point x="793" y="0" type="line"/>
      <point x="276" y="0" type="line"/>
    </contour>
    <contour>
      <point x="1133" y="1040" type="line"/>
      <point x="1133" y="0" type="line"/>
      <point x="773" y="0" type="line"/>
      <point x="773" y="720" type="line"/>
      <point x="641" y="720" type="line"/>
      <point x="613" y="450" type="line" smooth="yes"/>
      <point x="585" y="158"/>
      <point x="434" y="0"/>
      <point x="65" y="0" type="curve"/>
      <point x="65" y="320" type="line"/>
      <point x="177" y="320"/>
      <point x="249" y="356"/>
      <point x="260" y="450" type="curve" smooth="yes"/>
      <point x="331" y="1040" type="line"/>
    </contour>
  </outline>
</glyph>
<glyph name="uni043B" format="2">
  <advance width="1173"/>
  <unicode hex="043B"/>
  <anchor x="702" y="0" name="bottom_center"/>
  <anchor x="702" y="1040" name="top_center"/>
  <outline>
    <contour>
      <point x="1103" y="1040" type="line"/>
      <point x="1103" y="0" type="line"/>
      <point x="743" y="0" type="line"/>
      <point x="743" y="720" type="line"/>
      <point x="611" y="720" type="line"/>
      <point x="583" y="420" type="line" smooth="yes"/>
      <point x="555" y="128"/>
      <point x="404" y="-30"/>
      <point x="35" y="-30" type="curve"/>
      <point x="35" y="290" type="line"/>
      <point x="147" y="290"/>
      <point x="219" y="326"/>
      <point x="230" y="420" type="curve" smooth="yes"/>
      <point x="301" y="1040" type="line"/>
    </contour>
  </outline>
</glyph>
<glyph name="uni043F" format="2">
  <advance width="1196"/>
  <unicode hex="043F"/>
  <anchor x="598" y="0" name="bottom_center"/>
  <anchor x="598" y="1040" name="top_center"/>
  <outline>
    <contour>
      <point x="70" y="1040" type="line"/>
      <point x="286" y="1040" type="line"/>
      <point x="910" y="1040" type="line"/>
      <point x="1126" y="1040" type="line"/>
      <point x="1126" y="0" type="line"/>
      <point x="766" y="0" type="line"/>
      <point x="766" y="720" type="line"/>
      <point x="430" y="720" type="line"/>
      <point x="430" y="0" type="line"/>
      <point x="70" y="0" type="line"/>
    </contour>
  </outline>
</glyph>
<glyph name="uni0444" format="2">
  <advance width="1560"/>
  <unicode hex="0444"/>
  <anchor x="780" y="1400" name="top_center"/>
  <anchor x="780" y="-360" name="bottom_center"/>
  <outline>
    <contour>
      <point x="960" y="750" type="curve"/>
      <point x="960" y="1070" type="line"/>
      <point x="1280" y="1070"/>
      <point x="1510" y="840"/>
      <point x="1510" y="520" type="curve" smooth="yes"/>
      <point x="1510" y="200"/>
      <point x="1280" y="-30"/>
      <point x="960" y="-30" type="curve"/>
      <point x="960" y="290" type="line"/>
      <point x="1097" y="290"/>
      <point x="1150" y="390"/>
      <point x="1150" y="520" type="curve" smooth="yes"/>
      <point x="1150" y="657"/>
      <point x="1097" y="750"/>
    </contour>
    <contour>
      <point x="960" y="1480" type="line"/>
      <point x="960" y="-440" type="line"/>
      <point x="600" y="-440" type="line"/>
      <point x="600" y="1480" type="line"/>
    </contour>
    <contour>
      <point x="600" y="750" type="line"/>
      <point x="463" y="750"/>
      <point x="410" y="657"/>
      <point x="410" y="520" type="curve" smooth="yes"/>
      <point x="410" y="390"/>
      <point x="463" y="290"/>
      <point x="600" y="290" type="curve"/>
      <point x="600" y="-30" type="line"/>
      <point x="280" y="-30"/>
      <point x="50" y="200"/>
      <point x="50" y="520" type="curve" smooth="yes"/>
      <point x="50" y="840"/>
      <point x="280" y="1070"/>
      <point x="600" y="1070" type="curve"/>
    </contour>
  </outline>
</glyph>
<glyph name="uni0447" format="2">
  <advance width="1098"/>
  <unicode hex="0447"/>
  <anchor x="550" y="0" name="bottom_center"/>
  <anchor x="550" y="1040" name="top_center"/>
  <outline>
    <contour>
      <point x="537" y="377" type="curve" smooth="yes"/>
      <point x="257" y="377"/>
      <point x="70" y="516"/>
      <point x="70" y="850" type="curve"/>
      <point x="70" y="1040" type="line"/>
      <point x="430" y="1040" type="line"/>
      <point x="430" y="853" type="line" smooth="yes"/>
      <point x="430" y="729"/>
      <point x="475" y="697"/>
      <point x="549" y="697" type="curve" smooth="yes"/>
      <point x="679" y="697"/>
      <point x="696" y="812"/>
      <point x="696" y="812" type="curve"/>
      <point x="929" y="525" type="line"/>
      <point x="929" y="525"/>
      <point x="817" y="377"/>
    </contour>
    <contour>
      <point x="668" y="0" type="line"/>
      <point x="668" y="1040" type="line"/>
      <point x="1028" y="1040" type="line"/>
      <point x="1028" y="0" type="line"/>
    </contour>
  </outline>
</glyph>
<glyph name="uni0449" format="2">
  <advance width="1795"/>
  <unicode hex="0449"/>
  <anchor x="825" y="0" name="bottom_center"/>
  <anchor x="825" y="1040" name="top_center"/>
  <outline>
    <contour>
      <point x="1310" y="320" type="line"/>
      <point x="1760" y="320" type="line"/>
      <point x="1760" y="-300" type="line"/>
      <point x="1400" y="-300" type="line"/>
      <point x="1400" y="0" type="line"/>
      <point x="1310" y="0" type="line"/>
    </contour>
    <contour>
      <point x="430" y="1040" type="line"/>
      <point x="430" y="320" type="line"/>
      <point x="627" y="320" type="line"/>
      <point x="627" y="0" type="line"/>
      <point x="286" y="0" type="line"/>
      <point x="70" y="0" type="line"/>
      <point x="70" y="1040" type="line"/>
    </contour>
    <contour>
      <point x="1220" y="1040" type="line"/>
      <point x="1580" y="1040" type="line"/>
      <point x="1580" y="0" type="line"/>
      <point x="1364" y="0" type="line"/>
      <point x="1023" y="0" type="line"/>
      <point x="627" y="0" type="line"/>
      <point x="627" y="1040" type="line"/>
      <point x="1023" y="1040" type="line"/>
      <point x="1023" y="320" type="line"/>
      <point x="1220" y="320" type="line"/>
    </contour>
  </outline>
</glyph>
<glyph name="uni044C" format="2">
  <advance width="1140"/>
  <unicode hex="044C"/>
  <anchor x="553" y="0" name="bottom_center"/>
  <anchor x="252" y="1040" name="top_center"/>
  <outline>
    <contour>
      <point x="664" y="679" type="line"/>
      <point x="958" y="679"/>
      <point x="1090" y="534"/>
      <point x="1090" y="340" type="curve" smooth="yes"/>
      <point x="1090" y="126"/>
      <point x="958" y="0"/>
      <point x="664" y="0" type="curve"/>
      <point x="70" y="0" type="line"/>
      <point x="70" y="1040" type="line"/>
      <point x="430" y="1040" type="line"/>
      <point x="430" y="679" type="line"/>
    </contour>
    <contour>
      <point x="664" y="378" type="curve"/>
      <point x="430" y="378" type="line"/>
      <point x="430" y="318" type="line"/>
      <point x="664" y="318" type="line"/>
      <point x="710" y="318"/>
      <point x="730" y="326"/>
      <point x="730" y="348" type="curve" smooth="yes"/>
      <point x="730" y="370"/>
      <point x="710" y="378"/>
    </contour>
  </outline>
</glyph>
<glyph name="uni0459" format="2">
  <advance width="1813"/>
  <unicode hex="0459"/>
  <outline>
    <contour>
      <point x="1403" y="348" type="curve" smooth="yes"/>
      <point x="1403" y="370"/>
      <point x="1383" y="378"/>
      <point x="1337" y="378" type="curve"/>
      <point x="1103" y="378" type="line"/>
      <point x="1103" y="679" type="line"/>
      <point x="1337" y="679" type="line"/>
      <point x="1631" y="679"/>
      <point x="1763" y="534"/>
      <point x="1763" y="340" type="curve" smooth="yes"/>
      <point x="1763" y="126"/>
      <point x="1631" y="0"/>
      <point x="1337" y="0" type="curve"/>
      <point x="1103" y="0" type="line"/>
      <point x="1103" y="318" type="line"/>
      <point x="1337" y="318" type="line"/>
      <point x="1383" y="318"/>
      <point x="1403" y="326"/>
    </contour>
    <contour>
      <point x="1103" y="1040" type="line"/>
      <point x="1103" y="0" type="line"/>
      <point x="743" y="0" type="line"/>
      <point x="743" y="720" type="line"/>
      <point x="611" y="720" type="line"/>
      <point x="583" y="420" type="line" smooth="yes"/>
      <point x="555" y="128"/>
      <point x="404" y="-30"/>
      <point x="35" y="-30" type="curve"/>
      <point x="35" y="290" type="line"/>
      <point x="147" y="290"/>
      <point x="219" y="326"/>
      <point x="230" y="420" type="curve" smooth="yes"/>
      <point x="301" y="1040" type="line"/>
    </contour>
  </outline>
</glyph>
<glyph name="uni0460" format="2">
  <advance width="2265"/>
  <unicode hex="0460"/>
  <outline>
    <contour>
      <point x="1790" y="0" type="curve"/>
      <point x="1376" y="0" type="line"/>
      <point x="1376" y="0"/>
      <point x="951" y="640"/>
      <point x="951" y="1480" type="curve"/>
      <point x="1343" y="1480" type="line"/>
      <point x="1343" y="840"/>
      <point x="1583" y="460"/>
      <point x="1583" y="460" type="curve"/>
      <point x="1583" y="460"/>
      <point x="1823" y="840"/>
      <point x="1823" y="1480" type="curve"/>
      <point x="2215" y="1480" type="line"/>
      <point x="2215" y="640"/>
      <point x="1790" y="0"/>
    </contour>
    <contour>
      <point x="848" y="0" type="line"/>
      <point x="475" y="0" type="line"/>
      <point x="475" y="0"/>
      <point x="50" y="640"/>
      <point x="50" y="1480" type="curve"/>
      <point x="442" y="1480" type="line"/>
      <point x="442" y="840"/>
      <point x="682" y="460"/>
      <point x="682" y="460" type="curve"/>
      <point x="979" y="1116" type="line"/>
      <point x="1343" y="1116" type="line"/>
    </contour>
  </outline>
</glyph>
<glyph name="uni0461" format="2">
  <advance width="1836"/>
  <unicode hex="0461"/>
  <outline>
    <contour>
      <point x="1116" y="1040" type="line"/>
      <point x="1116" y="620"/>
      <point x="1261" y="340"/>
      <point x="1261" y="340" type="curve"/>
      <point x="1261" y="340"/>
      <point x="1406" y="620"/>
      <point x="1406" y="1040" type="curve"/>
      <point x="1786" y="1040" type="line"/>
      <point x="1786" y="420"/>
      <point x="1492" y="0"/>
      <point x="1492" y="0" type="curve"/>
      <point x="1030" y="0" type="line"/>
      <point x="1030" y="0"/>
      <point x="736" y="420"/>
      <point x="736" y="1040" type="curve"/>
    </contour>
    <contour>
      <point x="430" y="1040" type="line"/>
      <point x="430" y="620"/>
      <point x="575" y="340"/>
      <point x="575" y="340" type="curve"/>
      <point x="766" y="810" type="line"/>
      <point x="1126" y="810" type="line"/>
      <point x="766" y="0" type="line"/>
      <point x="344" y="0" type="line"/>
      <point x="344" y="0"/>
      <point x="50" y="420"/>
      <point x="50" y="1040" type="curve"/>
    </contour>
  </outline>
</glyph>
<glyph name="uni0462" format="2">
  <advance width="1716"/>
  <unicode hex="0462"/>
  <outline>
    <contour>
      <point x="740" y="1480" type="line"/>
      <point x="740" y="916" type="line"/>
      <point x="1091" y="916" type="line"/>
      <point x="1434" y="916"/>
      <point x="1666" y="748"/>
      <point x="1666" y="458" type="curve" smooth="yes"/>
      <point x="1666" y="168"/>
      <point x="1434" y="0"/>
      <point x="1091" y="0" type="curve"/>
      <point x="360" y="0" type="line"/>
      <point x="360" y="1480" type="line"/>
    </contour>
    <contour>
      <point x="1091" y="600" type="curve"/>
      <point x="740" y="600" type="line"/>
      <point x="740" y="336" type="line"/>
      <point x="1091" y="336" type="line"/>
      <point x="1192" y="336"/>
      <point x="1286" y="373"/>
      <point x="1286" y="468" type="curve" smooth="yes"/>
      <point x="1286" y="563"/>
      <point x="1192" y="600"/>
    </contour>
    <contour>
      <point x="1100" y="1078" type="line"/>
      <point x="0" y="1078" type="line"/>
      <point x="0" y="1124"/>
      <point x="0" y="1272"/>
      <point x="0" y="1318" type="curve"/>
      <point x="1100" y="1318" type="line"/>
    </contour>
  </outline>
</glyph>
<glyph name="uni0466" format="2">
  <advance width="1530"/>
  <unicode hex="0466"/>
  <outline>
    <contour>
      <point x="585" y="0" type="line"/>
      <point x="945" y="0" type="line"/>
      <point x="945" y="740" type="line"/>
      <point x="585" y="740" type="line"/>
    </contour>
    <contour>
      <point x="1048" y="908" type="line"/>
      <point x="486" y="908" type="line"/>
      <point x="486" y="572" type="line"/>
      <point x="1048" y="572" type="line"/>
    </contour>
    <contour>
      <point x="773" y="1080" type="line"/>
      <point x="1103" y="0" type="line"/>
      <point x="1495" y="0" type="line"/>
      <point x="1003" y="1480" type="line"/>
      <point x="527" y="1480" type="line"/>
      <point x="35" y="0" type="line"/>
      <point x="427" y="0" type="line"/>
    </contour>
  </outline>
</glyph>
<glyph name="uni0467" format="2">
  <advance width="1310"/>
  <unicode hex="0467"/>
  <outline>
    <contour>
      <point x="835" y="530" type="line"/>
      <point x="835" y="0" type="line"/>
      <point x="475" y="0" type="line"/>
      <point x="475" y="530" type="line"/>
    </contour>
    <contour>
      <point x="367" y="600" type="line"/>
      <point x="910" y="600" type="line"/>
      <point x="910" y="360" type="line"/>
      <point x="367" y="360" type="line"/>
    </contour>
    <contour>
      <point x="655" y="686" type="line"/>
      <point x="415" y="0" type="line"/>
      <point x="35" y="0" type="line"/>
      <point x="475" y="1040" type="line"/>
      <point x="835" y="1040" type="line"/>
      <point x="1275" y="0" type="line"/>
      <point x="895" y="0" type="line"/>
    </contour>
  </outline>
</glyph>
<glyph name="uni0469" format="2">
  <advance width="1807"/>
  <unicode hex="0469"/>
  <outline>
    <contour>
      <point x="1332" y="530" type="line"/>
      <point x="1332" y="0" type="line"/>
      <point x="972" y="0" type="line"/>
      <point x="972" y="530" type="line"/>
    </contour>
    <contour>
      <point x="864" y="600" type="line"/>
      <point x="1407" y="600" type="line"/>
      <point x="1407" y="360" type="line"/>
      <point x="864" y="360" type="line"/>
    </contour>
    <contour>
      <point x="1152" y="686" type="line"/>
      <point x="912" y="0" type="line"/>
      <point x="532" y="0" type="line"/>
      <point x="972" y="1040" type="line"/>
      <point x="1332" y="1040" type="line"/>
      <point x="1772" y="0" type="line"/>
      <point x="1392" y="0" type="line"/>
    </contour>
    <contour>
      <point x="70" y="1040" type="line"/>
      <point x="430" y="1040" type="line"/>
      <point x="430" y="0" type="line"/>
      <point x="70" y="0" type="line"/>
    </contour>
    <contour>
      <point x="430" y="680" type="line"/>
      <point x="840" y="680" type="line"/>
      <point x="840" y="360" type="line"/>
      <point x="430" y="360" type="line"/>
    </contour>
  </outline>
</glyph>
<glyph name="uni046B" format="2">
  <advance width="1376"/>
  <unicode hex="046B"/>
  <outline>
    <contour>
      <point x="1306" y="148" type="curve"/>
      <point x="1306" y="21"/>
      <point x="1306" y="0"/>
      <point x="1306" y="0" type="curve"/>
      <point x="946" y="0" type="line"/>
      <point x="946" y="0"/>
      <point x="946" y="19"/>
      <point x="946" y="148" type="curve"/>
      <point x="946" y="249"/>
      <point x="910" y="360"/>
      <point x="688" y="360" type="curve" smooth="yes"/>
      <point x="466" y="360"/>
      <point x="430" y="239"/>
      <point x="430" y="148" type="curve"/>
      <point x="430" y="21"/>
      <point x="430" y="0"/>
      <point x="430" y="0" type="curve"/>
      <point x="70" y="0" type="line"/>
      <point x="70" y="0"/>
      <point x="70" y="19"/>
      <point x="70" y="148" type="curve"/>
      <point x="70" y="397"/>
      <point x="321" y="680"/>
      <point x="688" y="680" type="curve" smooth="yes"/>
      <point x="1055" y="680"/>
      <point x="1306" y="397"/>
    </contour>
    <contour>
      <point x="395" y="780" type="line"/>
      <point x="477" y="1040" type="line"/>
      <point x="899" y="1040" type="line"/>
      <point x="1007" y="780" type="line"/>
    </contour>
    <contour>
      <point x="508" y="0" type="line"/>
      <point x="508" y="523" type="line"/>
      <point x="868" y="523" type="line"/>
      <point x="868" y="0" type="line"/>
    </contour>
    <contour>
      <point x="835" y="435" type="line"/>
      <point x="787" y="443"/>
      <point x="583" y="451"/>
      <point x="523" y="461" type="curve"/>
      <point x="95" y="1040" type="line"/>
      <point x="477" y="1040" type="line"/>
      <point x="688" y="680" type="line"/>
      <point x="899" y="1040" type="line"/>
      <point x="1281" y="1040" type="line"/>
    </contour>
  </outline>
</glyph>
<glyph name="uni0474" format="2">
  <advance width="1749"/>
  <unicode hex="0474"/>
  <anchor x="765" y="0" name="bottom_center"/>
  <anchor x="765" y="1380" name="top_center"/>
  <outline>
    <contour>
      <point x="1374" y="1122" type="curve"/>
      <point x="1003" y="0" type="line"/>
      <point x="527" y="0" type="line"/>
      <point x="35" y="1480" type="line"/>
      <point x="427" y="1480" type="line"/>
      <point x="773" y="400" type="line"/>
      <point x="1026" y="1215" type="line"/>
      <point x="1116" y="1480"/>
      <point x="1351" y="1545"/>
      <point x="1519" y="1545" type="curve" smooth="yes"/>
      <point x="1635" y="1545"/>
      <point x="1706" y="1501"/>
      <point x="1744" y="1473" type="curve"/>
      <point x="1637" y="1172" type="line"/>
      <point x="1611" y="1191"/>
      <point x="1562" y="1209"/>
      <point x="1519" y="1209" type="curve" smooth="yes"/>
      <point x="1442" y="1209"/>
      <point x="1395" y="1183"/>
    </contour>
  </outline>
</glyph>
<glyph name="uni047A" format="2">
  <advance width="1820"/>
  <unicode hex="047A"/>
  <outline>
    <contour>
      <point x="675" y="138" type="curve" smooth="yes"/>
      <point x="675" y="271"/>
      <point x="782" y="378"/>
      <point x="915" y="378" type="curve" smooth="yes"/>
      <point x="1048" y="378"/>
      <point x="1155" y="271"/>
      <point x="1155" y="138" type="curve" smooth="yes"/>
      <point x="1155" y="5"/>
      <point x="1048" y="-102"/>
      <point x="915" y="-102" type="curve" smooth="yes"/>
      <point x="782" y="-102"/>
      <point x="675" y="5"/>
    </contour>
    <contour>
      <point x="665" y="1342" type="curve" smooth="yes"/>
      <point x="665" y="1475"/>
      <point x="772" y="1582"/>
      <point x="905" y="1582" type="curve" smooth="yes"/>
      <point x="1038" y="1582"/>
      <point x="1145" y="1475"/>
      <point x="1145" y="1342" type="curve" smooth="yes"/>
      <point x="1145" y="1209"/>
      <point x="1038" y="1102"/>
      <point x="905" y="1102" type="curve" smooth="yes"/>
      <point x="772" y="1102"/>
      <point x="665" y="1209"/>
    </contour>
    <contour>
      <point x="1010" y="-30" type="curve"/>
      <point x="1010" y="306" type="line"/>
      <point x="1260" y="306"/>
      <point x="1390" y="490"/>
      <point x="1390" y="740" type="curve" smooth="yes"/>
      <point x="1390" y="990"/>
      <point x="1250" y="1174"/>
      <point x="1000" y="1174" type="curve"/>
      <point x="1000" y="1510" type="line"/>
      <point x="1460" y="1510"/>
      <point x="1770" y="1190"/>
      <point x="1770" y="740" type="curve" smooth="yes"/>
      <point x="1770" y="290"/>
      <point x="1470" y="-30"/>
    </contour>
    <contour>
      <point x="820" y="-30" type="line"/>
      <point x="360" y="-30"/>
      <point x="50" y="290"/>
      <point x="50" y="740" type="curve" smooth="yes"/>
      <point x="50" y="1190"/>
      <point x="350" y="1510"/>
      <point x="810" y="1510" type="curve"/>
      <point x="810" y="1174" type="line"/>
      <point x="560" y="1174"/>
      <point x="430" y="990"/>
      <point x="430" y="740" type="curve" smooth="yes"/>
      <point x="430" y="490"/>
      <point x="570" y="306"/>
      <point x="820" y="306" type="curve"/>
    </contour>
  </outline>
</glyph>
<glyph name="uni047E" format="2">
  <advance width="2265"/>
  <unicode hex="047E"/>
  <outline>
    <contour>
      <point x="1790" y="0" type="curve"/>
      <point x="1376" y="0" type="line"/>
      <point x="1376" y="0"/>
      <point x="951" y="640"/>
      <point x="951" y="1480" type="curve"/>
      <point x="1343" y="1480" type="line"/>
      <point x="1343" y="840"/>
      <point x="1583" y="460"/>
      <point x="1583" y="460" type="curve"/>
      <point x="1583" y="460"/>
      <point x="1823" y="840"/>
      <point x="1823" y="1480" type="curve"/>
      <point x="2215" y="1480" type="line"/>
      <point x="2215" y="640"/>
      <point x="1790" y="0"/>
    </contour>
    <contour>
      <point x="848" y="0" type="line"/>
      <point x="475" y="0" type="line"/>
      <point x="475" y="0"/>
      <point x="50" y="640"/>
      <point x="50" y="1480" type="curve"/>
      <point x="442" y="1480" type="line"/>
      <point x="442" y="840"/>
      <point x="682" y="460"/>
      <point x="682" y="460" type="curve"/>
      <point x="979" y="1116" type="line"/>
      <point x="1343" y="1116" type="line"/>
    </contour>
    <contour>
      <point x="782" y="1719" type="line"/>
      <point x="842" y="1909" type="line"/>
      <point x="1452" y="1909" type="line"/>
      <point x="1512" y="1719" type="line"/>
    </contour>
    <contour>
      <point x="652" y="1594" type="line"/>
      <point x="652" y="1909" type="line"/>
      <point x="842" y="1909" type="line"/>
      <point x="842" y="1594" type="line"/>
    </contour>
    <contour>
      <point x="1452" y="1594" type="line"/>
      <point x="1452" y="1909" type="line"/>
      <point x="1642" y="1909" type="line"/>
      <point x="1642" y="1594" type="line"/>
    </contour>
    <contour>
      <point x="1052" y="1594" type="line"/>
      <point x="1052" y="1809" type="line"/>
      <point x="1242" y="1809" type="line"/>
      <point x="1242" y="1594" type="line"/>
    </contour>
  </outline>
</glyph>
<glyph name="uni047F" format="2">
  <advance width="1808"/>
  <unicode hex="047F"/>
  <outline>
    <contour>
      <point x="599" y="1279" type="line"/>
      <point x="599" y="1469" type="line"/>
      <point x="1209" y="1469" type="line"/>
      <point x="1209" y="1279" type="line"/>
    </contour>
    <contour>
      <point x="409" y="1154" type="line"/>
      <point x="409" y="1469" type="line"/>
      <point x="599" y="1469" type="line"/>
      <point x="599" y="1154" type="line"/>
    </contour>
    <contour>
      <point x="1209" y="1154" type="line"/>
      <point x="1209" y="1469" type="line"/>
      <point x="1399" y="1469" type="line"/>
      <point x="1399" y="1154" type="line"/>
    </contour>
    <contour>
      <point x="809" y="1154" type="line"/>
      <point x="809" y="1469" type="line"/>
      <point x="999" y="1469" type="line"/>
      <point x="999" y="1154" type="line"/>
    </contour>
    <contour>
      <point x="1084" y="1040" type="line"/>
      <point x="724" y="1040" type="line"/>
      <point x="724" y="468" type="line" smooth="yes"/>
      <point x="724" y="348"/>
      <point x="667" y="290"/>
      <point x="577" y="290" type="curve" smooth="yes"/>
      <point x="487" y="290"/>
      <point x="430" y="348"/>
      <point x="430" y="468" type="curve" smooth="yes"/>
      <point x="430" y="1040" type="line"/>
      <point x="70" y="1040" type="line"/>
      <point x="70" y="468" type="line" smooth="yes"/>
      <point x="70" y="108"/>
      <point x="301" y="-30"/>
      <point x="577" y="-30" type="curve" smooth="yes"/>
      <point x="702" y="-30"/>
      <point x="818" y="-1"/>
      <point x="907" y="63" type="curve"/>
      <point x="998" y="-1"/>
      <point x="1116" y="-30"/>
      <point x="1241" y="-30" type="curve" smooth="yes"/>
      <point x="1517" y="-30"/>
      <point x="1738" y="108"/>
      <point x="1738" y="468" type="curve" smooth="yes"/>
      <point x="1738" y="1040" type="line"/>
      <point x="1378" y="1040" type="line"/>
      <point x="1378" y="468" type="line" smooth="yes"/>
      <point x="1378" y="348"/>
      <point x="1321" y="290"/>
      <point x="1231" y="290" type="curve" smooth="yes"/>
      <point x="1141" y="290"/>
      <point x="1084" y="348"/>
      <point x="1084" y="468" type="curve" smooth="yes"/>
    </contour>
  </outline>
</glyph>
<glyph name="uni049D" format="2">
  <advance width="1193"/>
  <unicode hex="049D"/>
  <outline>
    <contour>
      <point x="450" y="940" type="line"/>
      <point x="630" y="940" type="line"/>
      <point x="630" y="100" type="line"/>
      <point x="450" y="100" type="line"/>
    </contour>
    <contour>
      <point x="285" y="643" type="line"/>
      <point x="682" y="660" type="line"/>
      <point x="1158" y="0" type="line"/>
      <point x="738" y="0" type="line"/>
    </contour>
    <contour>
      <point x="430" y="344" type="line"/>
      <point x="430" y="0" type="line"/>
      <point x="70" y="0" type="line"/>
      <point x="70" y="1040" type="line"/>
      <point x="430" y="1040" type="line"/>
      <point x="430" y="808" type="line"/>
      <point x="662" y="1040" type="line"/>
      <point x="734" y="1040"/>
      <point x="1054" y="1040"/>
      <point x="1126" y="1040" type="curve"/>
    </contour>
  </outline>
</glyph>
<glyph name="uni04A0" format="2">
  <advance width="1855"/>
  <unicode hex="04A0"/>
  <outline>
    <contour>
      <point x="0" y="1144" type="line"/>
      <point x="0" y="1480" type="line"/>
      <point x="432" y="1480" type="line"/>
      <point x="432" y="1144" type="line"/>
    </contour>
    <contour>
      <point x="815" y="801" type="line"/>
      <point x="1154" y="925" type="line"/>
      <point x="1820" y="0" type="line"/>
      <point x="1380" y="0" type="line"/>
    </contour>
    <contour>
      <point x="812" y="450" type="line"/>
      <point x="812" y="0" type="line"/>
      <point x="432" y="0" type="line"/>
      <point x="432" y="1480" type="line"/>
      <point x="812" y="1480" type="line"/>
      <point x="812" y="940" type="line"/>
      <point x="1340" y="1480" type="line"/>
      <point x="1412" y="1480"/>
      <point x="1748" y="1480"/>
      <point x="1820" y="1480" type="curve"/>
    </contour>
  </outline>
</glyph>
<glyph name="uni04A1" format="2">
  <advance width="1411"/>
  <unicode hex="04A1"/>
  <outline>
    <contour>
      <point x="0" y="720" type="line"/>
      <point x="0" y="1040" type="line"/>
      <point x="288" y="1040" type="line"/>
      <point x="288" y="720" type="line"/>
    </contour>
    <contour>
      <point x="503" y="643" type="line"/>
      <point x="900" y="660" type="line"/>
      <point x="1376" y="0" type="line"/>
      <point x="956" y="0" type="line"/>
    </contour>
    <contour>
      <point x="648" y="344" type="line"/>
      <point x="648" y="0" type="line"/>
      <point x="288" y="0" type="line"/>
      <point x="288" y="1040" type="line"/>
      <point x="648" y="1040" type="line"/>
      <point x="648" y="808" type="line"/>
      <point x="880" y="1040" type="line"/>
      <point x="952" y="1040"/>
      <point x="1272" y="1040"/>
      <point x="1344" y="1040" type="curve"/>
    </contour>
  </outline>
</glyph>
<glyph name="uni04A3" format="2">
  <advance width="1340"/>
  <unicode hex="04A3"/>
  <outline>
    <contour>
      <point x="855" y="320" type="line"/>
      <point x="1305" y="320" type="line"/>
      <point x="1305" y="-300" type="line"/>
      <point x="945" y="-300" type="line"/>
      <point x="945" y="0" type="line"/>
      <point x="855" y="0" type="line"/>
    </contour>
    <contour>
      <point x="70" y="1040" type="line"/>
      <point x="430" y="1040" type="line"/>
      <point x="430" y="680" type="line"/>
      <point x="765" y="680" type="line"/>
      <point x="765" y="1040" type="line"/>
      <point x="1125" y="1040" type="line"/>
      <point x="1125" y="0" type="line"/>
      <point x="765" y="0" type="line"/>
      <point x="765" y="360" type="line"/>
      <point x="430" y="360" type="line"/>
      <point x="430" y="0" type="line"/>
      <point x="70" y="0" type="line"/>
    </contour>
  </outline>
</glyph>
<glyph name="uni04A4" format="2">
  <advance width="2181"/>
  <unicode hex="04A4"/>
  <outline>
    <contour>
      <point x="1232" y="1144" type="line"/>
      <point x="1412" y="1480" type="line"/>
      <point x="2146" y="1480" type="line"/>
      <point x="2146" y="1144" type="line"/>
    </contour>
    <contour>
      <point x="70" y="1480" type="line"/>
      <point x="450" y="1480" type="line"/>
      <point x="450" y="908" type="line"/>
      <point x="1032" y="908" type="line"/>
      <point x="1032" y="1480" type="line"/>
      <point x="1412" y="1480" type="line"/>
      <point x="1412" y="0" type="line"/>
      <point x="1032" y="0" type="line"/>
      <point x="1032" y="572" type="line"/>
      <point x="450" y="572" type="line"/>
      <point x="450" y="0" type="line"/>
      <point x="70" y="0" type="line"/>
    </contour>
  </outline>
</glyph>
<glyph name="uni04A5" format="2">
  <advance width="1674"/>
  <unicode hex="04A5"/>
  <outline>
    <contour>
      <point x="935" y="720" type="line"/>
      <point x="1125" y="1040" type="line"/>
      <point x="1604" y="1040" type="line"/>
      <point x="1604" y="720" type="line"/>
    </contour>
    <contour>
      <point x="70" y="1040" type="line"/>
      <point x="430" y="1040" type="line"/>
      <point x="430" y="680" type="line"/>
      <point x="765" y="680" type="line"/>
      <point x="765" y="1040" type="line"/>
      <point x="1125" y="1040" type="line"/>
      <point x="1125" y="0" type="line"/>
      <point x="765" y="0" type="line"/>
      <point x="765" y="360" type="line"/>
      <point x="430" y="360" type="line"/>
      <point x="430" y="0" type="line"/>
      <point x="70" y="0" type="line"/>
    </contour>
  </outline>
</glyph>
<glyph name="uni04AC" format="2">
  <advance width="1482"/>
  <unicode hex="04AC"/>
  <outline>
    <contour>
      <point x="651" y="336" type="line"/>
      <point x="1121" y="336" type="line"/>
      <point x="1121" y="-300" type="line"/>
      <point x="741" y="-300" type="line"/>
      <point x="741" y="0" type="line"/>
      <point x="651" y="0" type="line"/>
    </contour>
    <contour>
      <point x="551" y="0" type="line"/>
      <point x="551" y="1144" type="line"/>
      <point x="70" y="1144" type="line"/>
      <point x="70" y="1480" type="line"/>
      <point x="1412" y="1480" type="line"/>
      <point x="1412" y="1144" type="line"/>
      <point x="931" y="1144" type="line"/>
      <point x="931" y="0" type="line"/>
    </contour>
  </outline>
</glyph>
<glyph name="uni04B2" format="2">
  <advance width="1713"/>
  <unicode hex="04B2"/>
  <outline>
    <contour>
      <point x="1298" y="336" type="line"/>
      <point x="1678" y="336" type="line"/>
      <point x="1678" y="-300" type="line"/>
      <point x="1298" y="-300" type="line"/>
    </contour>
    <contour>
      <point x="784" y="487" type="line"/>
      <point x="463" y="0" type="line"/>
      <point x="35" y="0" type="line"/>
      <point x="562" y="740" type="line"/>
      <point x="35" y="1480" type="line"/>
      <point x="463" y="1480" type="line"/>
      <point x="786" y="988" type="line"/>
      <point x="1109" y="1480" type="line"/>
      <point x="1537" y="1480" type="line"/>
      <point x="1010" y="740" type="line"/>
      <point x="1537" y="0" type="line"/>
      <point x="1109" y="0" type="line"/>
    </contour>
  </outline>
</glyph>
<glyph name="uni04B5" format="2">
  <advance width="1723"/>
  <unicode hex="04B5"/>
  <outline>
    <contour>
      <point x="1238" y="320" type="line"/>
      <point x="1688" y="320" type="line"/>
      <point x="1688" y="-300" type="line"/>
      <point x="1328" y="-300" type="line"/>
      <point x="1328" y="0" type="line"/>
      <point x="1238" y="0" type="line"/>
    </contour>
    <contour>
      <point x="749" y="720" type="line"/>
      <point x="749" y="320" type="line"/>
      <point x="1148" y="320" type="line"/>
      <point x="1148" y="1040" type="line"/>
      <point x="1508" y="1040" type="line"/>
      <point x="1508" y="0" type="line"/>
      <point x="1292" y="0" type="line"/>
      <point x="605" y="0" type="line"/>
      <point x="389" y="0" type="line"/>
      <point x="389" y="720" type="line"/>
      <point x="70" y="720" type="line"/>
      <point x="70" y="1040" type="line"/>
      <point x="1068" y="1040" type="line"/>
      <point x="1068" y="720" type="line"/>
    </contour>
  </outline>
</glyph>
<glyph name="uni04B7" format="2">
  <advance width="1243"/>
  <unicode hex="04B7"/>
  <outline>
    <contour>
      <point x="758" y="320" type="line"/>
      <point x="1208" y="320" type="line"/>
      <point x="1208" y="-300" type="line"/>
      <point x="848" y="-300" type="line"/>
      <point x="848" y="0" type="line"/>
      <point x="758" y="0" type="line"/>
    </contour>
    <contour>
      <point x="537" y="377" type="curve" smooth="yes"/>
      <point x="257" y="377"/>
      <point x="70" y="516"/>
      <point x="70" y="850" type="curve"/>
      <point x="70" y="1040" type="line"/>
      <point x="430" y="1040" type="line"/>
      <point x="430" y="853" type="line" smooth="yes"/>
      <point x="430" y="729"/>
      <point x="475" y="697"/>
      <point x="549" y="697" type="curve" smooth="yes"/>
      <point x="679" y="697"/>
      <point x="696" y="812"/>
      <point x="696" y="812" type="curve"/>
      <point x="929" y="525" type="line"/>
      <point x="929" y="525"/>
      <point x="817" y="377"/>
    </contour>
    <contour>
      <point x="668" y="0" type="line"/>
      <point x="668" y="1040" type="line"/>
      <point x="1028" y="1040" type="line"/>
      <point x="1028" y="0" type="line"/>
    </contour>
  </outline>
</glyph>
<glyph name="uni04BE" format="2">
  <advance width="2004"/>
  <unicode hex="04BE"/>
  <outline>
    <contour>
      <point x="1004" y="196" type="line"/>
      <point x="1004" y="-300" type="line"/>
      <point x="1384" y="-300" type="line"/>
      <point x="1384" y="196" type="line"/>
    </contour>
    <contour>
      <point x="356" y="1028" type="curve"/>
      <point x="2" y="1028" type="line"/>
      <point x="1" y="1016"/>
      <point x="0" y="1004"/>
      <point x="0" y="992" type="curve" smooth="yes"/>
      <point x="0" y="742"/>
      <point x="184" y="572"/>
      <point x="434" y="572" type="curve"/>
      <point x="434" y="908" type="line"/>
      <point x="384" y="908"/>
      <point x="349" y="942"/>
      <point x="349" y="992" type="curve" smooth="yes"/>
      <point x="349" y="1005"/>
      <point x="350" y="1017"/>
    </contour>
    <contour>
      <point x="1939" y="572" type="line"/>
      <point x="1949" y="626"/>
      <point x="1954" y="682"/>
      <point x="1954" y="740" type="curve" smooth="yes"/>
      <point x="1954" y="1190"/>
      <point x="1654" y="1510"/>
      <point x="1194" y="1510" type="curve" smooth="yes"/>
      <point x="734" y="1510"/>
      <point x="434" y="1190"/>
      <point x="434" y="740" type="curve" smooth="yes"/>
      <point x="434" y="290"/>
      <point x="734" y="-30"/>
      <point x="1194" y="-30" type="curve" smooth="yes"/>
      <point x="1509" y="-30"/>
      <point x="1749" y="120"/>
      <point x="1869" y="360" type="curve"/>
      <point x="1544" y="550" type="line"/>
      <point x="1493" y="402"/>
      <point x="1375" y="306"/>
      <point x="1194" y="306" type="curve" smooth="yes"/>
      <point x="944" y="306"/>
      <point x="814" y="490"/>
      <point x="814" y="740" type="curve" smooth="yes"/>
      <point x="814" y="990"/>
      <point x="944" y="1174"/>
      <point x="1194" y="1174" type="curve" smooth="yes"/>
      <point x="1444" y="1174"/>
      <point x="1574" y="990"/>
      <point x="1574" y="740" type="curve" smooth="yes"/>
      <point x="1574" y="680"/>
      <point x="1566" y="623"/>
      <point x="1551" y="572" type="curve"/>
    </contour>
    <contour>
      <point x="1788" y="908" type="line"/>
      <point x="434" y="908" type="line"/>
      <point x="434" y="572" type="line"/>
      <point x="1551" y="572" type="line"/>
    </contour>
  </outline>
</glyph>
<glyph name="uni04C5" format="2">
  <advance width="1605"/>
  <unicode hex="04C5"/>
  <outline>
    <contour>
      <point x="1052" y="336" type="line"/>
      <point x="1570" y="336" type="line"/>
      <point x="1402" y="-300" type="line"/>
      <point x="1018" y="-300" type="line"/>
      <point x="1097" y="0" type="line"/>
      <point x="1052" y="0" type="line"/>
    </contour>
    <contour>
      <point x="1376" y="1480" type="line"/>
      <point x="1376" y="0" type="line"/>
      <point x="996" y="0" type="line"/>
      <point x="996" y="1144" type="line"/>
      <point x="754" y="1144" type="line"/>
      <point x="683" y="520" type="line"/>
      <point x="648" y="121"/>
      <point x="403" y="-30"/>
      <point x="35" y="-30" type="curve"/>
      <point x="35" y="306" type="line"/>
      <point x="137" y="306"/>
      <point x="288" y="371"/>
      <point x="303" y="520" type="curve" smooth="yes"/>
      <point x="398" y="1480" type="line"/>
    </contour>
  </outline>
</glyph>
<glyph name="uni04C7" format="2">
  <advance width="1482"/>
  <unicode hex="04C7"/>
  <outline>
    <contour>
      <point x="1412" y="0" type="curve" smooth="yes"/>
      <point x="1412" y="1480" type="line"/>
      <point x="1032" y="1480" type="line"/>
      <point x="1032" y="908" type="line"/>
      <point x="450" y="908" type="line"/>
      <point x="450" y="1480" type="line"/>
      <point x="70" y="1480" type="line"/>
      <point x="70" y="0" type="line"/>
      <point x="450" y="0" type="line"/>
      <point x="450" y="572" type="line"/>
      <point x="1032" y="572" type="line"/>
      <point x="1032" y="0" type="line" smooth="yes"/>
      <point x="1032" y="-50"/>
      <point x="997" y="-84"/>
      <point x="947" y="-84" type="curve" smooth="yes"/>
      <point x="934" y="-84"/>
      <point x="922" y="-82"/>
      <point x="911" y="-77" type="curve"/>
      <point x="911" y="-403" type="line"/>
      <point x="923" y="-404"/>
      <point x="935" y="-404"/>
      <point x="947" y="-404" type="curve" smooth="yes"/>
      <point x="1197" y="-404"/>
      <point x="1412" y="-250"/>
    </contour>
  </outline>
</glyph>
<glyph name="uni04C8" format="2">
  <advance width="1195"/>
  <unicode hex="04C8"/>
  <outline>
    <contour>
      <point x="1125" y="0" type="curve" smooth="yes"/>
      <point x="1125" y="1040" type="line"/>
      <point x="765" y="1040" type="line"/>
      <point x="765" y="680" type="line"/>
      <point x="430" y="680" type="line"/>
      <point x="430" y="1040" type="line"/>
      <point x="70" y="1040" type="line"/>
      <point x="70" y="0" type="line"/>
      <point x="430" y="0" type="line"/>
      <point x="430" y="360" type="line"/>
      <point x="765" y="360" type="line"/>
      <point x="765" y="0" type="line" smooth="yes"/>
      <point x="765" y="-50"/>
      <point x="730" y="-84"/>
      <point x="680" y="-84" type="curve" smooth="yes"/>
      <point x="667" y="-84"/>
      <point x="655" y="-82"/>
      <point x="644" y="-77" type="curve"/>
      <point x="644" y="-403" type="line"/>
      <point x="656" y="-404"/>
      <point x="668" y="-404"/>
      <point x="680" y="-404" type="curve" smooth="yes"/>
      <point x="930" y="-404"/>
      <point x="1125" y="-250"/>
    </contour>
  </outline>
</glyph>
<glyph name="uni04C9" format="2">
  <advance width="1641"/>
  <unicode hex="04C9"/>
  <outline>
    <contour>
      <point x="1088" y="336" type="line"/>
      <point x="1606" y="336" type="line"/>
      <point x="1438" y="-300" type="line"/>
      <point x="1054" y="-300" type="line"/>
      <point x="1133" y="0" type="line"/>
      <point x="1088" y="0" type="line"/>
    </contour>
    <contour>
      <point x="70" y="1480" type="line"/>
      <point x="450" y="1480" type="line"/>
      <point x="450" y="908" type="line"/>
      <point x="1032" y="908" type="line"/>
      <point x="1032" y="1480" type="line"/>
      <point x="1412" y="1480" type="line"/>
      <point x="1412" y="0" type="line"/>
      <point x="1032" y="0" type="line"/>
      <point x="1032" y="572" type="line"/>
      <point x="450" y="572" type="line"/>
      <point x="450" y="0" type="line"/>
      <point x="70" y="0" type="line"/>
    </contour>
  </outline>
</glyph>
<glyph name="uni04CD" format="2">
  <advance width="1869"/>
  <unicode hex="04CD"/>
  <outline>
    <contour>
      <point x="1316" y="336" type="line"/>
      <point x="1834" y="336" type="line"/>
      <point x="1666" y="-300" type="line"/>
      <point x="1282" y="-300" type="line"/>
      <point x="1361" y="0" type="line"/>
      <point x="1316" y="0" type="line"/>
    </contour>
    <contour>
      <point x="849" y="720" type="line"/>
      <point x="1276" y="1480" type="line"/>
      <point x="1514" y="1188" type="line"/>
      <point x="938" y="160" type="line"/>
      <point x="760" y="160" type="line"/>
      <point x="187" y="1188" type="line"/>
      <point x="434" y="1480" type="line"/>
    </contour>
    <contour>
      <point x="1640" y="1480" type="line"/>
      <point x="1640" y="0" type="line"/>
      <point x="1260" y="0" type="line"/>
      <point x="1260" y="1322" type="line"/>
      <point x="1276" y="1480" type="line"/>
    </contour>
    <contour>
      <point x="70" y="1480" type="line"/>
      <point x="434" y="1480" type="line"/>
      <point x="450" y="1275" type="line"/>
      <point x="450" y="0" type="line"/>
      <point x="70" y="0" type="line"/>
    </contour>
  </outline>
</glyph>
<glyph name="uni04E9" format="2">
  <advance width="1200"/>
  <unicode hex="04E9"/>
  <anchor x="600" y="1040" name="top_center"/>
  <anchor x="600" y="0" name="bottom_center"/>
  <outline>
    <contour>
      <point x="118" y="650" type="line"/>
      <point x="1024" y="650" type="line"/>
      <point x="1024" y="390" type="line"/>
      <point x="118" y="390" type="line"/>
    </contour>
    <contour>
      <point x="410" y="520" type="curve" smooth="yes"/>
      <point x="410" y="390"/>
      <point x="463" y="290"/>
      <point x="600" y="290" type="curve" smooth="yes"/>
      <point x="737" y="290"/>
      <point x="790" y="383"/>
      <point x="790" y="520" type="curve" smooth="yes"/>
      <point x="790" y="657"/>
      <point x="737" y="750"/>
      <point x="600" y="750" type="curve" smooth="yes"/>
      <point x="463" y="750"/>
      <point x="410" y="657"/>
    </contour>
    <contour>
      <point x="50" y="520" type="curve" smooth="yes"/>
      <point x="50" y="840"/>
      <point x="280" y="1070"/>
      <point x="600" y="1070" type="curve" smooth="yes"/>
      <point x="920" y="1070"/>
      <point x="1150" y="840"/>
      <point x="1150" y="520" type="curve" smooth="yes"/>
      <point x="1150" y="200"/>
      <point x="920" y="-30"/>
      <point x="600" y="-30" type="curve" smooth="yes"/>
      <point x="280" y="-30"/>
      <point x="50" y="200"/>
    </contour>
  </outline>
</glyph>
<glyph name="uni04F7" format="2">
  <advance width="979"/>
  <unicode hex="04F7"/>
  <outline>
    <contour>
      <point x="160" y="320" type="line"/>
      <point x="610" y="320" type="line"/>
      <point x="610" y="-300" type="line"/>
      <point x="250" y="-300" type="line"/>
      <point x="250" y="0" type="line"/>
      <point x="160" y="0" type="line"/>
    </contour>
    <contour>
      <point x="70" y="0" type="line"/>
      <point x="70" y="1040" type="line"/>
      <point x="909" y="1040" type="line"/>
      <point x="909" y="720" type="line"/>
      <point x="430" y="720" type="line"/>
      <point x="430" y="0" type="line"/>
    </contour>
  </outline>
</glyph>
<glyph name="uni0501" format="2">
  <advance width="1140"/>
  <unicode hex="0501"/>
  <outline>
    <contour>
      <point x="476" y="679" type="line"/>
      <point x="182" y="679"/>
      <point x="50" y="534"/>
      <point x="50" y="340" type="curve" smooth="yes"/>
      <point x="50" y="126"/>
      <point x="182" y="0"/>
      <point x="476" y="0" type="curve"/>
      <point x="1070" y="0" type="line"/>
      <point x="1070" y="1040" type="line"/>
      <point x="710" y="1040" type="line"/>
      <point x="710" y="679" type="line"/>
    </contour>
    <contour>
      <point x="476" y="378" type="curve"/>
      <point x="710" y="378" type="line"/>
      <point x="710" y="318" type="line"/>
      <point x="476" y="318" type="line"/>
      <point x="430" y="318"/>
      <point x="410" y="326"/>
      <point x="410" y="348" type="curve" smooth="yes"/>
      <point x="410" y="370"/>
      <point x="430" y="378"/>
    </contour>
  </outline>
</glyph>
<glyph name="uni0503" format="2">
  <advance width="1760"/>
  <unicode hex="0503"/>
  <outline>
    <contour>
      <point x="820" y="510" type="curve" smooth="yes"/>
      <point x="820" y="640"/>
      <point x="757" y="750"/>
      <point x="620" y="750" type="curve" smooth="yes"/>
      <point x="483" y="750"/>
      <point x="410" y="650"/>
      <point x="410" y="520" type="curve" smooth="yes"/>
      <point x="410" y="390"/>
      <point x="483" y="290"/>
      <point x="620" y="290" type="curve" smooth="yes"/>
      <point x="751" y="290"/>
      <point x="820" y="380"/>
    </contour>
    <contour>
      <point x="889" y="165" type="curve"/>
      <point x="869" y="85"/>
      <point x="725" y="-30"/>
      <point x="555" y="-30" type="curve" smooth="yes"/>
      <point x="235" y="-30"/>
      <point x="50" y="200"/>
      <point x="50" y="520" type="curve" smooth="yes"/>
      <point x="50" y="840"/>
      <point x="235" y="1070"/>
      <point x="555" y="1070" type="curve" smooth="yes"/>
      <point x="705" y="1070"/>
      <point x="810" y="959"/>
      <point x="820" y="920" type="curve"/>
      <point x="820" y="1480" type="line"/>
      <point x="1180" y="1480" type="line"/>
      <point x="1180" y="344" type="line"/>
      <point x="1180" y="308"/>
      <point x="1199" y="290"/>
      <point x="1255" y="290" type="curve" smooth="yes"/>
      <point x="1311" y="290"/>
      <point x="1330" y="308"/>
      <point x="1330" y="344" type="curve" smooth="yes"/>
      <point x="1330" y="740" type="line"/>
      <point x="1690" y="740" type="line"/>
      <point x="1690" y="344" type="line"/>
      <point x="1690" y="76"/>
      <point x="1518" y="-30"/>
      <point x="1255" y="-30" type="curve" smooth="yes"/>
      <point x="1071" y="-30"/>
      <point x="956" y="42"/>
    </contour>
  </outline>
</glyph>
<glyph name="uni0508" format="2">
  <advance width="2158"/>
  <unicode hex="0508"/>
  <outline>
    <contour>
      <point x="1376" y="468" type="curve"/>
      <point x="1376" y="1480" type="line"/>
      <point x="398" y="1480" type="line"/>
      <point x="303" y="520" type="line" smooth="yes"/>
      <point x="288" y="371"/>
      <point x="137" y="306"/>
      <point x="35" y="306" type="curve"/>
      <point x="35" y="-30" type="line"/>
      <point x="403" y="-30"/>
      <point x="648" y="121"/>
      <point x="683" y="520" type="curve"/>
      <point x="754" y="1144" type="line"/>
      <point x="996" y="1144" type="line"/>
      <point x="996" y="468" type="line"/>
      <point x="996" y="148"/>
      <point x="1222" y="-30"/>
      <point x="1542" y="-30" type="curve" smooth="yes"/>
      <point x="1862" y="-30"/>
      <point x="2088" y="148"/>
      <point x="2088" y="468" type="curve"/>
      <point x="2088" y="1041" type="line"/>
      <point x="1708" y="1041" type="line"/>
      <point x="1708" y="468" type="line" smooth="yes"/>
      <point x="1708" y="358"/>
      <point x="1672" y="306"/>
      <point x="1542" y="306" type="curve" smooth="yes"/>
      <point x="1412" y="306"/>
      <point x="1376" y="358"/>
    </contour>
  </outline>
</glyph>
<glyph name="uni0509" format="2">
  <advance width="1683"/>
  <unicode hex="0509"/>
  <outline>
    <contour>
      <point x="1103" y="344" type="curve"/>
      <point x="1103" y="1040" type="line"/>
      <point x="301" y="1040" type="line"/>
      <point x="230" y="420" type="line" smooth="yes"/>
      <point x="219" y="326"/>
      <point x="147" y="290"/>
      <point x="35" y="290" type="curve"/>
      <point x="35" y="-30" type="line"/>
      <point x="404" y="-30"/>
      <point x="555" y="128"/>
      <point x="583" y="420" type="curve" smooth="yes"/>
      <point x="611" y="720" type="line"/>
      <point x="743" y="720" type="line"/>
      <point x="743" y="344" type="line"/>
      <point x="743" y="76"/>
      <point x="915" y="-30"/>
      <point x="1178" y="-30" type="curve" smooth="yes"/>
      <point x="1441" y="-30"/>
      <point x="1613" y="76"/>
      <point x="1613" y="344" type="curve"/>
      <point x="1613" y="740" type="line"/>
      <point x="1253" y="740" type="line"/>
      <point x="1253" y="344" type="line" smooth="yes"/>
      <point x="1253" y="308"/>
      <point x="1234" y="290"/>
      <point x="1178" y="290" type="curve" smooth="yes"/>
      <point x="1122" y="290"/>
      <point x="1103" y="308"/>
    </contour>
  </outline>
</glyph>
<glyph name="uni050B" format="2">
  <advance width="1705"/>
  <unicode hex="050B"/>
  <outline>
    <contour>
      <point x="1125" y="344" type="curve"/>
      <point x="1125" y="1040" type="line"/>
      <point x="765" y="1040" type="line"/>
      <point x="765" y="680" type="line"/>
      <point x="430" y="680" type="line"/>
      <point x="430" y="1040" type="line"/>
      <point x="70" y="1040" type="line"/>
      <point x="70" y="0" type="line"/>
      <point x="430" y="0" type="line"/>
      <point x="430" y="360" type="line"/>
      <point x="765" y="360" type="line"/>
      <point x="765" y="344" type="line" smooth="yes"/>
      <point x="765" y="76"/>
      <point x="937" y="-30"/>
      <point x="1200" y="-30" type="curve" smooth="yes"/>
      <point x="1463" y="-30"/>
      <point x="1635" y="76"/>
      <point x="1635" y="344" type="curve"/>
      <point x="1635" y="740" type="line"/>
      <point x="1275" y="740" type="line"/>
      <point x="1275" y="344" type="line" smooth="yes"/>
      <point x="1275" y="308"/>
      <point x="1256" y="290"/>
      <point x="1200" y="290" type="curve" smooth="yes"/>
      <point x="1144" y="290"/>
      <point x="1125" y="308"/>
    </contour>
  </outline>
</glyph>
<glyph name="uni050E" format="2">
  <advance width="1713"/>
  <unicode hex="050E"/>
  <outline>
    <contour>
      <point x="931" y="468" type="line"/>
      <point x="931" y="358"/>
      <point x="967" y="306"/>
      <point x="1097" y="306" type="curve" smooth="yes"/>
      <point x="1227" y="306"/>
      <point x="1263" y="358"/>
      <point x="1263" y="468" type="curve" smooth="yes"/>
      <point x="1263" y="1041" type="line"/>
      <point x="1643" y="1041" type="line"/>
      <point x="1643" y="468" type="line"/>
      <point x="1643" y="148"/>
      <point x="1417" y="-30"/>
      <point x="1097" y="-30" type="curve" smooth="yes"/>
      <point x="777" y="-30"/>
      <point x="551" y="148"/>
      <point x="551" y="468" type="curve"/>
      <point x="551" y="1144" type="line"/>
      <point x="70" y="1144" type="line"/>
      <point x="70" y="1480" type="line"/>
      <point x="1412" y="1480" type="line"/>
      <point x="1412" y="1144" type="line"/>
      <point x="931" y="1144" type="line"/>
    </contour>
  </outline>
</glyph>
<glyph name="uni0512" format="2">
  <advance width="1446"/>
  <unicode hex="0512"/>
  <outline>
    <contour>
      <point x="398" y="1480" type="line"/>
      <point x="303" y="520" type="line" smooth="yes"/>
      <point x="288" y="371"/>
      <point x="137" y="306"/>
      <point x="35" y="306" type="curve"/>
      <point x="35" y="-30" type="line"/>
      <point x="403" y="-30"/>
      <point x="648" y="121"/>
      <point x="683" y="520" type="curve"/>
      <point x="754" y="1144" type="line"/>
      <point x="996" y="1144" type="line"/>
      <point x="996" y="0" type="line" smooth="yes"/>
      <point x="996" y="-50"/>
      <point x="961" y="-84"/>
      <point x="911" y="-84" type="curve" smooth="yes"/>
      <point x="898" y="-84"/>
      <point x="886" y="-82"/>
      <point x="875" y="-77" type="curve"/>
      <point x="875" y="-403" type="line"/>
      <point x="887" y="-404"/>
      <point x="899" y="-404"/>
      <point x="911" y="-404" type="curve" smooth="yes"/>
      <point x="1161" y="-404"/>
      <point x="1376" y="-250"/>
      <point x="1376" y="0" type="curve" smooth="yes"/>
      <point x="1376" y="1480" type="line"/>
    </contour>
  </outline>
</glyph>
<glyph name="uni0513" format="2">
  <advance width="1173"/>
  <unicode hex="0513"/>
  <outline>
    <contour>
      <point x="301" y="1040" type="line"/>
      <point x="230" y="420" type="line" smooth="yes"/>
      <point x="219" y="326"/>
      <point x="147" y="290"/>
      <point x="35" y="290" type="curve"/>
      <point x="35" y="-30" type="line"/>
      <point x="404" y="-30"/>
      <point x="555" y="128"/>
      <point x="583" y="420" type="curve" smooth="yes"/>
      <point x="611" y="720" type="line"/>
      <point x="743" y="720" type="line"/>
      <point x="743" y="0" type="line" smooth="yes"/>
      <point x="743" y="-50"/>
      <point x="708" y="-84"/>
      <point x="658" y="-84" type="curve" smooth="yes"/>
      <point x="645" y="-84"/>
      <point x="633" y="-82"/>
      <point x="622" y="-77" type="curve"/>
      <point x="622" y="-403" type="line"/>
      <point x="634" y="-404"/>
      <point x="646" y="-404"/>
      <point x="658" y="-404" type="curve" smooth="yes"/>
      <point x="908" y="-404"/>
      <point x="1103" y="-250"/>
      <point x="1103" y="0" type="curve" smooth="yes"/>
      <point x="1103" y="1040" type="line"/>
    </contour>
  </outline>
</glyph>
<glyph name="uni0514" format="2">
  <advance width="2485"/>
  <unicode hex="0514"/>
  <outline>
    <contour>
      <point x="1476" y="1144" type="line"/>
      <point x="754" y="1144" type="line"/>
      <point x="683" y="520" type="line"/>
      <point x="648" y="121"/>
      <point x="403" y="-30"/>
      <point x="35" y="-30" type="curve"/>
      <point x="35" y="306" type="line"/>
      <point x="137" y="306"/>
      <point x="288" y="371"/>
      <point x="303" y="520" type="curve" smooth="yes"/>
      <point x="398" y="1480" type="line"/>
      <point x="652" y="1480" type="line"/>
      <point x="1122" y="1480" type="line"/>
      <point x="1376" y="1480" type="line"/>
    </contour>
    <contour>
      <point x="1697" y="487" type="line"/>
      <point x="1376" y="0" type="line"/>
      <point x="948" y="0" type="line"/>
      <point x="1475" y="740" type="line"/>
      <point x="1086" y="1287" type="line"/>
      <point x="1376" y="1480" type="line"/>
      <point x="1699" y="988" type="line"/>
      <point x="2022" y="1480" type="line"/>
      <point x="2450" y="1480" type="line"/>
      <point x="1923" y="740" type="line"/>
      <point x="2450" y="0" type="line"/>
      <point x="2022" y="0" type="line"/>
    </contour>
  </outline>
</glyph>
<glyph name="uni0515" format="2">
  <advance width="1863"/>
  <unicode hex="0515"/>
  <outline>
    <contour>
      <point x="1000" y="520" type="line"/>
      <point x="780" y="885" type="line"/>
      <point x="1103" y="1040" type="line"/>
      <point x="1257" y="743" type="line"/>
      <point x="1408" y="1040" type="line"/>
      <point x="1828" y="1040" type="line"/>
      <point x="1514" y="520" type="line"/>
      <point x="1828" y="0" type="line"/>
      <point x="1408" y="0" type="line"/>
      <point x="1255" y="300" type="line"/>
      <point x="1106" y="0" type="line"/>
      <point x="686" y="0" type="line"/>
    </contour>
    <contour>
      <point x="1203" y="720" type="line"/>
      <point x="611" y="720" type="line"/>
      <point x="583" y="420" type="line" smooth="yes"/>
      <point x="555" y="128"/>
      <point x="404" y="-30"/>
      <point x="35" y="-30" type="curve"/>
      <point x="35" y="290" type="line"/>
      <point x="147" y="290"/>
      <point x="219" y="326"/>
      <point x="230" y="420" type="curve" smooth="yes"/>
      <point x="301" y="1040" type="line"/>
      <point x="1103" y="1040" type="line"/>
    </contour>
  </outline>
</glyph>
<glyph name="uni0516" format="2">
  <advance width="1764"/>
  <unicode hex="0516"/>
  <outline>
    <contour>
      <point x="450" y="1144" type="line"/>
      <point x="450" y="824" type="line"/>
      <point x="637" y="824" type="line"/>
      <point x="757" y="824"/>
      <point x="828" y="874"/>
      <point x="828" y="984" type="curve" smooth="yes"/>
      <point x="828" y="1094"/>
      <point x="757" y="1144"/>
      <point x="637" y="1144" type="curve"/>
    </contour>
    <contour>
      <point x="70" y="0" type="line"/>
      <point x="70" y="1480" type="line"/>
      <point x="637" y="1480" type="line"/>
      <point x="1023" y="1480"/>
      <point x="1208" y="1239"/>
      <point x="1208" y="984" type="curve" smooth="yes"/>
      <point x="1208" y="729"/>
      <point x="1023" y="488"/>
      <point x="637" y="488" type="curve"/>
      <point x="450" y="488" type="line"/>
      <point x="450" y="0" type="line"/>
    </contour>
    <contour>
      <point x="828" y="740" type="line"/>
      <point x="1301" y="1480" type="line"/>
      <point x="1729" y="1480" type="line"/>
      <point x="1252" y="740" type="line"/>
      <point x="1729" y="0" type="line"/>
      <point x="1301" y="0" type="line"/>
    </contour>
  </outline>
</glyph>
<glyph name="uni051F" format="2">
  <advance width="1163"/>
  <unicode hex="051F"/>
  <outline>
    <contour>
      <point x="370" y="992" type="line"/>
      <point x="540" y="1162" type="line"/>
      <point x="1015" y="687" type="line"/>
      <point x="845" y="517" type="line"/>
    </contour>
    <contour>
      <point x="285" y="643" type="line"/>
      <point x="682" y="660" type="line"/>
      <point x="1158" y="0" type="line"/>
      <point x="738" y="0" type="line"/>
    </contour>
    <contour>
      <point x="430" y="344" type="line"/>
      <point x="430" y="0" type="line"/>
      <point x="70" y="0" type="line"/>
      <point x="70" y="1040" type="line"/>
      <point x="430" y="1040" type="line"/>
      <point x="430" y="808" type="line"/>
      <point x="662" y="1040" type="line"/>
      <point x="734" y="1040"/>
      <point x="1054" y="1040"/>
      <point x="1126" y="1040" type="curve"/>
    </contour>
  </outline>
</glyph>
<glyph name="uni0520" format="2">
  <advance width="2448"/>
  <unicode hex="0520"/>
  <outline>
    <contour>
      <point x="1638" y="714" type="curve" smooth="yes"/>
      <point x="1508" y="714"/>
      <point x="1376" y="662"/>
      <point x="1376" y="552" type="curve"/>
      <point x="1364" y="900" type="line"/>
      <point x="1399" y="961"/>
      <point x="1488" y="1050"/>
      <point x="1638" y="1050" type="curve" smooth="yes"/>
      <point x="2098" y="1050"/>
      <point x="2398" y="730"/>
      <point x="2398" y="280" type="curve" smooth="yes"/>
      <point x="2398" y="-170"/>
      <point x="2098" y="-460"/>
      <point x="1638" y="-460" type="curve"/>
      <point x="1638" y="-154" type="line"/>
      <point x="1888" y="-154"/>
      <point x="2018" y="30"/>
      <point x="2018" y="280" type="curve" smooth="yes"/>
      <point x="2018" y="530"/>
      <point x="1888" y="714"/>
    </contour>
    <contour>
      <point x="35" y="306" type="line"/>
      <point x="137" y="306"/>
      <point x="288" y="371"/>
      <point x="303" y="520" type="curve" smooth="yes"/>
      <point x="398" y="1480" type="line"/>
      <point x="1376" y="1480" type="line"/>
      <point x="1376" y="0" type="line"/>
      <point x="996" y="0" type="line"/>
      <point x="996" y="1144" type="line"/>
      <point x="754" y="1144" type="line"/>
      <point x="683" y="520" type="line"/>
      <point x="648" y="121"/>
      <point x="403" y="-30"/>
      <point x="35" y="-30" type="curve"/>
    </contour>
  </outline>
</glyph>
<glyph name="uni0521" format="2">
  <advance width="1882"/>
  <unicode hex="0521"/>
  <outline>
    <contour>
      <point x="1282" y="320" type="curve" smooth="yes"/>
      <point x="1180" y="320"/>
      <point x="1126" y="268"/>
      <point x="1103" y="186" type="curve"/>
      <point x="878" y="476" type="line"/>
      <point x="976" y="579"/>
      <point x="1117" y="640"/>
      <point x="1282" y="640" type="curve" smooth="yes"/>
      <point x="1602" y="640"/>
      <point x="1832" y="410"/>
      <point x="1832" y="90" type="curve" smooth="yes"/>
      <point x="1832" y="-230"/>
      <point x="1602" y="-460"/>
      <point x="1282" y="-460" type="curve"/>
      <point x="1282" y="-140" type="line"/>
      <point x="1419" y="-140"/>
      <point x="1472" y="-47"/>
      <point x="1472" y="90" type="curve" smooth="yes"/>
      <point x="1472" y="227"/>
      <point x="1419" y="320"/>
    </contour>
    <contour>
      <point x="1103" y="1040" type="line"/>
      <point x="1103" y="0" type="line"/>
      <point x="743" y="0" type="line"/>
      <point x="743" y="720" type="line"/>
      <point x="611" y="720" type="line"/>
      <point x="583" y="420" type="line" smooth="yes"/>
      <point x="555" y="128"/>
      <point x="404" y="-30"/>
      <point x="35" y="-30" type="curve"/>
      <point x="35" y="290" type="line"/>
      <point x="147" y="290"/>
      <point x="219" y="326"/>
      <point x="230" y="420" type="curve" smooth="yes"/>
      <point x="301" y="1040" type="line"/>
    </contour>
  </outline>
</glyph>
<glyph name="uni0528" format="2">
  <advance width="1533"/>
  <unicode hex="0528"/>
  <outline>
    <contour>
      <point x="1083" y="0" type="line"/>
      <point x="1083" y="572" type="line"/>
      <point x="501" y="572" type="line"/>
      <point x="501" y="0" type="line" smooth="yes"/>
      <point x="501" y="-250"/>
      <point x="286" y="-404"/>
      <point x="36" y="-404" type="curve" smooth="yes"/>
      <point x="24" y="-404"/>
      <point x="12" y="-404"/>
      <point x="0" y="-403" type="curve"/>
      <point x="0" y="-77" type="line"/>
      <point x="11" y="-82"/>
      <point x="23" y="-84"/>
      <point x="36" y="-84" type="curve" smooth="yes"/>
      <point x="86" y="-84"/>
      <point x="121" y="-50"/>
      <point x="121" y="0" type="curve" smooth="yes"/>
      <point x="121" y="1480" type="line"/>
      <point x="501" y="1480" type="line"/>
      <point x="501" y="908" type="line"/>
      <point x="1083" y="908" type="line"/>
      <point x="1083" y="1480" type="line"/>
      <point x="1463" y="1480" type="line"/>
      <point x="1463" y="0" type="line"/>
    </contour>
  </outline>
</glyph>
<glyph name="uni0529" format="2">
  <advance width="1246"/>
  <unicode hex="0529"/>
  <outline>
    <contour>
      <point x="816" y="0" type="line"/>
      <point x="816" y="360" type="line"/>
      <point x="481" y="360" type="line"/>
      <point x="481" y="0" type="line" smooth="yes"/>
      <point x="481" y="-250"/>
      <point x="286" y="-404"/>
      <point x="36" y="-404" type="curve" smooth="yes"/>
      <point x="24" y="-404"/>
      <point x="12" y="-404"/>
      <point x="0" y="-403" type="curve"/>
      <point x="0" y="-77" type="line"/>
      <point x="11" y="-82"/>
      <point x="23" y="-84"/>
      <point x="36" y="-84" type="curve" smooth="yes"/>
      <point x="86" y="-84"/>
      <point x="121" y="-50"/>
      <point x="121" y="0" type="curve" smooth="yes"/>
      <point x="121" y="1040" type="line"/>
      <point x="481" y="1040" type="line"/>
      <point x="481" y="680" type="line"/>
      <point x="816" y="680" type="line"/>
      <point x="816" y="1040" type="line"/>
      <point x="1176" y="1040" type="line"/>
      <point x="1176" y="0" type="line"/>
    </contour>
  </outline>
</glyph>
<glyph name="uni052A" format="2">
  <advance width="3203"/>
  <unicode hex="052A"/>
  <outline>
    <contour>
      <point x="35" y="-300" type="line"/>
      <point x="35" y="336" type="line"/>
      <point x="415" y="336" type="line"/>
      <point x="415" y="-300" type="line"/>
    </contour>
    <contour>
      <point x="1240" y="-300" type="line"/>
      <point x="1240" y="336" type="line"/>
      <point x="1620" y="336" type="line"/>
      <point x="1620" y="-300" type="line"/>
    </contour>
    <contour>
      <point x="255" y="336" type="line"/>
      <point x="1240" y="336" type="line"/>
      <point x="1240" y="0" type="line"/>
      <point x="255" y="0" type="line"/>
    </contour>
    <contour>
      <point x="1430" y="1480" type="line"/>
      <point x="1430" y="0" type="line"/>
      <point x="1050" y="0" type="line"/>
      <point x="1050" y="1144" type="line"/>
      <point x="808" y="1144" type="line"/>
      <point x="737" y="550" type="line"/>
      <point x="702" y="151"/>
      <point x="457" y="0"/>
      <point x="89" y="0" type="curve"/>
      <point x="89" y="336" type="line"/>
      <point x="191" y="336"/>
      <point x="342" y="401"/>
      <point x="357" y="550" type="curve" smooth="yes"/>
      <point x="452" y="1480" type="line"/>
    </contour>
    <contour>
      <point x="1301" y="908" type="line"/>
      <point x="1894" y="908" type="line"/>
      <point x="1894" y="572" type="line"/>
      <point x="1301" y="572" type="line"/>
    </contour>
    <contour>
      <point x="2193" y="801" type="line"/>
      <point x="2532" y="925" type="line"/>
      <point x="3198" y="0" type="line"/>
      <point x="2758" y="0" type="line"/>
    </contour>
    <contour>
      <point x="2190" y="450" type="line"/>
      <point x="2190" y="0" type="line"/>
      <point x="1810" y="0" type="line"/>
      <point x="1810" y="1480" type="line"/>
      <point x="2190" y="1480" type="line"/>
      <point x="2190" y="940" type="line"/>
      <point x="2718" y="1480" type="line"/>
      <point x="2790" y="1480"/>
      <point x="3126" y="1480"/>
      <point x="3198" y="1480" type="curve"/>
    </contour>
  </outline>
</glyph>
<glyph name="uni052B" format="2">
  <advance width="2566"/>
  <unicode hex="052B"/>
  <outline>
    <contour>
      <point x="35" y="-300" type="line"/>
      <point x="35" y="320" type="line"/>
      <point x="395" y="320" type="line"/>
      <point x="395" y="-300" type="line"/>
    </contour>
    <contour>
      <point x="276" y="320" type="line"/>
      <point x="1083" y="320" type="line"/>
      <point x="1083" y="0" type="line"/>
      <point x="276" y="0" type="line"/>
    </contour>
    <contour>
      <point x="903" y="-300" type="line"/>
      <point x="903" y="320" type="line"/>
      <point x="1263" y="320" type="line"/>
      <point x="1263" y="-300" type="line"/>
    </contour>
    <contour>
      <point x="1133" y="1040" type="line"/>
      <point x="1133" y="0" type="line"/>
      <point x="773" y="0" type="line"/>
      <point x="773" y="720" type="line"/>
      <point x="641" y="720" type="line"/>
      <point x="613" y="450" type="line" smooth="yes"/>
      <point x="585" y="158"/>
      <point x="434" y="0"/>
      <point x="65" y="0" type="curve"/>
      <point x="65" y="320" type="line"/>
      <point x="177" y="320"/>
      <point x="249" y="356"/>
      <point x="260" y="450" type="curve" smooth="yes"/>
      <point x="331" y="1040" type="line"/>
    </contour>
    <contour>
      <point x="917" y="680" type="line"/>
      <point x="1533" y="680" type="line"/>
      <point x="1533" y="360" type="line"/>
      <point x="917" y="360" type="line"/>
    </contour>
    <contour>
      <point x="1658" y="643" type="line"/>
      <point x="2055" y="660" type="line"/>
      <point x="2531" y="0" type="line"/>
      <point x="2111" y="0" type="line"/>
    </contour>
    <contour>
      <point x="1803" y="344" type="line"/>
      <point x="1803" y="0" type="line"/>
      <point x="1443" y="0" type="line"/>
      <point x="1443" y="1040" type="line"/>
      <point x="1803" y="1040" type="line"/>
      <point x="1803" y="808" type="line"/>
      <point x="2035" y="1040" type="line"/>
      <point x="2107" y="1040"/>
      <point x="2427" y="1040"/>
      <point x="2499" y="1040" type="curve"/>
    </contour>
  </outline>
</glyph>
<glyph name="uni052E" format="2">
  <advance width="1601"/>
  <unicode hex="052E"/>
  <outline>
    <contour>
      <point x="1096" y="336" type="line"/>
      <point x="1566" y="336" type="line"/>
      <point x="1566" y="-300" type="line"/>
      <point x="1186" y="-300" type="line"/>
      <point x="1186" y="0" type="line"/>
      <point x="1096" y="0" type="line"/>
    </contour>
    <contour>
      <point x="1376" y="1480" type="line"/>
      <point x="1376" y="0" type="line"/>
      <point x="996" y="0" type="line"/>
      <point x="996" y="1144" type="line"/>
      <point x="754" y="1144" type="line"/>
      <point x="683" y="520" type="line"/>
      <point x="648" y="121"/>
      <point x="403" y="-30"/>
      <point x="35" y="-30" type="curve"/>
      <point x="35" y="306" type="line"/>
      <point x="137" y="306"/>
      <point x="288" y="371"/>
      <point x="303" y="520" type="curve" smooth="yes"/>
      <point x="398" y="1480" type="line"/>
    </contour>
  </outline>
</glyph>
<glyph name="uni052F" format="2">
  <advance width="1318"/>
  <unicode hex="052F"/>
  <outline>
    <contour>
      <point x="833" y="320" type="line"/>
      <point x="1283" y="320" type="line"/>
      <point x="1283" y="-300" type="line"/>
      <point x="923" y="-300" type="line"/>
      <point x="923" y="0" type="line"/>
      <point x="833" y="0" type="line"/>
    </contour>
    <contour>
      <point x="1103" y="1040" type="line"/>
      <point x="1103" y="0" type="line"/>
      <point x="743" y="0" type="line"/>
      <point x="743" y="720" type="line"/>
      <point x="611" y="720" type="line"/>
      <point x="583" y="420" type="line" smooth="yes"/>
      <point x="555" y="128"/>
      <point x="404" y="-30"/>
      <point x="35" y="-30" type="curve"/>
      <point x="35" y="290" type="line"/>
      <point x="147" y="290"/>
      <point x="219" y="326"/>
      <point x="230" y="420" type="curve" smooth="yes"/>
      <point x="301" y="1040" type="line"/>
    </contour>
  </outline>
</glyph>
<glyph name="uni1D53" format="2">
  <advance width="744"/>
  <unicode hex="1D53"/>
  <outline>
    <contour>
      <point x="353" y="1030" type="curve" smooth="yes"/>
      <point x="403" y="1030"/>
      <point x="424" y="1061"/>
      <point x="424" y="1111" type="curve" smooth="yes"/>
      <point x="424" y="1161"/>
      <point x="403" y="1191"/>
      <point x="353" y="1191" type="curve" smooth="yes"/>
      <point x="314" y="1191"/>
      <point x="292" y="1172"/>
      <point x="285" y="1139" type="curve"/>
      <point x="50" y="1272" type="line"/>
      <point x="106" y="1373"/>
      <point x="215" y="1431"/>
      <point x="353" y="1431" type="curve" smooth="yes"/>
      <point x="553" y="1431"/>
      <point x="694" y="1311"/>
      <point x="694" y="1111" type="curve" smooth="yes"/>
      <point x="694" y="911"/>
      <point x="553" y="790"/>
      <point x="353" y="790" type="curve" smooth="yes"/>
      <point x="215" y="790"/>
      <point x="106" y="848"/>
      <point x="50" y="949" type="curve"/>
      <point x="285" y="1082" type="line"/>
      <point x="292" y="1049"/>
      <point x="314" y="1030"/>
    </contour>
  </outline>
</glyph>
<glyph name="uni1E9C" format="2">
  <advance width="991"/>
  <unicode hex="1E9C"/>
  <outline>
    <contour>
      <point x="840" y="1044" type="line"/>
      <point x="840" y="755" type="line"/>
      <point x="0" y="271" type="line"/>
      <point x="0" y="560" type="line"/>
    </contour>
    <contour>
      <point x="570" y="690" type="line"/>
      <point x="570" y="0" type="line"/>
      <point x="210" y="0" type="line"/>
      <point x="210" y="680" type="line"/>
      <point x="210" y="1040" type="line"/>
      <point x="210" y="1320"/>
      <point x="344" y="1510"/>
      <point x="704" y="1510" type="curve" smooth="yes"/>
      <point x="825" y="1510"/>
      <point x="910" y="1482"/>
      <point x="966" y="1458" type="curve"/>
      <point x="875" y="1135" type="line"/>
      <point x="843" y="1167"/>
      <point x="768" y="1190"/>
      <point x="708" y="1190" type="curve" smooth="yes"/>
      <point x="618" y="1190"/>
      <point x="570" y="1150"/>
      <point x="570" y="1050" type="curve"/>
    </contour>
  </outline>
</glyph>
<glyph name="uni1EFB" format="2">
  <advance width="1395"/>
  <unicode hex="1EFB"/>
  <outline>
    <contour>
      <point x="1370" y="1080" type="line"/>
      <point x="0" y="1080" type="line"/>
      <point x="0" y="1126"/>
      <point x="0" y="1274"/>
      <point x="0" y="1320" type="curve"/>
      <point x="1370" y="1320" type="line"/>
    </contour>
    <contour>
      <point x="1290" y="306" type="curve"/>
      <point x="1390" y="14" type="line"/>
      <point x="1364" y="1"/>
      <point x="1316" y="-30"/>
      <point x="1228" y="-30" type="curve" smooth="yes"/>
      <point x="1044" y="-30"/>
      <point x="800" y="62"/>
      <point x="800" y="362" type="curve" smooth="yes"/>
      <point x="800" y="440" type="line"/>
      <point x="800" y="578" type="line"/>
      <point x="800" y="1480" type="line"/>
      <point x="1160" y="1480" type="line"/>
      <point x="1160" y="578" type="line"/>
      <point x="1160" y="440" type="line"/>
      <point x="1160" y="362" type="line" smooth="yes"/>
      <point x="1160" y="312"/>
      <point x="1176" y="290"/>
      <point x="1228" y="290" type="curve" smooth="yes"/>
      <point x="1247" y="290"/>
      <point x="1277" y="297"/>
    </contour>
    <contour>
      <point x="700" y="306" type="curve"/>
      <point x="800" y="14" type="line"/>
      <point x="774" y="1"/>
      <point x="726" y="-30"/>
      <point x="638" y="-30" type="curve" smooth="yes"/>
      <point x="454" y="-30"/>
      <point x="210" y="62"/>
      <point x="210" y="362" type="curve" smooth="yes"/>
      <point x="210" y="440" type="line"/>
      <point x="210" y="578" type="line"/>
      <point x="210" y="1480" type="line"/>
      <point x="570" y="1480" type="line"/>
      <point x="570" y="578" type="line"/>
      <point x="570" y="440" type="line"/>
      <point x="570" y="362" type="line" smooth="yes"/>
      <point x="570" y="312"/>
      <point x="586" y="290"/>
      <point x="638" y="290" type="curve" smooth="yes"/>
      <point x="657" y="290"/>
      <point x="687" y="297"/>
    </contour>
  </outline>
</glyph>
<glyph name="uni1FDF" format="2">
  <advance width="818"/>
  <unicode hex="1FDF"/>
  <anchor x="409" y="1761" name="mkmk_greek_top_center"/>
  <anchor x="409" y="1040" name="_greek_k"/>
  <note>A comma accent and a tilde accent</note>
  <outline>
    <contour>
      <point x="572" y="1443" type="curve" smooth="yes"/>
      <point x="572" y="1510"/>
      <point x="519" y="1563"/>
      <point x="452" y="1563" type="curve" smooth="yes"/>
      <point x="385" y="1563"/>
      <point x="332" y="1510"/>
      <point x="332" y="1443" type="curve" smooth="yes"/>
      <point x="332" y="1376"/>
      <point x="385" y="1323"/>
      <point x="452" y="1323" type="curve" smooth="yes"/>
      <point x="519" y="1323"/>
      <point x="572" y="1376"/>
    </contour>
    <contour>
      <point x="563" y="1246" type="line"/>
      <point x="486" y="1258"/>
      <point x="427" y="1307"/>
      <point x="427" y="1360" type="curve" smooth="yes"/>
      <point x="427" y="1386"/>
      <point x="451" y="1443"/>
      <point x="451" y="1443" type="curve"/>
      <point x="452" y="1563" type="line"/>
      <point x="384" y="1563"/>
      <point x="293" y="1520"/>
      <point x="293" y="1360" type="curve" smooth="yes"/>
      <point x="293" y="1233"/>
      <point x="432" y="1135"/>
      <point x="527" y="1118" type="curve"/>
    </contour>
    <contour>
      <point x="259" y="1589" type="curve"/>
      <point x="50" y="1645" type="line"/>
      <point x="67" y="1762"/>
      <point x="160" y="1884"/>
      <point x="316" y="1884" type="curve" smooth="yes"/>
      <point x="406" y="1884"/>
      <point x="460" y="1821"/>
      <point x="502" y="1821" type="curve" smooth="yes"/>
      <point x="547" y="1821"/>
      <point x="559" y="1863"/>
      <point x="559" y="1884" type="curve"/>
      <point x="768" y="1828" type="line"/>
      <point x="751" y="1711"/>
      <point x="658" y="1589"/>
      <point x="502" y="1589" type="curve" smooth="yes"/>
      <point x="412" y="1589"/>
      <point x="358" y="1652"/>
      <point x="316" y="1652" type="curve" smooth="yes"/>
      <point x="265" y="1652"/>
      <point x="259" y="1610"/>
    </contour>
  </outline>
</glyph>
<glyph name="uni1FEF" format="2">
  <advance width="682"/>
  <unicode hex="1FEF"/>
  <anchor x="444" y="1376" name="mkmk_greek_top_center"/>
  <anchor x="444" y="1040" name="_greek_v"/>
  <outline>
    <contour>
      <point x="276" y="1224" type="line"/>
      <point x="50" y="1480" type="line"/>
      <point x="454" y="1480" type="line"/>
      <point x="632" y="1224" type="line"/>
    </contour>
  </outline>
</glyph>
<glyph name="uni1FFE" format="2">
  <advance width="379"/>
  <unicode hex="1FFE"/>
  <anchor x="190" y="1480" name="mkmk_greek_top_center"/>
  <anchor x="190" y="1040" name="_greek_k"/>
  <outline>
    <contour>
      <point x="329" y="1443" type="curve" smooth="yes"/>
      <point x="329" y="1510"/>
      <point x="276" y="1563"/>
      <point x="209" y="1563" type="curve" smooth="yes"/>
      <point x="142" y="1563"/>
      <point x="89" y="1510"/>
      <point x="89" y="1443" type="curve" smooth="yes"/>
      <point x="89" y="1376"/>
      <point x="142" y="1323"/>
      <point x="209" y="1323" type="curve" smooth="yes"/>
      <point x="276" y="1323"/>
      <point x="329" y="1376"/>
    </contour>
    <contour>
      <point x="320" y="1246" type="line"/>
      <point x="243" y="1258"/>
      <point x="184" y="1307"/>
      <point x="184" y="1360" type="curve" smooth="yes"/>
      <point x="184" y="1386"/>
      <point x="208" y="1443"/>
      <point x="208" y="1443" type="curve"/>
      <point x="209" y="1563" type="line"/>
      <point x="141" y="1563"/>
      <point x="50" y="1520"/>
      <point x="50" y="1360" type="curve" smooth="yes"/>
      <point x="50" y="1233"/>
      <point x="189" y="1135"/>
      <point x="284" y="1118" type="curve"/>
    </contour>
  </outline>
</glyph>
<glyph name="quoteleft" format="2">
  <advance width="565"/>
  <unicode hex="2018"/>
  <outline>
    <contour>
      <point x="515" y="969" type="curve" smooth="yes"/>
      <point x="515" y="858"/>
      <point x="426" y="769"/>
      <point x="315" y="769" type="curve" smooth="yes"/>
      <point x="204" y="769"/>
      <point x="115" y="858"/>
      <point x="115" y="969" type="curve" smooth="yes"/>
      <point x="115" y="1080"/>
      <point x="204" y="1169"/>
      <point x="315" y="1169" type="curve" smooth="yes"/>
      <point x="426" y="1169"/>
      <point x="515" y="1080"/>
    </contour>
    <contour>
      <point x="500" y="1280" type="line"/>
      <point x="371" y="1260"/>
      <point x="274" y="1195"/>
      <point x="274" y="1107" type="curve" smooth="yes"/>
      <point x="274" y="1063"/>
      <point x="313" y="969"/>
      <point x="313" y="969" type="curve"/>
      <point x="315" y="769" type="line"/>
      <point x="202" y="769"/>
      <point x="50" y="841"/>
      <point x="50" y="1107" type="curve" smooth="yes"/>
      <point x="50" y="1318"/>
      <point x="281" y="1482"/>
      <point x="440" y="1510" type="curve"/>
    </contour>
  </outline>
</glyph>
<glyph name="uni2036" format="2">
  <advance width="1232"/>
  <unicode hex="2036"/>
  <outline>
    <contour>
      <point x="261" y="1224" type="line"/>
      <point x="617" y="1224" type="line"/>
      <point x="439" y="1480" type="line"/>
      <point x="35" y="1480" type="line"/>
    </contour>
    <contour>
      <point x="841" y="1224" type="line"/>
      <point x="1197" y="1224" type="line"/>
      <point x="1019" y="1480" type="line"/>
      <point x="615" y="1480" type="line"/>
    </contour>
  </outline>
</glyph>
<glyph name="guilsinglright" format="2">
  <advance width="828"/>
  <unicode hex="203A"/>
  <outline>
    <contour>
      <point x="793" y="660" type="line"/>
      <point x="443" y="196" type="line"/>
      <point x="35" y="196" type="line"/>
      <point x="389" y="660" type="line"/>
      <point x="35" y="1126" type="line"/>
      <point x="443" y="1126" type="line"/>
    </contour>
  </outline>
</glyph>
<glyph name="fraction" format="2">
  <advance width="994"/>
  <unicode hex="2044"/>
  <outline>
    <contour>
      <point x="251" y="67" type="line"/>
      <point x="959" y="1289" type="line"/>
      <point x="743" y="1413" type="line"/>
      <point x="35" y="191" type="line"/>
    </contour>
  </outline>
</glyph>
<glyph name="uni2046" format="2">
  <advance width="883"/>
  <unicode hex="2046"/>
  <outline>
    <contour>
      <point x="743" y="820" type="line"/>
      <point x="35" y="820" type="line"/>
      <point x="35" y="500" type="line"/>
      <point x="743" y="500" type="line"/>
    </contour>
    <contour>
      <point x="35" y="1320" type="line"/>
      <point x="453" y="1320" type="line"/>
      <point x="453" y="0" type="line"/>
      <point x="35" y="0" type="line"/>
      <point x="35" y="-320" type="line"/>
      <point x="813" y="-320" type="line"/>
      <point x="813" y="1640" type="line"/>
      <point x="35" y="1640" type="line"/>
    </contour>
  </outline>
</glyph>
<glyph name="uni2052" format="2">
  <advance width="1211"/>
  <unicode hex="2052"/>
  <outline>
    <contour>
      <point x="35" y="1200" type="curve" smooth="yes"/>
      <point x="35" y="1311"/>
      <point x="124" y="1400"/>
      <point x="235" y="1400" type="curve" smooth="yes"/>
      <point x="346" y="1400"/>
      <point x="435" y="1311"/>
      <point x="435" y="1200" type="curve" smooth="yes"/>
      <point x="435" y="1089"/>
      <point x="346" y="1000"/>
      <point x="235" y="1000" type="curve" smooth="yes"/>
      <point x="124" y="1000"/>
      <point x="35" y="1089"/>
    </contour>
    <contour>
      <point x="776" y="160" type="curve" smooth="yes"/>
      <point x="776" y="271"/>
      <point x="865" y="360"/>
      <point x="976" y="360" type="curve" smooth="yes"/>
      <point x="1087" y="360"/>
      <point x="1176" y="271"/>
      <point x="1176" y="160" type="curve" smooth="yes"/>
      <point x="1176" y="49"/>
      <point x="1087" y="-40"/>
      <point x="976" y="-40" type="curve" smooth="yes"/>
      <point x="865" y="-40"/>
      <point x="776" y="49"/>
    </contour>
    <contour>
      <point x="1176" y="1640" type="line"/>
      <point x="415" y="-200" type="line"/>
      <point x="35" y="-200" type="line"/>
      <point x="796" y="1640" type="line"/>
    </contour>
  </outline>
</glyph>
<glyph name="uni2059" format="2">
  <advance width="1288"/>
  <unicode hex="2059"/>
  <outline>
    <contour>
      <point x="824" y="928" type="curve" smooth="yes"/>
      <point x="824" y="1040"/>
      <point x="907" y="1130"/>
      <point x="1019" y="1130" type="curve" smooth="yes"/>
      <point x="1131" y="1130"/>
      <point x="1218" y="1040"/>
      <point x="1218" y="928" type="curve" smooth="yes"/>
      <point x="1218" y="816"/>
      <point x="1131" y="730"/>
      <point x="1019" y="730" type="curve" smooth="yes"/>
      <point x="907" y="730"/>
      <point x="824" y="816"/>
    </contour>
    <contour>
      <point x="70" y="928" type="curve" smooth="yes"/>
      <point x="70" y="1040"/>
      <point x="153" y="1130"/>
      <point x="265" y="1130" type="curve" smooth="yes"/>
      <point x="377" y="1130"/>
      <point x="464" y="1040"/>
      <point x="464" y="928" type="curve" smooth="yes"/>
      <point x="464" y="816"/>
      <point x="377" y="730"/>
      <point x="265" y="730" type="curve" smooth="yes"/>
      <point x="153" y="730"/>
      <point x="70" y="816"/>
    </contour>
    <contour>
      <point x="824" y="168" type="curve" smooth="yes"/>
      <point x="824" y="280"/>
      <point x="907" y="370"/>
      <point x="1019" y="370" type="curve" smooth="yes"/>
      <point x="1131" y="370"/>
      <point x="1218" y="280"/>
      <point x="1218" y="168" type="curve" smooth="yes"/>
      <point x="1218" y="56"/>
      <point x="1131" y="-30"/>
      <point x="1019" y="-30" type="curve" smooth="yes"/>
      <point x="907" y="-30"/>
      <point x="824" y="56"/>
    </contour>
    <contour>
      <point x="70" y="168" type="curve" smooth="yes"/>
      <point x="70" y="280"/>
      <point x="153" y="370"/>
      <point x="265" y="370" type="curve" smooth="yes"/>
      <point x="377" y="370"/>
      <point x="464" y="280"/>
      <point x="464" y="168" type="curve" smooth="yes"/>
      <point x="464" y="56"/>
      <point x="377" y="-30"/>
      <point x="265" y="-30" type="curve" smooth="yes"/>
      <point x="153" y="-30"/>
      <point x="70" y="56"/>
    </contour>
    <contour>
      <point x="445" y="550" type="curve" smooth="yes"/>
      <point x="445" y="662"/>
      <point x="528" y="752"/>
      <point x="640" y="752" type="curve" smooth="yes"/>
      <point x="752" y="752"/>
      <point x="839" y="662"/>
      <point x="839" y="550" type="curve" smooth="yes"/>
      <point x="839" y="438"/>
      <point x="752" y="352"/>
      <point x="640" y="352" type="curve" smooth="yes"/>
      <point x="528" y="352"/>
      <point x="445" y="438"/>
    </contour>
  </outline>
</glyph>
<glyph name="six.superior" format="2">
  <advance width="796"/>
  <unicode hex="2076"/>
  <outline>
    <contour>
      <point x="309" y="1350" type="curve"/>
      <point x="315" y="1398"/>
      <point x="360" y="1446"/>
      <point x="447" y="1446" type="curve" smooth="yes"/>
      <point x="570" y="1446"/>
      <point x="636" y="1385"/>
      <point x="636" y="1385" type="curve"/>
      <point x="753" y="1591" type="line"/>
      <point x="753" y="1591"/>
      <point x="655" y="1686"/>
      <point x="473" y="1686" type="curve" smooth="yes"/>
      <point x="130" y="1686"/>
      <point x="37" y="1463"/>
      <point x="37" y="1214" type="curve" smooth="yes"/>
      <point x="37" y="1038"/>
      <point x="115" y="932"/>
      <point x="129" y="916" type="curve" smooth="yes"/>
      <point x="192" y="843"/>
      <point x="271" y="792"/>
      <point x="405" y="792" type="curve" smooth="yes"/>
      <point x="628" y="792"/>
      <point x="759" y="916"/>
      <point x="759" y="1100" type="curve" smooth="yes"/>
      <point x="759" y="1284"/>
      <point x="622" y="1398"/>
      <point x="426" y="1398" type="curve" smooth="yes"/>
      <point x="390" y="1398"/>
      <point x="334" y="1380"/>
    </contour>
    <contour>
      <point x="321" y="1100" type="curve" smooth="yes"/>
      <point x="321" y="1136"/>
      <point x="349" y="1168"/>
      <point x="405" y="1168" type="curve" smooth="yes"/>
      <point x="461" y="1168"/>
      <point x="489" y="1136"/>
      <point x="489" y="1100" type="curve" smooth="yes"/>
      <point x="489" y="1064"/>
      <point x="461" y="1032"/>
      <point x="405" y="1032" type="curve" smooth="yes"/>
      <point x="349" y="1032"/>
      <point x="321" y="1064"/>
    </contour>
  </outline>
</glyph>
<glyph name="uni2090" format="2">
  <advance width="780"/>
  <unicode hex="2090"/>
  <outline>
    <contour>
      <point x="538" y="-153" type="curve"/>
      <point x="510" y="-197"/>
      <point x="433" y="-233"/>
      <point x="348" y="-233" type="curve" smooth="yes"/>
      <point x="171" y="-233"/>
      <point x="70" y="-131"/>
      <point x="70" y="0" type="curve" smooth="yes"/>
      <point x="70" y="131"/>
      <point x="199" y="208"/>
      <point x="376" y="208" type="curve" smooth="yes"/>
      <point x="395" y="208"/>
      <point x="427" y="203"/>
      <point x="453" y="191" type="curve"/>
      <point x="452" y="199"/>
      <point x="430" y="223"/>
      <point x="376" y="223" type="curve" smooth="yes"/>
      <point x="245" y="223"/>
      <point x="179" y="191"/>
      <point x="179" y="191" type="curve"/>
      <point x="98" y="378" type="line"/>
      <point x="98" y="378"/>
      <point x="220" y="433"/>
      <point x="376" y="433" type="curve" smooth="yes"/>
      <point x="547" y="433"/>
      <point x="682" y="393"/>
      <point x="682" y="188" type="curve" smooth="yes"/>
      <point x="682" y="129" type="line"/>
      <point x="682" y="100" type="line"/>
      <point x="682" y="53" type="line" smooth="yes"/>
      <point x="682" y="18"/>
      <point x="703" y="-17"/>
      <point x="745" y="-17" type="curve"/>
      <point x="698" y="-234" type="line"/>
      <point x="627" y="-227"/>
      <point x="575" y="-192"/>
    </contour>
    <contour>
      <point x="443" y="17" type="curve" smooth="yes"/>
      <point x="443" y="25"/>
      <point x="426" y="27"/>
      <point x="376" y="27" type="curve" smooth="yes"/>
      <point x="326" y="27"/>
      <point x="308" y="25"/>
      <point x="308" y="17" type="curve" smooth="yes"/>
      <point x="308" y="9"/>
      <point x="326" y="7"/>
      <point x="376" y="7" type="curve" smooth="yes"/>
      <point x="426" y="7"/>
      <point x="443" y="9"/>
    </contour>
  </outline>
</glyph>
<glyph name="uni2094" format="2">
  <advance width="782"/>
  <unicode hex="2094"/>
  <outline>
    <contour>
      <point x="651" y="31" type="line"/>
      <point x="651" y="181" type="line"/>
      <point x="152" y="181" type="line"/>
      <point x="152" y="31" type="line"/>
    </contour>
    <contour>
      <point x="391" y="433" type="curve" smooth="yes"/>
      <point x="253" y="433"/>
      <point x="134" y="375"/>
      <point x="78" y="274" type="curve"/>
      <point x="313" y="190" type="line"/>
      <point x="327" y="210"/>
      <point x="372" y="212"/>
      <point x="391" y="212" type="curve" smooth="yes"/>
      <point x="451" y="212"/>
      <point x="512" y="193"/>
      <point x="512" y="113" type="curve" smooth="yes"/>
      <point x="512" y="33"/>
      <point x="471" y="13"/>
      <point x="391" y="13" type="curve" smooth="yes"/>
      <point x="311" y="13"/>
      <point x="270" y="33"/>
      <point x="270" y="113" type="curve" smooth="yes"/>
      <point x="270" y="145"/>
      <point x="292" y="157"/>
      <point x="316" y="181" type="curve"/>
      <point x="56" y="181" type="line"/>
      <point x="53" y="160"/>
      <point x="50" y="137"/>
      <point x="50" y="113" type="curve" smooth="yes"/>
      <point x="50" y="-87"/>
      <point x="191" y="-207"/>
      <point x="391" y="-207" type="curve" smooth="yes"/>
      <point x="591" y="-207"/>
      <point x="732" y="-87"/>
      <point x="732" y="113" type="curve" smooth="yes"/>
      <point x="732" y="313"/>
      <point x="591" y="432"/>
    </contour>
  </outline>
</glyph>
<glyph name="uni2097" format="2">
  <advance width="477"/>
  <unicode hex="2097"/>
  <outline>
    <contour>
      <point x="415" y="42" type="curve"/>
      <point x="473" y="-173" type="line"/>
      <point x="455" y="-183"/>
      <point x="423" y="-206"/>
      <point x="363" y="-206" type="curve" smooth="yes"/>
      <point x="169" y="-206"/>
      <point x="70" y="-153"/>
      <point x="70" y="21" type="curve" smooth="yes"/>
      <point x="70" y="61" type="line"/>
      <point x="70" y="141" type="line"/>
      <point x="70" y="670" type="line"/>
      <point x="340" y="670" type="line"/>
      <point x="340" y="182" type="line"/>
      <point x="340" y="109" type="line"/>
      <point x="340" y="72" type="line" smooth="yes"/>
      <point x="340" y="45"/>
      <point x="350" y="34"/>
      <point x="380" y="34" type="curve" smooth="yes"/>
      <point x="391" y="34"/>
      <point x="407" y="37"/>
    </contour>
  </outline>
</glyph>
<glyph name="uni209B" format="2">
  <advance width="660"/>
  <unicode hex="209B"/>
  <outline>
    <contour>
      <point x="343" y="433" type="curve" smooth="yes"/>
      <point x="481" y="433"/>
      <point x="576" y="391"/>
      <point x="610" y="280" type="curve"/>
      <point x="375" y="196" type="line"/>
      <point x="374" y="212"/>
      <point x="358" y="222"/>
      <point x="343" y="222" type="curve" smooth="yes"/>
      <point x="328" y="222"/>
      <point x="312" y="220"/>
      <point x="312" y="212" type="curve" smooth="yes"/>
      <point x="312" y="204"/>
      <point x="327" y="201"/>
      <point x="343" y="198" type="curve" smooth="yes"/>
      <point x="513" y="163"/>
      <point x="607" y="130"/>
      <point x="607" y="-19" type="curve" smooth="yes"/>
      <point x="607" y="-158"/>
      <point x="503" y="-207"/>
      <point x="343" y="-207" type="curve" smooth="yes"/>
      <point x="185" y="-207"/>
      <point x="82" y="-158"/>
      <point x="50" y="-48" type="curve"/>
      <point x="285" y="36" type="line"/>
      <point x="286" y="13"/>
      <point x="324" y="4"/>
      <point x="343" y="4" type="curve" smooth="yes"/>
      <point x="355" y="4"/>
      <point x="377" y="6"/>
      <point x="377" y="16" type="curve" smooth="yes"/>
      <point x="377" y="26"/>
      <point x="359" y="28"/>
      <point x="343" y="31" type="curve" smooth="yes"/>
      <point x="181" y="64"/>
      <point x="82" y="101"/>
      <point x="82" y="247" type="curve" smooth="yes"/>
      <point x="82" y="363"/>
      <point x="181" y="433"/>
    </contour>
  </outline>
</glyph>
<glyph name="franc" format="2">
  <advance width="1359"/>
  <unicode hex="20A3"/>
  <outline>
    <contour>
      <point x="860" y="166" type="line"/>
      <point x="0" y="166" type="line"/>
      <point x="0" y="212"/>
      <point x="0" y="360"/>
      <point x="0" y="406" type="curve"/>
      <point x="860" y="406" type="line"/>
    </contour>
    <contour>
      <point x="590" y="219" type="line"/>
      <point x="590" y="0" type="line"/>
      <point x="210" y="0" type="line"/>
      <point x="210" y="1480" type="line"/>
      <point x="1324" y="1480" type="line"/>
      <point x="1324" y="1144" type="line"/>
      <point x="590" y="1144" type="line"/>
      <point x="590" y="908" type="line"/>
      <point x="1210" y="908" type="line"/>
      <point x="1210" y="572" type="line"/>
      <point x="590" y="572" type="line"/>
    </contour>
  </outline>
</glyph>
<glyph name="uni20A8" format="2">
  <advance width="2296"/>
  <unicode hex="20A8"/>
  <note>ASCII 'R' + 's'</note>
  <outline>
    <contour>
      <point x="1759" y="1070" type="curve" smooth="yes"/>
      <point x="2039" y="1070"/>
      <point x="2179" y="931"/>
      <point x="2225" y="775" type="curve"/>
      <point x="1878" y="685" type="line"/>
      <point x="1878" y="705"/>
      <point x="1859" y="750"/>
      <point x="1759" y="750" type="curve" smooth="yes"/>
      <point x="1689" y="750"/>
      <point x="1670" y="735"/>
      <point x="1670" y="715" type="curve" smooth="yes"/>
      <point x="1670" y="695"/>
      <point x="1700" y="675"/>
      <point x="1759" y="663" type="curve" smooth="yes"/>
      <point x="2052" y="601"/>
      <point x="2246" y="566"/>
      <point x="2246" y="326" type="curve" smooth="yes"/>
      <point x="2246" y="86"/>
      <point x="2035" y="-30"/>
      <point x="1759" y="-30" type="curve" smooth="yes"/>
      <point x="1520" y="-30"/>
      <point x="1328" y="85"/>
      <point x="1280" y="265" type="curve"/>
      <point x="1632" y="356" type="line"/>
      <point x="1632" y="326"/>
      <point x="1669" y="290"/>
      <point x="1759" y="290" type="curve" smooth="yes"/>
      <point x="1849" y="290"/>
      <point x="1886" y="296"/>
      <point x="1886" y="326" type="curve" smooth="yes"/>
      <point x="1886" y="356"/>
      <point x="1818" y="371"/>
      <point x="1759" y="383" type="curve" smooth="yes"/>
      <point x="1479" y="442"/>
      <point x="1310" y="515"/>
      <point x="1310" y="715" type="curve" smooth="yes"/>
      <point x="1310" y="915"/>
      <point x="1479" y="1070"/>
    </contour>
    <contour>
      <point x="395" y="643" type="line"/>
      <point x="848" y="0" type="line"/>
      <point x="1288" y="0" type="line"/>
      <point x="812" y="660" type="line"/>
    </contour>
    <contour>
      <point x="450" y="1144" type="line"/>
      <point x="637" y="1144" type="line"/>
      <point x="757" y="1144"/>
      <point x="828" y="1094"/>
      <point x="828" y="984" type="curve" smooth="yes"/>
      <point x="828" y="874"/>
      <point x="757" y="824"/>
      <point x="637" y="824" type="curve"/>
      <point x="450" y="824" type="line"/>
    </contour>
    <contour>
      <point x="70" y="0" type="line"/>
      <point x="450" y="0" type="line"/>
      <point x="450" y="488" type="line"/>
      <point x="637" y="488" type="line"/>
      <point x="1023" y="488"/>
      <point x="1208" y="729"/>
      <point x="1208" y="984" type="curve" smooth="yes"/>
      <point x="1208" y="1239"/>
      <point x="1023" y="1480"/>
      <point x="637" y="1480" type="curve"/>
      <point x="70" y="1480" type="line"/>
    </contour>
  </outline>
</glyph>
<glyph name="uni20AF" format="2">
  <advance width="3176"/>
  <unicode hex="20AF"/>
  <outline>
    <contour>
      <point x="1090" y="1190" type="curve" smooth="yes"/>
      <point x="1366" y="1190"/>
      <point x="1514" y="1045"/>
      <point x="1514" y="820" type="curve" smooth="yes"/>
      <point x="1514" y="794"/>
      <point x="1512" y="768"/>
      <point x="1508" y="740" type="curve" smooth="yes"/>
      <point x="1476" y="510"/>
      <point x="1348" y="290"/>
      <point x="1110" y="290" type="curve"/>
      <point x="872" y="290"/>
      <point x="961" y="648"/>
      <point x="496" y="648" type="curve"/>
      <point x="462" y="408" type="line"/>
      <point x="712" y="408"/>
      <point x="651" y="-30"/>
      <point x="1065" y="-30" type="curve"/>
      <point x="1569" y="-30"/>
      <point x="1806" y="301"/>
      <point x="1868" y="740" type="curve" smooth="yes"/>
      <point x="1873" y="776"/>
      <point x="1876" y="812"/>
      <point x="1876" y="847" type="curve" smooth="yes"/>
      <point x="1876" y="1232"/>
      <point x="1570" y="1510"/>
      <point x="1135" y="1510" type="curve" smooth="yes"/>
      <point x="595" y="1510"/>
      <point x="327" y="1293"/>
      <point x="327" y="1293" type="curve"/>
      <point x="419" y="979" type="line"/>
      <point x="419" y="979"/>
      <point x="610" y="1190"/>
    </contour>
    <contour>
      <point x="88" y="309" type="curve" smooth="yes"/>
      <point x="85" y="290"/>
      <point x="84" y="272"/>
      <point x="84" y="255" type="curve" smooth="yes"/>
      <point x="84" y="75"/>
      <point x="223" y="-30"/>
      <point x="401" y="-30" type="curve" smooth="yes"/>
      <point x="596" y="-30"/>
      <point x="778" y="96"/>
      <point x="808" y="309" type="curve" smooth="yes"/>
      <point x="811" y="328"/>
      <point x="812" y="346"/>
      <point x="812" y="363" type="curve" smooth="yes"/>
      <point x="812" y="543"/>
      <point x="674" y="648"/>
      <point x="496" y="648" type="curve" smooth="yes"/>
      <point x="301" y="648"/>
      <point x="118" y="522"/>
    </contour>
    <contour>
      <point x="358" y="309" type="curve" smooth="yes"/>
      <point x="366" y="363"/>
      <point x="408" y="408"/>
      <point x="462" y="408" type="curve" smooth="yes"/>
      <point x="510" y="408"/>
      <point x="539" y="372"/>
      <point x="539" y="326" type="curve" smooth="yes"/>
      <point x="539" y="320"/>
      <point x="539" y="315"/>
      <point x="538" y="309" type="curve" smooth="yes"/>
      <point x="530" y="255"/>
      <point x="488" y="210"/>
      <point x="434" y="210" type="curve" smooth="yes"/>
      <point x="386" y="210"/>
      <point x="357" y="246"/>
      <point x="357" y="292" type="curve" smooth="yes"/>
      <point x="357" y="298"/>
      <point x="357" y="303"/>
    </contour>
    <contour>
      <point x="677" y="1297" type="line"/>
      <point x="538" y="309" type="line"/>
      <point x="898" y="309" type="line"/>
      <point x="1037" y="1297" type="line"/>
    </contour>
    <contour>
      <point x="1986" y="520" type="line" smooth="yes"/>
      <point x="2031" y="840"/>
      <point x="2293" y="1070"/>
      <point x="2613" y="1070" type="curve" smooth="yes"/>
      <point x="2903" y="1070"/>
      <point x="3092" y="881"/>
      <point x="3092" y="608" type="curve" smooth="yes"/>
      <point x="3092" y="579"/>
      <point x="3090" y="550"/>
      <point x="3086" y="520" type="curve" smooth="yes"/>
      <point x="3041" y="200"/>
      <point x="2779" y="-30"/>
      <point x="2459" y="-30" type="curve" smooth="yes"/>
      <point x="2391" y="-30"/>
      <point x="2307" y="14"/>
      <point x="2281" y="60" type="curve"/>
      <point x="2211" y="-440" type="line"/>
      <point x="1851" y="-440" type="line"/>
    </contour>
    <contour>
      <point x="2346" y="520" type="curve" smooth="yes"/>
      <point x="2343" y="501"/>
      <point x="2342" y="482"/>
      <point x="2342" y="464" type="curve" smooth="yes"/>
      <point x="2342" y="362"/>
      <point x="2388" y="290"/>
      <point x="2504" y="290" type="curve" smooth="yes"/>
      <point x="2641" y="290"/>
      <point x="2707" y="383"/>
      <point x="2726" y="520" type="curve" smooth="yes"/>
      <point x="2729" y="541"/>
      <point x="2730" y="561"/>
      <point x="2730" y="580" type="curve" smooth="yes"/>
      <point x="2730" y="684"/>
      <point x="2684" y="750"/>
      <point x="2568" y="750" type="curve" smooth="yes"/>
      <point x="2431" y="750"/>
      <point x="2365" y="657"/>
    </contour>
  </outline>
</glyph>
<glyph name="uni20B1" format="2">
  <advance width="1678"/>
  <unicode hex="20B1"/>
  <outline>
    <contour>
      <point x="322" y="848" type="line"/>
      <point x="70" y="848" type="line"/>
      <point x="70" y="894"/>
      <point x="70" y="923"/>
      <point x="70" y="969" type="curve"/>
      <point x="322" y="969" type="line"/>
      <point x="1608" y="969" type="line"/>
      <point x="1608" y="848" type="line"/>
    </contour>
    <contour>
      <point x="322" y="999" type="line"/>
      <point x="70" y="999" type="line"/>
      <point x="70" y="1045"/>
      <point x="70" y="1074"/>
      <point x="70" y="1120" type="curve"/>
      <point x="322" y="1120" type="line"/>
      <point x="1608" y="1120" type="line"/>
      <point x="1608" y="999" type="line"/>
    </contour>
    <contour>
      <point x="660" y="1144" type="line"/>
      <point x="660" y="824" type="line"/>
      <point x="847" y="824" type="line"/>
      <point x="967" y="824"/>
      <point x="1038" y="874"/>
      <point x="1038" y="984" type="curve" smooth="yes"/>
      <point x="1038" y="1094"/>
      <point x="967" y="1144"/>
      <point x="847" y="1144" type="curve"/>
    </contour>
    <contour>
      <point x="280" y="-10" type="line"/>
      <point x="280" y="1480" type="line"/>
      <point x="847" y="1480" type="line"/>
      <point x="1233" y="1480"/>
      <point x="1418" y="1239"/>
      <point x="1418" y="984" type="curve" smooth="yes"/>
      <point x="1418" y="729"/>
      <point x="1233" y="488"/>
      <point x="847" y="488" type="curve"/>
      <point x="660" y="488" type="line"/>
      <point x="660" y="0" type="line"/>
    </contour>
  </outline>
</glyph>
<glyph name="uni20B6" format="2">
  <advance width="1683"/>
  <unicode hex="20B6"/>
  <outline>
    <contour>
      <point x="682" y="0" type="line"/>
      <point x="322" y="0" type="line"/>
      <point x="322" y="720" type="line"/>
      <point x="70" y="720" type="line"/>
      <point x="70" y="1028" type="line"/>
      <point x="142" y="1028" type="line"/>
      <point x="323" y="1028" type="line"/>
      <point x="323" y="1320" type="line"/>
      <point x="682" y="1320" type="line"/>
    </contour>
    <contour>
      <point x="754" y="1028" type="line"/>
      <point x="893" y="1028" type="line"/>
      <point x="893" y="1320" type="line"/>
      <point x="1252" y="1320" type="line"/>
      <point x="1252" y="1040" type="line"/>
      <point x="1557" y="1040" type="line"/>
      <point x="1557" y="720" type="line"/>
      <point x="1252" y="720" type="line"/>
      <point x="1252" y="440" type="line" smooth="yes"/>
      <point x="1252" y="340"/>
      <point x="1300" y="290"/>
      <point x="1390" y="290" type="curve" smooth="yes"/>
      <point x="1450" y="290"/>
      <point x="1525" y="313"/>
      <point x="1557" y="345" type="curve"/>
      <point x="1648" y="22" type="line"/>
      <point x="1592" y="-2"/>
      <point x="1507" y="-30"/>
      <point x="1386" y="-30" type="curve" smooth="yes"/>
      <point x="1026" y="-30"/>
      <point x="892" y="160"/>
      <point x="892" y="440" type="curve" smooth="yes"/>
      <point x="892" y="720" type="line"/>
      <point x="682" y="720" type="line"/>
      <point x="682" y="1028" type="line"/>
    </contour>
  </outline>
</glyph>
<glyph name="uni2100" format="2">
  <advance width="1733"/>
  <unicode hex="2100"/>
  <outline>
    <contour>
      <point x="672" y="67" type="line"/>
      <point x="456" y="191" type="line"/>
      <point x="1164" y="1413" type="line"/>
      <point x="1380" y="1289" type="line"/>
    </contour>
    <contour>
      <point x="1380" y="383" type="curve" smooth="yes"/>
      <point x="1419" y="383"/>
      <point x="1441" y="364"/>
      <point x="1448" y="331" type="curve"/>
      <point x="1683" y="464" type="line"/>
      <point x="1627" y="565"/>
      <point x="1518" y="623"/>
      <point x="1380" y="623" type="curve" smooth="yes"/>
      <point x="1180" y="623"/>
      <point x="1039" y="503"/>
      <point x="1039" y="303" type="curve" smooth="yes"/>
      <point x="1039" y="103"/>
      <point x="1180" y="-18"/>
      <point x="1380" y="-18" type="curve" smooth="yes"/>
      <point x="1518" y="-18"/>
      <point x="1627" y="40"/>
      <point x="1683" y="141" type="curve"/>
      <point x="1448" y="274" type="line"/>
      <point x="1441" y="241"/>
      <point x="1419" y="222"/>
      <point x="1380" y="222" type="curve" smooth="yes"/>
      <point x="1330" y="222"/>
      <point x="1309" y="253"/>
      <point x="1309" y="303" type="curve" smooth="yes"/>
      <point x="1309" y="353"/>
      <point x="1330" y="383"/>
    </contour>
    <contour>
      <point x="518" y="845" type="curve"/>
      <point x="490" y="801"/>
      <point x="413" y="765"/>
      <point x="328" y="765" type="curve" smooth="yes"/>
      <point x="151" y="765"/>
      <point x="50" y="867"/>
      <point x="50" y="998" type="curve" smooth="yes"/>
      <point x="50" y="1129"/>
      <point x="179" y="1206"/>
      <point x="356" y="1206" type="curve" smooth="yes"/>
      <point x="375" y="1206"/>
      <point x="407" y="1201"/>
      <point x="433" y="1189" type="curve"/>
      <point x="432" y="1197"/>
      <point x="410" y="1221"/>
      <point x="356" y="1221" type="curve" smooth="yes"/>
      <point x="225" y="1221"/>
      <point x="159" y="1189"/>
      <point x="159" y="1189" type="curve"/>
      <point x="78" y="1376" type="line"/>
      <point x="78" y="1376"/>
      <point x="200" y="1431"/>
      <point x="356" y="1431" type="curve" smooth="yes"/>
      <point x="527" y="1431"/>
      <point x="662" y="1391"/>
      <point x="662" y="1186" type="curve" smooth="yes"/>
      <point x="662" y="1127" type="line"/>
      <point x="662" y="1098" type="line"/>
      <point x="662" y="1051" type="line" smooth="yes"/>
      <point x="662" y="1016"/>
      <point x="683" y="981"/>
      <point x="725" y="981" type="curve"/>
      <point x="678" y="764" type="line"/>
      <point x="607" y="771"/>
      <point x="555" y="806"/>
    </contour>
    <contour>
      <point x="423" y="1015" type="curve" smooth="yes"/>
      <point x="423" y="1023"/>
      <point x="406" y="1025"/>
      <point x="356" y="1025" type="curve" smooth="yes"/>
      <point x="306" y="1025"/>
      <point x="288" y="1023"/>
      <point x="288" y="1015" type="curve" smooth="yes"/>
      <point x="288" y="1007"/>
      <point x="306" y="1005"/>
      <point x="356" y="1005" type="curve" smooth="yes"/>
      <point x="406" y="1005"/>
      <point x="423" y="1007"/>
    </contour>
  </outline>
</glyph>
